SplineFontDB: 3.0
FontName: Samaano-Bold
FullName: Samaano Bold
FamilyName: Samaano
Weight: Bold
Copyright: Copyright 2025 The Samaano Project Authors (https://github.com/mitradranirban/samaano-fonts)
UComments: "2024-8-27: Created with FontForge (https://fontforge.org) and fontra(https://fontra.xyz"
Version: 2.600
StyleMapFamilyName: Samaano Bold
ItalicAngle: 0
UnderlinePosition: 0
UnderlineWidth: 102
Ascent: 1638
Descent: 410
InvalidEm: 0
UFOAscent: 1638
UFODescent: -410
LayerCount: 2
Layer: 0 0 "Back" 1
Layer: 1 0 "public.default" 0 "glyphs"
StyleMap: 0x0020
FSType: 0
OS2Version: 0
OS2_WeightWidthSlopeOnly: 0
OS2_UseTypoMetrics: 0
CreationTime: 1765465460
ModificationTime: 1765465460
PfmFamily: 16
TTFWeight: 700
TTFWidth: 5
LineGap: 0
VLineGap: 0
Panose: 2 7 8 9 2 2 5 2 4 4
OS2TypoAscent: 2457
OS2TypoAOffset: 0
OS2TypoDescent: -615
OS2TypoDOffset: 0
OS2TypoLinegap: 0
OS2WinAscent: 3225
OS2WinAOffset: 0
OS2WinDescent: 1040
OS2WinDOffset: 0
HheadAscent: 2457
HheadAOffset: 0
HheadDescent: -615
HheadDOffset: 0
OS2CapHeight: 1638
OS2XHeight: 1023
OS2FamilyClass: 1031
OS2Vendor: 'anir'
Lookup: 1 0 0 "loclLocalizedFormsinLatinlookup10" { "loclLocalizedFormsinLatinlookup10 subtable"  } ['locl' ('latn' <'MOL ' 'ROM ' > ) ]
Lookup: 6 0 0 "loclLocalizedFormsinLatinlookup11" { "loclLocalizedFormsinLatinlookup11 contextual 0"  "loclLocalizedFormsinLatinlookup11 contextual 1"  } ['locl' ('latn' <'CAT ' > ) ]
Lookup: 4 0 0 "Ligature Substitution lookup 2" { "Ligature Substitution lookup 2 subtable"  } []
Lookup: 4 0 0 "Ligature Substitution lookup 3" { "Ligature Substitution lookup 3 subtable"  } []
Lookup: 6 16 0 "ccmp_soft_dotted" { "ccmp_soft_dotted subtable"  } ['ccmp' ('latn' <'dflt' > 'DFLT' <'dflt' > ) ]
Lookup: 1 16 0 "Single Substitution lookup 5" { "Single Substitution lookup 5 subtable"  } []
Lookup: 4 0 0 "dligDiscretionaryLigatureslookup0" { "dligDiscretionaryLigatureslookup0 subtable"  } ['dlig' ('latn' <'dflt' > 'DFLT' <'dflt' > ) ]

StartChar: A
Encoding: 0 65 0
GlifName: A_
Width: 1024
VWidth: 0
GlyphClass: 2
Flags: W
AnchorPoint: "top" 525 1641 basechar 0
AnchorPoint: "base" 546 0 basechar 0
LayerCount: 2
Fore
SplineSet
125 0 m 257
 324 0 l 257
 324 1548 l 257
 125 1548 l 257
 125 0 l 257
186 1332 m 257
 847 1332 l 257
 847 1548 l 257
 186 1548 l 257
 186 1332 l 257
204 1023 m 257
 204 849 l 257
 835 849 l 257
 835 1023 l 257
 204 1023 l 257
722 0 m 257
 922 0 l 257
 922 1548 l 257
 722 1548 l 257
 722 0 l 257
EndSplineSet
Substitution2: "Single Substitution lookup 10 subtable" ordfeminine
EndChar

StartChar: AE
Encoding: 1 198 1
GlifName: A_E_
Width: 1024
VWidth: 0
GlyphClass: 2
Flags: W
AnchorPoint: "top" 533 1805 basechar 0
AnchorPoint: "base" 528 -10 basechar 0
LayerCount: 2
Fore
SplineSet
646 185 m 257
 646 0 l 257
 996 0 l 257
 996 185 l 257
 646 185 l 257
125 0 m 257
 324 0 l 257
 324 1548 l 257
 125 1548 l 257
 125 0 l 257
186 1332 m 257
 974 1332 l 257
 974 1548 l 257
 186 1548 l 257
 186 1332 l 257
204 1023 m 257
 204 849 l 257
 922 849 l 257
 922 1023 l 257
 204 1023 l 257
551 0 m 257
 751 0 l 257
 751 1548 l 257
 551 1548 l 257
 551 0 l 257
EndSplineSet
EndChar

StartChar: B
Encoding: 16 66 16
GlifName: B_
Width: 1024
VWidth: 0
GlyphClass: 2
Flags: W
AnchorPoint: "top" 262 1657 basechar 0
AnchorPoint: "base" 250 -67 basechar 0
LayerCount: 2
Fore
SplineSet
110 0 m 257
 318 0 l 257
 318 1537 l 257
 110 1537 l 257
 110 0 l 257
433 1331 m 257
 947 989 l 257
 947 1215 l 257
 433 1537 l 257
 433 1331 l 257
433 820 m 257
 948 991 l 257
 948 1215 l 257
 433 1023 l 257
 433 820 l 257
375 201 m 257
 375 0 l 257
 929 364 l 257
 929 588 l 257
 375 201 l 257
442 567 m 257
 929 364 l 257
 929 586 l 257
 442 766 l 257
 442 567 l 257
271 1023 m 257
 271 820 l 257
 433 820 l 257
 433 1023 l 257
 271 1023 l 257
270 766 m 257
 270 567 l 257
 442 567 l 257
 442 766 l 257
 270 766 l 257
208 200 m 257
 208 0 l 257
 375 0 l 257
 375 200 l 257
 208 200 l 257
270 1537 m 257
 270 1331 l 257
 433 1331 l 257
 433 1537 l 257
 270 1537 l 257
EndSplineSet
EndChar

StartChar: C
Encoding: 18 67 18
GlifName: C_
Width: 1024
VWidth: 0
GlyphClass: 2
Flags: W
AnchorPoint: "top" 517 1637 basechar 0
AnchorPoint: "base" 525 -71 basechar 0
LayerCount: 2
Fore
SplineSet
71 1537 m 257
 71 0 l 257
 271 0 l 257
 271 1537 l 257
 71 1537 l 257
170 1537 m 257
 170 1338 l 257
 953 1338 l 257
 953 1537 l 257
 170 1537 l 257
156 199 m 257
 156 0 l 257
 951 0 l 257
 951 199 l 257
 156 199 l 257
EndSplineSet
EndChar

StartChar: D
Encoding: 26 68 26
GlifName: D_
Width: 1024
VWidth: 0
GlyphClass: 2
Flags: W
AnchorPoint: "base" 290 -63 basechar 0
AnchorPoint: "top" 308 1641 basechar 0
LayerCount: 2
Fore
SplineSet
107 1548 m 257
 107 0 l 257
 309 0 l 257
 309 1548 l 257
 107 1548 l 257
433 1548 m 257
 433 1350 l 257
 916 767 l 257
 916 1023 l 257
 433 1548 l 257
441 201 m 257
 441 0 l 257
 913 769 l 257
 913 1023 l 257
 441 201 l 257
271 1548 m 257
 271 1349 l 257
 433 1349 l 257
 433 1548 l 257
 271 1548 l 257
279 200 m 257
 279 0 l 257
 441 0 l 257
 441 200 l 257
 279 200 l 257
EndSplineSet
EndChar

StartChar: Dcroat
Encoding: 28 272 28
GlifName: D_croat
Width: 1024
VWidth: 0
GlyphClass: 2
Flags: W
AnchorPoint: "top" 319 1641 basechar 0
AnchorPoint: "base" 300 -152 basechar 0
LayerCount: 2
Fore
SplineSet
0 935 m 257
 0 730 l 257
 476 730 l 257
 476 935 l 257
 0 935 l 257
107 1548 m 257
 107 0 l 257
 309 0 l 257
 309 1548 l 257
 107 1548 l 257
433 1548 m 257
 433 1350 l 257
 916 767 l 257
 916 1023 l 257
 433 1548 l 257
441 201 m 257
 441 0 l 257
 913 769 l 257
 913 1023 l 257
 441 201 l 257
271 1548 m 257
 271 1349 l 257
 433 1349 l 257
 433 1548 l 257
 271 1548 l 257
279 200 m 257
 279 0 l 257
 441 0 l 257
 441 200 l 257
 279 200 l 257
EndSplineSet
EndChar

StartChar: Delta
Encoding: 29 8710 29
GlifName: increment
Width: 1024
VWidth: 0
GlyphClass: 2
Flags: W
LayerCount: 2
Fore
SplineSet
150 197 m 257
 150 -3 l 257
 873 -3 l 257
 873 197 l 257
 150 197 l 257
917 0 m 257
 657 1548 l 257
 436 1548 l 257
 716 0 l 257
 917 0 l 257
307 0 m 257
 532 1548 l 257
 309 1548 l 257
 106 0 l 257
 307 0 l 257
EndSplineSet
EndChar

StartChar: E
Encoding: 30 69 30
GlifName: E_
Width: 1024
VWidth: 0
GlyphClass: 2
Flags: W
AnchorPoint: "top" 470 1641 basechar 0
AnchorPoint: "base" 546 -96 basechar 0
LayerCount: 2
Fore
SplineSet
103 1537 m 257
 103 0 l 257
 303 0 l 257
 303 1537 l 257
 103 1537 l 257
181 1537 m 257
 181 1333 l 257
 900 1333 l 257
 900 1537 l 257
 181 1537 l 257
170 203 m 257
 170 0 l 257
 916 0 l 257
 916 203 l 257
 170 203 l 257
170 888 m 257
 170 688 l 257
 669 688 l 257
 669 888 l 257
 170 888 l 257
EndSplineSet
EndChar

StartChar: Eng
Encoding: 39 330 39
GlifName: E_ng
Width: 1024
VWidth: 0
GlyphClass: 2
Flags: W
AnchorPoint: "top" 528 1660 basechar 0
AnchorPoint: "base" 450 -482 basechar 0
LayerCount: 2
Fore
SplineSet
524 -211 m 257
 524 -406 l 257
 911 -406 l 257
 911 -211 l 257
 524 -211 l 257
112 1490 m 257
 112 0 l 257
 313 0 l 257
 313 1490 l 257
 112 1490 l 257
711 1476 m 257
 711 -406 l 257
 912 -406 l 257
 912 1476 l 257
 711 1476 l 257
112 1548 m 257
 112 1353 l 257
 911 1353 l 257
 911 1548 l 257
 112 1548 l 257
EndSplineSet
EndChar

StartChar: Eth
Encoding: 45 208 45
GlifName: E_th
Width: 1024
VWidth: 0
GlyphClass: 2
Flags: W
AnchorPoint: "top" 268 1662 basechar 0
AnchorPoint: "base" 292 -132 basechar 0
LayerCount: 2
Fore
SplineSet
0 935 m 257
 0 730 l 257
 476 730 l 257
 476 935 l 257
 0 935 l 257
107 1548 m 257
 107 0 l 257
 309 0 l 257
 309 1548 l 257
 107 1548 l 257
433 1548 m 257
 433 1350 l 257
 916 767 l 257
 916 1023 l 257
 433 1548 l 257
441 201 m 257
 441 0 l 257
 913 769 l 257
 913 1023 l 257
 441 201 l 257
271 1548 m 257
 271 1349 l 257
 433 1349 l 257
 433 1548 l 257
 271 1548 l 257
279 200 m 257
 279 0 l 257
 441 0 l 257
 441 200 l 257
 279 200 l 257
EndSplineSet
EndChar

StartChar: Euro
Encoding: 46 8364 46
GlifName: E_uro
Width: 1024
VWidth: 0
GlyphClass: 2
Flags: W
LayerCount: 2
Fore
SplineSet
56 520 m 257
 56 372 l 257
 852 372 l 257
 852 520 l 257
 56 520 l 257
68 935 m 257
 68 788 l 257
 848 788 l 257
 848 935 l 257
 68 935 l 257
324 1023 m 257
 324 179 l 257
 514 179 l 257
 514 1023 l 257
 324 1023 l 257
642 1633 m 257
 323 1023 l 257
 514 1023 l 257
 762 1601 l 257
 642 1633 l 257
324 179 m 257
 668 -406 l 257
 820 -406 l 257
 514 179 l 257
 324 179 l 257
EndSplineSet
EndChar

StartChar: F
Encoding: 47 70 47
GlifName: F_
Width: 1024
VWidth: 0
GlyphClass: 2
Flags: W
AnchorPoint: "top" 521 1630 basechar 0
AnchorPoint: "base" 266 -71 basechar 0
LayerCount: 2
Fore
SplineSet
141 1548 m 257
 141 0 l 257
 341 0 l 257
 341 1548 l 257
 141 1548 l 257
243 1548 m 257
 243 1347 l 257
 877 1347 l 257
 877 1548 l 257
 243 1548 l 257
231 875 m 257
 231 672 l 257
 780 672 l 257
 780 875 l 257
 231 875 l 257
EndSplineSet
EndChar

StartChar: G
Encoding: 48 71 48
GlifName: G_
Width: 1024
VWidth: 0
GlyphClass: 2
Flags: W
AnchorPoint: "top" 526 1646 basechar 0
AnchorPoint: "base" 540 -42 basechar 0
LayerCount: 2
Fore
SplineSet
110 1548 m 257
 110 0 l 257
 312 0 l 257
 312 1548 l 257
 110 1548 l 257
168 1548 m 257
 168 1347 l 257
 868 1347 l 257
 868 1548 l 257
 168 1548 l 257
141 202 m 257
 141 0 l 257
 904 0 l 257
 904 202 l 257
 141 202 l 257
705 561 m 257
 705 18 l 257
 904 18 l 257
 904 561 l 257
 705 561 l 257
EndSplineSet
EndChar

StartChar: Gamma
Encoding: 49 915 49
GlifName: G_amma
Width: 1024
VWidth: 0
GlyphClass: 2
Flags: W
LayerCount: 2
Fore
SplineSet
125 1548 m 257
 125 1348 l 257
 899 1348 l 257
 899 1548 l 257
 125 1548 l 257
129 1436 m 257
 129 6 l 257
 329 6 l 257
 329 1436 l 257
 129 1436 l 257
EndSplineSet
EndChar

StartChar: H
Encoding: 55 72 55
GlifName: H_
Width: 1024
VWidth: 0
GlyphClass: 2
Flags: W
AnchorPoint: "top" 506 1625 basechar 0
AnchorPoint: "base" 496 -34 basechar 0
LayerCount: 2
Fore
SplineSet
114 1537 m 257
 114 0 l 257
 314 0 l 257
 314 1537 l 257
 114 1537 l 257
700 1537 m 257
 700 0 l 257
 910 0 l 257
 910 1537 l 257
 700 1537 l 257
234 1023 m 257
 234 818 l 257
 780 818 l 257
 780 1023 l 257
 234 1023 l 257
EndSplineSet
EndChar

StartChar: H18533
Encoding: 56 9679 56
GlifName: blackC_ircle
Width: 1024
VWidth: 0
GlyphClass: 2
Flags: W
LayerCount: 2
Fore
SplineSet
561 1191 m 257
 378 1179 l 257
 225 1094 l 257
 131 928 l 257
 145 735 l 257
 212 520 l 257
 436 426 l 257
 598 448 l 257
 777 498 l 257
 844 650 l 257
 876 785 l 257
 871 951 l 257
 781 1094 l 257
 561 1191 l 257
EndSplineSet
EndChar

StartChar: H18543
Encoding: 57 9642 57
GlifName: blackS_mallS_quare
Width: 1024
VWidth: 0
GlyphClass: 2
Flags: W
LayerCount: 2
Fore
SplineSet
260 1077 m 257
 260 580 l 257
 757 580 l 257
 757 1077 l 257
 260 1077 l 257
EndSplineSet
PickledDataWithLists: "(dp0
."
EndChar

StartChar: H18551
Encoding: 58 9643 58
GlifName: whiteS_mallS_quare
Width: 1024
VWidth: 0
GlyphClass: 2
Flags: W
LayerCount: 2
Fore
SplineSet
268 1001 m 257
 268 508 l 257
 761 508 l 257
 761 1001 l 257
 268 1001 l 257
317 952 m 257
 712 952 l 257
 712 557 l 257
 317 557 l 257
 317 952 l 257
EndSplineSet
EndChar

StartChar: H22073
Encoding: 59 9633 59
GlifName: whiteS_quare
Width: 1024
VWidth: 0
GlyphClass: 2
Flags: W
LayerCount: 2
Fore
SplineSet
103 1166 m 257
 103 343 l 257
 926 343 l 257
 926 1166 l 257
 103 1166 l 257
185 1084 m 257
 844 1084 l 257
 844 425 l 257
 185 425 l 257
 185 1084 l 257
EndSplineSet
EndChar

StartChar: Hbar
Encoding: 60 294 60
GlifName: H_bar
Width: 1024
VWidth: 0
GlyphClass: 2
Flags: W
LayerCount: 2
Fore
SplineSet
89 1537 m 257
 89 0 l 257
 289 0 l 257
 289 1537 l 257
 89 1537 l 257
675 1537 m 257
 675 0 l 257
 885 0 l 257
 885 1537 l 257
 675 1537 l 257
209 1023 m 257
 209 818 l 257
 755 818 l 257
 755 1023 l 257
 209 1023 l 257
28 1434 m 257
 28 1226 l 257
 953 1226 l 257
 953 1434 l 257
 28 1434 l 257
EndSplineSet
EndChar

StartChar: I
Encoding: 62 73 62
GlifName: I_
Width: 1024
VWidth: 0
GlyphClass: 2
Flags: W
AnchorPoint: "top" 470 1641 basechar 0
AnchorPoint: "base" 504 -66 basechar 0
LayerCount: 2
Fore
SplineSet
144 1537 m 257
 144 1335 l 257
 845 1335 l 257
 845 1537 l 257
 144 1537 l 257
377 1468 m 257
 377 84 l 257
 577 84 l 257
 577 1468 l 257
 377 1468 l 257
124 204 m 257
 124 6 l 257
 880 6 l 257
 880 204 l 257
 124 204 l 257
EndSplineSet
EndChar

StartChar: J
Encoding: 76 74 76
GlifName: J_
Width: 1024
VWidth: 0
GlyphClass: 2
Flags: W
AnchorPoint: "base" 534 -67 basechar 0
AnchorPoint: "top" 798 1649 basechar 0
LayerCount: 2
Fore
SplineSet
700 1527 m 257
 700 0 l 257
 900 0 l 257
 900 1527 l 257
 700 1527 l 257
126 208 m 257
 126 0 l 257
 741 0 l 257
 741 208 l 257
 126 208 l 257
125 503 m 257
 125 52 l 257
 323 52 l 257
 323 503 l 257
 125 503 l 257
EndSplineSet
EndChar

StartChar: K
Encoding: 78 75 78
GlifName: K_
Width: 1024
VWidth: 0
GlyphClass: 2
Flags: W
AnchorPoint: "base" 494 -39 basechar 0
AnchorPoint: "top" 214 1642 basechar 0
LayerCount: 2
Fore
SplineSet
118 1537 m 257
 118 5 l 257
 319 5 l 257
 319 1537 l 257
 118 1537 l 257
163 999 m 257
 282 835 l 257
 939 1529 l 257
 672 1529 l 257
 163 999 l 257
293 798 m 257
 156 643 l 257
 711 0 l 257
 992 0 l 257
 293 798 l 257
EndSplineSet
EndChar

StartChar: L
Encoding: 81 76 81
GlifName: L_
Width: 1024
VWidth: 0
GlyphClass: 2
Flags: W
AnchorPoint: "base" 498 -43 basechar 0
AnchorPoint: "top" 140 1650 basechar 0
LayerCount: 2
Fore
SplineSet
53 1542 m 257
 53 0 l 257
 251 0 l 257
 251 1542 l 257
 53 1542 l 257
162 202 m 257
 162 0 l 257
 888 0 l 257
 888 202 l 257
 162 202 l 257
EndSplineSet
EndChar

StartChar: Lambda
Encoding: 84 923 84
GlifName: L_ambda
Width: 1024
VWidth: 0
GlyphClass: 2
Flags: W
LayerCount: 2
Fore
SplineSet
917 0 m 257
 657 1548 l 257
 436 1548 l 257
 716 0 l 257
 917 0 l 257
307 0 m 257
 532 1548 l 257
 309 1548 l 257
 106 0 l 257
 307 0 l 257
EndSplineSet
EndChar

StartChar: Lcaron
Encoding: 85 317 85
GlifName: L_caron
Width: 1024
VWidth: 0
GlyphClass: 2
Flags: W
LayerCount: 2
Fore
SplineSet
53 1542 m 257
 53 0 l 257
 251 0 l 257
 251 1542 l 257
 53 1542 l 257
162 202 m 257
 162 0 l 257
 888 0 l 257
 888 202 l 257
 162 202 l 257
447 1496 m 257
 447 1264 l 257
 577 1264 l 257
 577 1496 l 257
 447 1496 l 257
EndSplineSet
EndChar

StartChar: Lslash
Encoding: 89 321 89
GlifName: L_slash
Width: 1024
VWidth: 0
GlyphClass: 2
Flags: W
LayerCount: 2
Fore
SplineSet
171 1542 m 257
 171 0 l 257
 369 0 l 257
 369 1542 l 257
 171 1542 l 257
280 202 m 257
 280 0 l 257
 1006 0 l 257
 1006 202 l 257
 280 202 l 257
16 902 m 257
 96 730 l 257
 530 932 l 257
 450 1104 l 257
 16 902 l 257
EndSplineSet
EndChar

StartChar: M
Encoding: 90 77 90
GlifName: M_
Width: 1024
VWidth: 0
GlyphClass: 2
Flags: W
AnchorPoint: "base" 514 -39 basechar 0
AnchorPoint: "top" 532 1642 basechar 0
LayerCount: 2
Fore
SplineSet
101 1548 m 257
 101 0 l 257
 304 0 l 257
 304 1548 l 257
 101 1548 l 257
722 1548 m 257
 722 0 l 257
 924 0 l 257
 924 1548 l 257
 722 1548 l 257
162 1428 m 257
 428 1031 l 257
 616 1031 l 257
 304 1547 l 257
 162 1428 l 257
723 1548 m 257
 427 1023 l 257
 614 1023 l 257
 889 1499 l 257
 723 1548 l 257
EndSplineSet
EndChar

StartChar: N
Encoding: 92 78 92
GlifName: N_
Width: 1024
VWidth: 0
GlyphClass: 2
Flags: W
AnchorPoint: "top" 488 1642 basechar 0
AnchorPoint: "base" 522 -36 basechar 0
LayerCount: 2
Fore
SplineSet
95 1548 m 257
 95 0 l 257
 300 0 l 257
 300 1548 l 257
 95 1548 l 257
722 1548 m 257
 722 0 l 257
 924 0 l 257
 924 1548 l 257
 722 1548 l 257
96 1548 m 257
 723 0 l 257
 924 0 l 257
 301 1548 l 257
 96 1548 l 257
EndSplineSet
EndChar

StartChar: O
Encoding: 98 79 98
GlifName: O_
Width: 1024
VWidth: 0
GlyphClass: 2
Flags: W
AnchorPoint: "top" 456 1646 basechar 0
AnchorPoint: "base" 564 -114 basechar 0
LayerCount: 2
Fore
SplineSet
110 1537 m 257
 110 0 l 257
 311 0 l 257
 311 1537 l 257
 110 1537 l 257
707 1537 m 257
 707 0 l 257
 910 0 l 257
 910 1537 l 257
 707 1537 l 257
174 1537 m 257
 174 1337 l 257
 817 1337 l 257
 817 1537 l 257
 174 1537 l 257
150 204 m 257
 150 0 l 257
 823 0 l 257
 823 204 l 257
 150 204 l 257
EndSplineSet
Substitution2: "Single Substitution lookup 11 subtable" ordmasculine
EndChar

StartChar: OE
Encoding: 99 338 99
GlifName: O_E_
Width: 1024
VWidth: 0
GlyphClass: 2
Flags: W
AnchorPoint: "top" 606 1636 basechar 0
AnchorPoint: "base" 594 -92 basechar 0
LayerCount: 2
Fore
SplineSet
111 1548 m 257
 111 0 l 257
 312 0 l 257
 312 1548 l 257
 111 1548 l 257
503 1548 m 257
 503 0 l 257
 704 0 l 257
 704 1548 l 257
 503 1548 l 257
148 1548 m 257
 148 1349 l 257
 880 1349 l 257
 880 1548 l 257
 148 1548 l 257
150 200 m 257
 150 0 l 257
 888 0 l 257
 888 200 l 257
 150 200 l 257
606 859 m 257
 606 659 l 257
 850 659 l 257
 850 859 l 257
 606 859 l 257
EndSplineSet
EndChar

StartChar: uni0222
Encoding: 100 546 100
GlifName: O_U_
Width: 1024
VWidth: 0
GlyphClass: 2
Flags: W
LayerCount: 2
Fore
SplineSet
105 1546 m 257
 105 911 l 257
 305 911 l 257
 305 1546 l 257
 105 1546 l 257
717 1533 m 257
 714 915 l 257
 914 915 l 257
 917 1533 l 257
 717 1533 l 257
92 779 m 257
 90 581 l 257
 934 578 l 257
 932 783 l 257
 92 779 l 257
92 779 m 257
 85 24 l 257
 289 24 l 257
 289 779 l 257
 92 779 l 257
733 780 m 257
 739 0 l 257
 941 3 l 257
 932 783 l 257
 733 780 l 257
84 200 m 257
 82 0 l 257
 932 0 l 257
 932 200 l 257
 84 200 l 257
932 783 m 257
 103 1143 l 257
 107 910 l 257
 934 578 l 257
 932 783 l 257
91 581 m 257
 914 915 l 257
 909 1139 l 257
 92 780 l 257
 91 581 l 257
429 1548 m 257
 106 1546 l 257
 105 1348 l 257
 431 1347 l 257
 429 1548 l 257
592 1348 m 257
 919 1346 l 257
 917 1550 l 257
 590 1548 l 257
 592 1348 l 257
EndSplineSet
EndChar

StartChar: Oslash
Encoding: 113 216 113
GlifName: O_slash
Width: 1024
VWidth: 0
GlyphClass: 2
Flags: W
AnchorPoint: "top" 510 1666 basechar 0
AnchorPoint: "base" 498 -122 basechar 0
LayerCount: 2
Fore
SplineSet
788 1667 m 257
 35 -45 l 257
 223 -118 l 257
 976 1594 l 257
 788 1667 l 257
110 1537 m 257
 110 0 l 257
 311 0 l 257
 311 1537 l 257
 110 1537 l 257
707 1537 m 257
 707 0 l 257
 910 0 l 257
 910 1537 l 257
 707 1537 l 257
174 1537 m 257
 174 1337 l 257
 817 1337 l 257
 817 1537 l 257
 174 1537 l 257
150 204 m 257
 150 0 l 257
 823 0 l 257
 823 204 l 257
 150 204 l 257
EndSplineSet
EndChar

StartChar: P
Encoding: 116 80 116
GlifName: P_
Width: 1024
VWidth: 0
GlyphClass: 2
Flags: W
AnchorPoint: "base" 226 -35 basechar 0
AnchorPoint: "top" 448 1642 basechar 0
LayerCount: 2
Fore
SplineSet
112 1548 m 257
 112 9 l 257
 302 9 l 257
 302 1548 l 257
 112 1548 l 257
191 1548 m 257
 191 1346 l 257
 847 1346 l 257
 847 1548 l 257
 191 1548 l 257
667 1548 m 257
 667 881 l 257
 867 881 l 257
 867 1548 l 257
 667 1548 l 257
175 1068 m 257
 175 868 l 257
 862 868 l 257
 862 1068 l 257
 175 1068 l 257
EndSplineSet
EndChar

StartChar: Phi
Encoding: 117 934 117
GlifName: P_hi
Width: 1024
VWidth: 0
GlyphClass: 2
Flags: W
LayerCount: 2
Fore
SplineSet
424 1541 m 257
 424 13 l 257
 623 13 l 257
 623 1541 l 257
 424 1541 l 257
110 1420 m 257
 110 118 l 257
 311 118 l 257
 311 1420 l 257
 110 1420 l 257
707 1420 m 257
 707 118 l 257
 910 118 l 257
 910 1420 l 257
 707 1420 l 257
174 1420 m 257
 174 1220 l 257
 817 1220 l 257
 817 1420 l 257
 174 1420 l 257
150 322 m 257
 150 118 l 257
 823 118 l 257
 823 322 l 257
 150 322 l 257
EndSplineSet
EndChar

StartChar: Pi
Encoding: 118 928 118
GlifName: P_i
Width: 1024
VWidth: 0
GlyphClass: 2
Flags: W
LayerCount: 2
Fore
SplineSet
110 1537 m 257
 110 0 l 257
 311 0 l 257
 311 1537 l 257
 110 1537 l 257
707 1537 m 257
 707 0 l 257
 910 0 l 257
 910 1537 l 257
 707 1537 l 257
174 1537 m 257
 174 1337 l 257
 817 1337 l 257
 817 1537 l 257
 174 1537 l 257
EndSplineSet
EndChar

StartChar: Psi
Encoding: 119 936 119
GlifName: P_si
Width: 1024
VWidth: 0
GlyphClass: 2
Flags: W
LayerCount: 2
Fore
SplineSet
411 1266 m 257
 411 0 l 257
 613 0 l 257
 613 1266 l 257
 411 1266 l 257
160 1548 m 257
 160 806 l 257
 360 806 l 257
 360 1548 l 257
 160 1548 l 257
665 1548 m 257
 665 806 l 257
 864 806 l 257
 864 1548 l 257
 665 1548 l 257
228 970 m 257
 228 806 l 257
 774 806 l 257
 774 970 l 257
 228 970 l 257
EndSplineSet
EndChar

StartChar: Q
Encoding: 120 81 120
GlifName: Q_
Width: 1024
VWidth: 0
GlyphClass: 2
Flags: W
AnchorPoint: "base" 514 -60 basechar 0
AnchorPoint: "top" 448 1642 basechar 0
LayerCount: 2
Fore
SplineSet
110 1537 m 257
 110 5 l 257
 309 5 l 257
 309 1537 l 257
 110 1537 l 257
709 1537 m 257
 709 0 l 257
 910 0 l 257
 910 1537 l 257
 709 1537 l 257
174 1537 m 257
 174 1337 l 257
 817 1337 l 257
 817 1537 l 257
 174 1537 l 257
150 205 m 257
 150 0 l 257
 823 0 l 257
 823 205 l 257
 150 205 l 257
558 21 m 257
 744 -285 l 257
 935 -169 l 257
 749 137 l 257
 558 21 l 257
EndSplineSet
EndChar

StartChar: R
Encoding: 121 82 121
GlifName: R_
Width: 1024
VWidth: 0
GlyphClass: 2
Flags: W
AnchorPoint: "base" 510 -28 basechar 0
AnchorPoint: "top" 480 1642 basechar 0
LayerCount: 2
Fore
SplineSet
112 1537 m 257
 112 0 l 257
 313 0 l 257
 313 1537 l 257
 112 1537 l 257
191 1537 m 257
 191 1335 l 257
 847 1335 l 257
 847 1537 l 257
 191 1537 l 257
674 1537 m 257
 674 872 l 257
 874 872 l 257
 874 1537 l 257
 674 1537 l 257
175 1079 m 257
 175 868 l 257
 862 868 l 257
 862 1079 l 257
 175 1079 l 257
314 874 m 257
 716 0 l 257
 956 0 l 257
 541 872 l 257
 314 874 l 257
EndSplineSet
EndChar

StartChar: S
Encoding: 126 83 126
GlifName: S_
Width: 1024
VWidth: 0
GlyphClass: 2
Flags: W
AnchorPoint: "top" 508 1650 basechar 0
AnchorPoint: "base" 528 -58 basechar 0
LayerCount: 2
Fore
SplineSet
146 1537 m 257
 146 1336 l 257
 744 1336 l 257
 744 1537 l 257
 146 1537 l 257
146 1542 m 257
 146 1028 l 257
 348 1028 l 257
 348 1542 l 257
 146 1542 l 257
174 199 m 257
 174 0 l 257
 882 0 l 257
 882 199 l 257
 174 199 l 257
717 0 m 257
 918 0 l 257
 918 355 l 257
 717 355 l 257
 717 0 l 257
146 1028 m 257
 717 355 l 257
 918 355 l 257
 348 1028 l 257
 146 1028 l 257
EndSplineSet
EndChar

StartChar: Sigma
Encoding: 132 931 132
GlifName: S_igma
Width: 1024
VWidth: 0
GlyphClass: 2
Flags: W
LayerCount: 2
Fore
SplineSet
704 928 m 257
 110 210 l 257
 110 -14 l 257
 704 725 l 257
 704 928 l 257
706 921 m 257
 128 1539 l 257
 129 1338 l 257
 706 722 l 257
 706 921 l 257
850 1337 m 257
 850 1537 l 257
 128 1537 l 257
 128 1337 l 257
 850 1337 l 257
788 0 m 257
 788 206 l 257
 125 206 l 257
 125 0 l 257
 788 0 l 257
EndSplineSet
EndChar

StartChar: T
Encoding: 133 84 133
GlifName: T_
Width: 1024
VWidth: 0
GlyphClass: 2
Flags: W
AnchorPoint: "top" 516 1638 basechar 0
AnchorPoint: "base" 492 -54 basechar 0
LayerCount: 2
Fore
SplineSet
125 1548 m 257
 125 1348 l 257
 899 1348 l 257
 899 1548 l 257
 125 1548 l 257
412 1436 m 257
 412 6 l 257
 612 6 l 257
 612 1436 l 257
 412 1436 l 257
EndSplineSet
EndChar

StartChar: Theta
Encoding: 139 920 139
GlifName: T_heta
Width: 1024
VWidth: 0
GlyphClass: 2
Flags: W
LayerCount: 2
Fore
SplineSet
382 953 m 257
 382 753 l 257
 670 753 l 257
 670 953 l 257
 382 953 l 257
110 1537 m 257
 110 0 l 257
 311 0 l 257
 311 1537 l 257
 110 1537 l 257
707 1537 m 257
 707 0 l 257
 910 0 l 257
 910 1537 l 257
 707 1537 l 257
174 1537 m 257
 174 1337 l 257
 817 1337 l 257
 817 1537 l 257
 174 1537 l 257
150 204 m 257
 150 0 l 257
 823 0 l 257
 823 204 l 257
 150 204 l 257
EndSplineSet
EndChar

StartChar: Thorn
Encoding: 140 222 140
GlifName: T_horn
Width: 1024
VWidth: 0
GlyphClass: 2
Flags: W
AnchorPoint: "base" 221 -42 basechar 0
AnchorPoint: "top" 189 1684 basechar 0
LayerCount: 2
Fore
SplineSet
112 1542 m 257
 112 9 l 257
 302 9 l 257
 302 1542 l 257
 112 1542 l 257
191 1234 m 257
 191 1035 l 257
 847 1035 l 257
 847 1234 l 257
 191 1234 l 257
667 1233 m 257
 667 569 l 257
 867 569 l 257
 867 1233 l 257
 667 1233 l 257
179 684 m 257
 179 484 l 257
 866 484 l 257
 866 684 l 257
 179 684 l 257
EndSplineSet
EndChar

StartChar: U
Encoding: 141 85 141
GlifName: U_
Width: 1024
VWidth: 0
GlyphClass: 2
Flags: W
AnchorPoint: "top" 508 1642 basechar 0
AnchorPoint: "base" 536 -94 basechar 0
LayerCount: 2
Fore
SplineSet
157 1537 m 257
 157 0 l 257
 357 0 l 257
 357 1537 l 257
 157 1537 l 257
668 1537 m 257
 668 0 l 257
 867 0 l 257
 867 1537 l 257
 668 1537 l 257
204 200 m 257
 204 0 l 257
 824 0 l 257
 824 200 l 257
 204 200 l 257
EndSplineSet
EndChar

StartChar: V
Encoding: 156 86 156
GlifName: V_
Width: 1024
VWidth: 0
GlyphClass: 2
Flags: W
AnchorPoint: "top" 496 1642 basechar 0
AnchorPoint: "base" 564 -54 basechar 0
LayerCount: 2
Fore
SplineSet
106 1548 m 257
 366 0 l 257
 587 0 l 257
 307 1548 l 257
 106 1548 l 257
716 1548 m 257
 491 0 l 257
 714 0 l 257
 917 1548 l 257
 716 1548 l 257
EndSplineSet
EndChar

StartChar: W
Encoding: 157 87 157
GlifName: W_
Width: 1024
VWidth: 0
GlyphClass: 2
Flags: W
AnchorPoint: "base" 526 -64 basechar 0
AnchorPoint: "top" 508 1646 basechar 0
LayerCount: 2
Fore
SplineSet
104 1548 m 257
 104 0 l 257
 305 0 l 257
 305 1548 l 257
 104 1548 l 257
721 1548 m 257
 721 12 l 257
 922 12 l 257
 922 1548 l 257
 721 1548 l 257
413 1028 m 257
 413 0 l 257
 614 0 l 257
 614 1028 l 257
 413 1028 l 257
103 201 m 257
 103 0 l 257
 922 0 l 257
 922 201 l 257
 103 201 l 257
EndSplineSet
EndChar

StartChar: X
Encoding: 162 88 162
GlifName: X_
Width: 1024
VWidth: 0
GlyphClass: 2
Flags: W
AnchorPoint: "top" 498 1636 basechar 0
AnchorPoint: "base" 486 -32 basechar 0
LayerCount: 2
Fore
SplineSet
91 1548 m 257
 733 0 l 257
 933 0 l 257
 290 1548 l 257
 91 1548 l 257
94 6 m 257
 295 6 l 257
 925 1548 l 257
 726 1548 l 257
 94 6 l 257
EndSplineSet
EndChar

StartChar: Xi
Encoding: 163 926 163
GlifName: X_i
Width: 1024
VWidth: 0
GlyphClass: 2
Flags: W
LayerCount: 2
Fore
SplineSet
151 948 m 257
 151 736 l 257
 871 736 l 257
 871 948 l 257
 151 948 l 257
97 1548 m 257
 97 1336 l 257
 931 1336 l 257
 931 1548 l 257
 97 1548 l 257
98 212 m 257
 98 0 l 257
 926 0 l 257
 926 212 l 257
 98 212 l 257
EndSplineSet
EndChar

StartChar: Y
Encoding: 164 89 164
GlifName: Y_
Width: 1024
VWidth: 0
GlyphClass: 2
Flags: W
AnchorPoint: "top" 524 1638 basechar 0
AnchorPoint: "base" 508 -70 basechar 0
LayerCount: 2
Fore
SplineSet
411 897 m 257
 411 0 l 257
 613 0 l 257
 613 897 l 257
 411 897 l 257
160 1548 m 257
 160 859 l 257
 360 859 l 257
 360 1548 l 257
 160 1548 l 257
665 1548 m 257
 665 859 l 257
 864 859 l 257
 864 1548 l 257
 665 1548 l 257
228 1023 m 257
 228 859 l 257
 774 859 l 257
 774 1023 l 257
 228 1023 l 257
EndSplineSet
EndChar

StartChar: Z
Encoding: 169 90 169
GlifName: Z_
Width: 1024
VWidth: 0
GlyphClass: 2
Flags: W
AnchorPoint: "top" 496 1646 basechar 0
AnchorPoint: "base" 560 -46 basechar 0
LayerCount: 2
Fore
SplineSet
97 1548 m 257
 97 1336 l 257
 931 1336 l 257
 931 1548 l 257
 97 1548 l 257
98 212 m 257
 98 0 l 257
 926 0 l 257
 926 212 l 257
 98 212 l 257
687 1336 m 257
 98 211 l 257
 305 211 l 257
 931 1336 l 257
 687 1336 l 257
EndSplineSet
EndChar

StartChar: a
Encoding: 174 97 174
GlifName: a
Width: 1024
VWidth: 0
GlyphClass: 2
Flags: W
AnchorPoint: "top" 500 1134 basechar 0
AnchorPoint: "base" 524 -74 basechar 0
LayerCount: 2
Fore
SplineSet
168 1023 m 257
 168 824 l 257
 774 824 l 257
 774 1023 l 257
 168 1023 l 257
661 1023 m 257
 661 0 l 257
 855 0 l 257
 855 1023 l 257
 661 1023 l 257
172 599 m 257
 172 400 l 257
 796 400 l 257
 796 599 l 257
 172 599 l 257
172 575 m 257
 172 0 l 257
 373 0 l 257
 373 575 l 257
 172 575 l 257
172 201 m 257
 172 0 l 257
 856 0 l 257
 856 201 l 257
 172 201 l 257
EndSplineSet
Substitution2: "Single Substitution lookup 10 subtable" ordfeminine
EndChar

StartChar: acute
Encoding: 178 180 178
GlifName: acute
Width: 1024
VWidth: 0
GlyphClass: 2
Flags: W
LayerCount: 2
Fore
SplineSet
532 1422 m 257
 402 1168 l 257
 564 1091 l 257
 696 1346 l 257
 532 1422 l 257
EndSplineSet
EndChar

StartChar: acutecomb
Encoding: 179 769 179
GlifName: acutecomb
Width: 0
VWidth: 0
GlyphClass: 4
Flags: W
AnchorPoint: "top" -9 771 mark 0
LayerCount: 2
Fore
SplineSet
64 1133 m 257
 -85 847 l 257
 58 777 l 257
 208 1064 l 257
 64 1133 l 257
EndSplineSet
EndChar

StartChar: ae
Encoding: 181 230 181
GlifName: ae
Width: 1024
VWidth: 0
GlyphClass: 2
Flags: W
AnchorPoint: "base" 519 -103 basechar 0
AnchorPoint: "top" 534 1156 basechar 0
LayerCount: 2
Fore
SplineSet
48 1023 m 257
 48 824 l 257
 867 824 l 257
 867 1023 l 257
 48 1023 l 257
449 1023 m 257
 449 0 l 257
 643 0 l 257
 643 1023 l 257
 449 1023 l 257
71 599 m 257
 71 400 l 257
 868 400 l 257
 868 599 l 257
 71 599 l 257
71 575 m 257
 71 0 l 257
 272 0 l 257
 272 575 l 257
 71 575 l 257
69 201 m 257
 69 0 l 257
 989 0 l 257
 989 201 l 257
 69 201 l 257
773 1023 m 257
 773 400 l 257
 968 400 l 257
 968 1023 l 257
 773 1023 l 257
EndSplineSet
EndChar

StartChar: afii10018
Encoding: 185 1041 185
GlifName: B_e-cy
Width: 1024
VWidth: 0
GlyphClass: 2
Flags: W
AnchorPoint: "base" 498 -36 basechar 0
AnchorPoint: "top" 220 1646 basechar 0
LayerCount: 2
Fore
SplineSet
47 1537 m 257
 47 0 l 257
 246 0 l 257
 246 1537 l 257
 47 1537 l 257
144 808 m 257
 144 609 l 257
 792 609 l 257
 792 808 l 257
 144 808 l 257
732 808 m 257
 732 0 l 257
 931 0 l 257
 931 808 l 257
 732 808 l 257
172 207 m 257
 172 0 l 257
 852 0 l 257
 852 207 l 257
 172 207 l 257
144 1537 m 257
 144 1338 l 257
 905 1338 l 257
 905 1537 l 257
 144 1537 l 257
EndSplineSet
EndChar

StartChar: afii10021
Encoding: 188 1044 188
GlifName: D_e-cy
Width: 1024
VWidth: 0
GlyphClass: 2
Flags: W
LayerCount: 2
Fore
SplineSet
18 203 m 257
 18 3 l 257
 992 3 l 257
 992 203 l 257
 18 203 l 257
18 159 m 257
 20 -405 l 257
 220 -405 l 257
 218 159 l 257
 18 159 l 257
792 159 m 257
 792 -412 l 257
 992 -412 l 257
 992 159 l 257
 792 159 l 257
704 1436 m 257
 704 132 l 257
 904 132 l 257
 904 1436 l 257
 704 1436 l 257
428 1538 m 257
 428 1338 l 257
 904 1338 l 257
 904 1538 l 257
 428 1538 l 257
408 1539 m 257
 107 185 l 257
 307 185 l 257
 608 1539 l 257
 408 1539 l 257
EndSplineSet
EndChar

StartChar: afii10024
Encoding: 191 1046 191
GlifName: Z_he-cy
Width: 1024
VWidth: 0
GlyphClass: 2
Flags: W
AnchorPoint: "base" 494 -39 basechar 0
AnchorPoint: "top" 214 1642 basechar 0
LayerCount: 2
Fore
SplineSet
407 1537 m 257
 407 5 l 257
 608 5 l 257
 608 1537 l 257
 407 1537 l 257
452 999 m 257
 571 835 l 257
 963 1529 l 257
 696 1529 l 257
 452 999 l 257
582 798 m 257
 445 643 l 257
 735 0 l 257
 1016 0 l 257
 582 798 l 257
524 999 m 257
 314 1529 l 257
 47 1529 l 257
 405 835 l 257
 524 999 l 257
408 800 m 257
 -6 0 l 257
 275 0 l 257
 545 645 l 257
 408 800 l 257
EndSplineSet
EndChar

StartChar: afii10025
Encoding: 192 1047 192
GlifName: Z_e-cy
Width: 1024
VWidth: 0
GlyphClass: 2
Flags: W
LayerCount: 2
Fore
SplineSet
124 1547 m 257
 124 1347 l 257
 950 1347 l 257
 950 1547 l 257
 124 1547 l 257
124 1547 m 257
 124 1211 l 257
 324 1211 l 257
 324 1547 l 257
 124 1547 l 257
751 1535 m 257
 751 868 l 257
 951 868 l 257
 951 1535 l 257
 751 1535 l 257
751 710 m 257
 751 7 l 257
 951 7 l 257
 951 710 l 257
 751 710 l 257
128 200 m 257
 128 0 l 257
 947 0 l 257
 947 200 l 257
 128 200 l 257
124 395 m 257
 124 0 l 257
 324 0 l 257
 324 395 l 257
 124 395 l 257
269 892 m 257
 269 692 l 257
 798 692 l 257
 798 892 l 257
 269 892 l 257
EndSplineSet
EndChar

StartChar: afii10026
Encoding: 193 1048 193
GlifName: I_i-cy
Width: 1024
VWidth: 0
GlyphClass: 2
Flags: W
LayerCount: 2
Fore
SplineSet
34 1552 m 257
 34 0 l 257
 234 0 l 257
 234 1552 l 257
 34 1552 l 257
789 1552 m 257
 789 0 l 257
 989 0 l 257
 989 1552 l 257
 789 1552 l 257
789 1552 m 257
 34 0 l 257
 234 0 l 257
 990 1552 l 257
 789 1552 l 257
EndSplineSet
EndChar

StartChar: afii10029
Encoding: 196 1051 196
GlifName: E_l-cy
Width: 1024
VWidth: 0
GlyphClass: 2
Flags: W
LayerCount: 2
Fore
SplineSet
812 1548 m 257
 812 1 l 257
 1012 1 l 257
 1012 1548 l 257
 812 1548 l 257
406 1548 m 257
 406 1348 l 257
 1000 1348 l 257
 1000 1548 l 257
 406 1548 l 257
396 1548 m 257
 214 0 l 257
 414 0 l 257
 596 1548 l 257
 396 1548 l 257
33 201 m 257
 33 1 l 257
 414 1 l 257
 414 201 l 257
 33 201 l 257
EndSplineSet
EndChar

StartChar: afii10037
Encoding: 204 1059 204
GlifName: U_-cy
Width: 1024
VWidth: 0
GlyphClass: 2
Flags: W
AnchorPoint: "top" 528 1142 basechar 0
AnchorPoint: "base" 556 -464 basechar 0
LayerCount: 2
Fore
SplineSet
680 1427 m 257
 680 -2 l 257
 880 -2 l 257
 880 1427 l 257
 680 1427 l 257
147 193 m 257
 147 -2 l 257
 864 -2 l 257
 864 193 l 257
 147 193 l 257
147 1427 m 257
 147 668 l 257
 347 668 l 257
 347 1427 l 257
 147 1427 l 257
147 868 m 257
 147 668 l 257
 765 668 l 257
 765 868 l 257
 147 868 l 257
EndSplineSet
EndChar

StartChar: afii10040
Encoding: 207 1062 207
GlifName: T_se-cy
Width: 1024
VWidth: 0
GlyphClass: 2
Flags: W
LayerCount: 2
Fore
SplineSet
37 1548 m 257
 37 3 l 257
 237 3 l 257
 237 1548 l 257
 37 1548 l 257
608 1553 m 257
 608 0 l 257
 808 0 l 257
 808 1553 l 257
 608 1553 l 257
46 200 m 257
 46 0 l 257
 808 0 l 257
 808 200 l 257
 46 200 l 257
804 198 m 257
 804 -401 l 257
 1003 -401 l 257
 1003 198 l 257
 804 198 l 257
EndSplineSet
EndChar

StartChar: afii10041
Encoding: 208 1063 208
GlifName: C_he-cy
Width: 1024
VWidth: 0
GlyphClass: 2
Flags: W
LayerCount: 2
Fore
SplineSet
725 1554 m 257
 725 -1 l 257
 925 -1 l 257
 925 1554 l 257
 725 1554 l 257
129 1554 m 257
 129 582 l 257
 329 582 l 257
 329 1554 l 257
 129 1554 l 257
309 782 m 257
 329 581 l 257
 831 698 l 257
 811 899 l 257
 309 782 l 257
EndSplineSet
EndChar

StartChar: afii10042
Encoding: 209 1064 209
GlifName: S_ha-cy
Width: 1024
VWidth: 0
GlyphClass: 2
Flags: W
LayerCount: 2
Fore
SplineSet
134 1548 m 257
 134 0 l 257
 334 0 l 257
 334 1548 l 257
 134 1548 l 257
705 1549 m 257
 705 0 l 257
 905 0 l 257
 905 1549 l 257
 705 1549 l 257
143 200 m 257
 143 0 l 257
 905 0 l 257
 905 200 l 257
 143 200 l 257
419 1547 m 257
 419 8 l 257
 619 8 l 257
 619 1547 l 257
 419 1547 l 257
EndSplineSet
EndChar

StartChar: afii10043
Encoding: 210 1065 210
GlifName: S_hcha-cy
Width: 1024
VWidth: 0
GlyphClass: 2
Flags: W
LayerCount: 2
Fore
SplineSet
37 1548 m 257
 37 0 l 257
 237 0 l 257
 237 1548 l 257
 37 1548 l 257
608 1549 m 257
 608 0 l 257
 808 0 l 257
 808 1549 l 257
 608 1549 l 257
46 200 m 257
 46 0 l 257
 808 0 l 257
 808 200 l 257
 46 200 l 257
804 198 m 257
 804 -401 l 257
 1003 -401 l 257
 1003 198 l 257
 804 198 l 257
322 1547 m 257
 322 8 l 257
 522 8 l 257
 522 1547 l 257
 322 1547 l 257
EndSplineSet
EndChar

StartChar: afii10044
Encoding: 211 1066 211
GlifName: H_ardsign-cy
Width: 1024
VWidth: 0
GlyphClass: 2
Flags: W
AnchorPoint: "base" 498 -36 basechar 0
AnchorPoint: "top" 220 1646 basechar 0
LayerCount: 2
Fore
SplineSet
291 1548 m 257
 291 0 l 257
 490 0 l 257
 490 1548 l 257
 291 1548 l 257
388 808 m 257
 388 609 l 257
 792 609 l 257
 792 808 l 257
 388 808 l 257
732 808 m 257
 732 0 l 257
 931 0 l 257
 931 808 l 257
 732 808 l 257
416 207 m 257
 416 0 l 257
 852 0 l 257
 852 207 l 257
 416 207 l 257
63 1548 m 257
 63 1349 l 257
 301 1349 l 257
 301 1548 l 257
 63 1548 l 257
EndSplineSet
EndChar

StartChar: afii10045
Encoding: 212 1067 212
GlifName: Y_eru-cy
Width: 1024
VWidth: 0
GlyphClass: 2
Flags: W
AnchorPoint: "base" 498 -36 basechar 0
AnchorPoint: "top" 220 1646 basechar 0
LayerCount: 2
Fore
SplineSet
14 1537 m 257
 14 0 l 257
 213 0 l 257
 213 1537 l 257
 14 1537 l 257
111 808 m 257
 111 609 l 257
 532 609 l 257
 532 808 l 257
 111 808 l 257
472 808 m 257
 472 0 l 257
 671 0 l 257
 671 808 l 257
 472 808 l 257
139 207 m 257
 139 0 l 257
 592 0 l 257
 592 207 l 257
 139 207 l 257
787 1536 m 257
 787 -1 l 257
 986 -1 l 257
 986 1536 l 257
 787 1536 l 257
EndSplineSet
EndChar

StartChar: afii10046
Encoding: 213 1068 213
GlifName: S_oftsign-cy
Width: 1024
VWidth: 0
GlyphClass: 2
Flags: W
AnchorPoint: "base" 498 -36 basechar 0
AnchorPoint: "top" 220 1646 basechar 0
LayerCount: 2
Fore
SplineSet
47 1537 m 257
 47 0 l 257
 246 0 l 257
 246 1537 l 257
 47 1537 l 257
144 808 m 257
 144 609 l 257
 792 609 l 257
 792 808 l 257
 144 808 l 257
732 808 m 257
 732 0 l 257
 931 0 l 257
 931 808 l 257
 732 808 l 257
172 207 m 257
 172 0 l 257
 852 0 l 257
 852 207 l 257
 172 207 l 257
EndSplineSet
EndChar

StartChar: afii10047
Encoding: 214 1069 214
GlifName: E_reversed-cy
Width: 1024
VWidth: 0
GlyphClass: 2
Flags: W
LayerCount: 2
Fore
SplineSet
531 1542 m 257
 40 1542 l 257
 40 1342 l 257
 531 1342 l 257
 531 1542 l 257
771 898 m 257
 106 898 l 257
 106 698 l 257
 771 698 l 257
 771 898 l 257
559 201 m 257
 45 201 l 257
 45 1 l 257
 559 1 l 257
 559 201 l 257
531 1541 m 257
 331 1541 l 257
 738 806 l 257
 938 806 l 257
 531 1541 l 257
936 806 m 257
 736 806 l 257
 359 0 l 257
 559 0 l 257
 936 806 l 257
EndSplineSet
EndChar

StartChar: afii10048
Encoding: 215 1070 215
GlifName: Y_u-cy
Width: 1024
VWidth: 0
GlyphClass: 2
Flags: W
AnchorPoint: "top" 456 1646 basechar 0
AnchorPoint: "base" 564 -114 basechar 0
LayerCount: 2
Fore
SplineSet
378 1537 m 257
 378 0 l 257
 579 0 l 257
 579 1537 l 257
 378 1537 l 257
791 1537 m 257
 791 0 l 257
 994 0 l 257
 994 1537 l 257
 791 1537 l 257
442 1537 m 257
 442 1337 l 257
 901 1337 l 257
 901 1537 l 257
 442 1537 l 257
418 204 m 257
 418 0 l 257
 907 0 l 257
 907 204 l 257
 418 204 l 257
47 1540 m 257
 47 3 l 257
 248 3 l 257
 248 1540 l 257
 47 1540 l 257
111 948 m 257
 111 748 l 257
 450 746 l 257
 450 946 l 257
 111 948 l 257
EndSplineSet
EndChar

StartChar: afii10049
Encoding: 216 1071 216
GlifName: Y_a-cy
Width: 1024
VWidth: 0
GlyphClass: 2
Flags: W
AnchorPoint: "base" 510 -28 basechar 0
AnchorPoint: "top" 480 1642 basechar 0
LayerCount: 2
Fore
SplineSet
956 1537 m 257
 956 0 l 257
 755 0 l 257
 755 1537 l 257
 956 1537 l 257
877 1537 m 257
 877 1335 l 257
 221 1335 l 257
 221 1537 l 257
 877 1537 l 257
394 1537 m 257
 394 872 l 257
 194 872 l 257
 194 1537 l 257
 394 1537 l 257
893 1079 m 257
 893 868 l 257
 206 868 l 257
 206 1079 l 257
 893 1079 l 257
754 874 m 257
 352 0 l 257
 112 0 l 257
 527 872 l 257
 754 874 l 257
EndSplineSet
EndChar

StartChar: afii10050
Encoding: 217 1168 217
GlifName: G_eupturn-cy
Width: 1024
VWidth: 0
GlyphClass: 2
Flags: W
LayerCount: 2
Fore
SplineSet
125 1548 m 257
 125 1348 l 257
 899 1348 l 257
 899 1548 l 257
 125 1548 l 257
129 1436 m 257
 129 6 l 257
 329 6 l 257
 329 1436 l 257
 129 1436 l 257
750 1755.15 m 257
 750 1349 l 257
 952 1349 l 257
 952 1755.15 l 257
 750 1755.15 l 257
EndSplineSet
EndChar

StartChar: afii10051
Encoding: 218 1026 218
GlifName: D_je-cy
Width: 1024
VWidth: 0
GlyphClass: 2
Flags: W
LayerCount: 2
Fore
SplineSet
48 1548 m 257
 48 1348 l 257
 836 1348 l 257
 836 1548 l 257
 48 1548 l 257
233 1544 m 257
 233 -1 l 257
 433 -1 l 257
 433 1544 l 257
 233 1544 l 257
316 994 m 257
 316 794 l 257
 929 794 l 257
 929 994 l 257
 316 994 l 257
729 989 m 257
 729 37 l 257
 929 37 l 257
 929 989 l 257
 729 989 l 257
606 200 m 257
 606 0 l 257
 929 0 l 257
 929 200 l 257
 606 200 l 257
EndSplineSet
EndChar

StartChar: afii10053
Encoding: 220 1028 220
GlifName: E_-cy
Width: 1024
VWidth: 0
GlyphClass: 2
Flags: W
LayerCount: 2
Fore
SplineSet
447 1542 m 257
 447 1342 l 257
 938 1342 l 257
 938 1542 l 257
 447 1542 l 257
207 898 m 257
 207 698 l 257
 872 698 l 257
 872 898 l 257
 207 898 l 257
419 201 m 257
 419 1 l 257
 933 1 l 257
 933 201 l 257
 419 201 l 257
447 1541 m 257
 40 806 l 257
 240 806 l 257
 647 1541 l 257
 447 1541 l 257
42 806 m 257
 419 0 l 257
 619 0 l 257
 242 806 l 257
 42 806 l 257
EndSplineSet
EndChar

StartChar: afii10058
Encoding: 225 1033 225
GlifName: L_je-cy
Width: 1024
VWidth: 0
GlyphClass: 2
Flags: W
LayerCount: 2
Fore
SplineSet
541 1548 m 257
 541 1 l 257
 741 1 l 257
 741 1548 l 257
 541 1548 l 257
291 1548 m 257
 291 1348 l 257
 729 1348 l 257
 729 1548 l 257
 291 1548 l 257
281 1548 m 257
 99 0 l 257
 299 0 l 257
 481 1548 l 257
 281 1548 l 257
33 201 m 257
 33 1 l 257
 299 1 l 257
 299 201 l 257
 33 201 l 257
741 200 m 257
 741 0 l 257
 1007 0 l 257
 1007 200 l 257
 741 200 l 257
740 780 m 257
 740 580 l 257
 1006 580 l 257
 1006 780 l 257
 740 780 l 257
806 167 m 257
 1006 167 l 257
 1006 616 l 257
 806 616 l 257
 806 167 l 257
EndSplineSet
EndChar

StartChar: afii10059
Encoding: 226 1034 226
GlifName: N_je-cy
Width: 1024
VWidth: 0
GlyphClass: 2
Flags: W
LayerCount: 2
Fore
SplineSet
34 1545 m 257
 34 0 l 257
 234 0 l 257
 234 1545 l 257
 34 1545 l 257
444 1545 m 257
 444 0 l 257
 644 0 l 257
 644 1545 l 257
 444 1545 l 257
55 923 m 257
 55 723 l 257
 900 723 l 257
 900 923 l 257
 55 923 l 257
790 924 m 257
 790 1 l 257
 990 0 l 257
 990 923 l 257
 790 924 l 257
495 200 m 257
 495 0 l 257
 990 0 l 257
 990 200 l 257
 495 200 l 257
EndSplineSet
EndChar

StartChar: afii10060
Encoding: 227 1035 227
GlifName: T_she-cy
Width: 1024
VWidth: 0
GlyphClass: 2
Flags: W
LayerCount: 2
Fore
SplineSet
48 1548 m 257
 48 1348 l 257
 836 1348 l 257
 836 1548 l 257
 48 1548 l 257
233 1544 m 257
 233 -1 l 257
 433 -1 l 257
 433 1544 l 257
 233 1544 l 257
316 994 m 257
 316 794 l 257
 929 794 l 257
 929 994 l 257
 316 994 l 257
729 989 m 257
 729 0 l 257
 929 0 l 257
 929 989 l 257
 729 989 l 257
EndSplineSet
EndChar

StartChar: afii10066
Encoding: 231 1073 231
GlifName: be-cy
Width: 1024
VWidth: 0
GlyphClass: 2
Flags: W
AnchorPoint: "base" 498 -36 basechar 0
AnchorPoint: "top" 220 1646 basechar 0
LayerCount: 2
Fore
SplineSet
135 1261 m 257
 135 0 l 257
 334 0 l 257
 334 1261 l 257
 135 1261 l 257
232 1033 m 257
 232 834 l 257
 750 834 l 257
 750 1033 l 257
 232 1033 l 257
690 1033 m 257
 690 0 l 257
 889 0 l 257
 889 1033 l 257
 690 1033 l 257
260 207 m 257
 260 0 l 257
 810 0 l 257
 810 207 l 257
 260 207 l 257
134 1327 m 257
 134 1128 l 257
 922 1418 l 257
 922 1617 l 257
 134 1327 l 257
EndSplineSet
EndChar

StartChar: afii10067
Encoding: 232 1074 232
GlifName: ve-cy
Width: 1024
VWidth: 0
GlyphClass: 2
Flags: W
AnchorPoint: "top" 262 1657 basechar 0
AnchorPoint: "base" 250 -67 basechar 0
LayerCount: 2
Fore
SplineSet
110 0 m 257
 318 0 l 257
 318 1055 l 257
 110 1055 l 257
 110 0 l 257
433 849 m 257
 947 699 l 257
 947 925 l 257
 433 1055 l 257
 433 849 l 257
433 526 m 257
 948 701 l 257
 948 925 l 257
 433 729 l 257
 433 526 l 257
375 201 m 257
 375 0 l 257
 929 160 l 257
 929 384 l 257
 375 201 l 257
442 309 m 257
 929 160 l 257
 929 382 l 257
 442 508 l 257
 442 309 l 257
271 729 m 257
 271 526 l 257
 433 526 l 257
 433 729 l 257
 271 729 l 257
270 508 m 257
 270 309 l 257
 442 309 l 257
 442 508 l 257
 270 508 l 257
208 200 m 257
 208 0 l 257
 375 0 l 257
 375 200 l 257
 208 200 l 257
270 1055 m 257
 270 849 l 257
 433 849 l 257
 433 1055 l 257
 270 1055 l 257
EndSplineSet
EndChar

StartChar: afii10068
Encoding: 233 1075 233
GlifName: ge-cy
Width: 1024
VWidth: 0
GlyphClass: 2
Flags: W
LayerCount: 2
Fore
SplineSet
125 1019 m 257
 125 819 l 257
 899 819 l 257
 899 1019 l 257
 125 1019 l 257
129 907 m 257
 129 6 l 257
 329 6 l 257
 329 907 l 257
 129 907 l 257
EndSplineSet
EndChar

StartChar: afii10069
Encoding: 234 1076 234
GlifName: de-cy
Width: 1024
VWidth: 0
GlyphClass: 2
Flags: W
LayerCount: 2
Fore
SplineSet
18 203 m 257
 18 3 l 257
 992 3 l 257
 992 203 l 257
 18 203 l 257
18 159 m 257
 20 -405 l 257
 220 -405 l 257
 218 159 l 257
 18 159 l 257
792 159 m 257
 792 -412 l 257
 992 -412 l 257
 992 159 l 257
 792 159 l 257
704 916 m 257
 704 132 l 257
 904 132 l 257
 904 916 l 257
 704 916 l 257
428 1018 m 257
 428 818 l 257
 904 818 l 257
 904 1018 l 257
 428 1018 l 257
408 1019 m 257
 107 185 l 257
 307 185 l 257
 608 1019 l 257
 408 1019 l 257
EndSplineSet
EndChar

StartChar: afii10072
Encoding: 237 1078 237
GlifName: zhe-cy
Width: 1024
VWidth: 0
GlyphClass: 2
Flags: W
AnchorPoint: "base" 494 -39 basechar 0
AnchorPoint: "top" 214 1642 basechar 0
LayerCount: 2
Fore
SplineSet
407 1022 m 257
 407 5 l 257
 608 5 l 257
 608 1022 l 257
 407 1022 l 257
452 613 m 257
 571 449 l 257
 963 1014 l 257
 696 1014 l 257
 452 613 l 257
582 548 m 257
 445 393 l 257
 735 0 l 257
 1016 0 l 257
 582 548 l 257
524 613 m 257
 314 1014 l 257
 47 1014 l 257
 405 449 l 257
 524 613 l 257
394 474 m 257
 -6 0 l 257
 275 0 l 257
 531 319 l 257
 394 474 l 257
EndSplineSet
EndChar

StartChar: afii10073
Encoding: 238 1079 238
GlifName: ze-cy
Width: 1024
VWidth: 0
GlyphClass: 2
Flags: W
LayerCount: 2
Fore
SplineSet
124 1018 m 257
 124 818 l 257
 950 818 l 257
 950 1018 l 257
 124 1018 l 257
124 1018 m 257
 124 752 l 257
 324 752 l 257
 324 1018 l 257
 124 1018 l 257
751 1006 m 257
 751 570 l 257
 951 570 l 257
 951 1006 l 257
 751 1006 l 257
751 412 m 257
 751 7 l 257
 951 7 l 257
 951 412 l 257
 751 412 l 257
128 200 m 257
 128 0 l 257
 947 0 l 257
 947 200 l 257
 128 200 l 257
124 288 m 257
 124 0 l 257
 324 0 l 257
 324 288 l 257
 124 288 l 257
269 594 m 257
 269 394 l 257
 798 394 l 257
 798 594 l 257
 269 594 l 257
EndSplineSet
EndChar

StartChar: afii10074
Encoding: 239 1080 239
GlifName: ii-cy
Width: 1024
VWidth: 0
GlyphClass: 2
Flags: W
AnchorPoint: "top" 490 1197 basechar 0
LayerCount: 2
Fore
SplineSet
34 1019 m 257
 34 0 l 257
 234 0 l 257
 234 1019 l 257
 34 1019 l 257
789 1019 m 257
 789 0 l 257
 989 0 l 257
 989 1019 l 257
 789 1019 l 257
789 1019 m 257
 34 0 l 257
 234 0 l 257
 990 1019 l 257
 789 1019 l 257
EndSplineSet
EndChar

StartChar: afii10077
Encoding: 242 1083 242
GlifName: el-cy
Width: 1024
VWidth: 0
GlyphClass: 2
Flags: W
LayerCount: 2
Fore
SplineSet
812 1021 m 257
 812 1 l 257
 1012 1 l 257
 1012 1021 l 257
 812 1021 l 257
406 1021 m 257
 406 821 l 257
 1000 821 l 257
 1000 1021 l 257
 406 1021 l 257
396 1021 m 257
 214 0 l 257
 414 0 l 257
 596 1021 l 257
 396 1021 l 257
33 201 m 257
 33 1 l 257
 414 1 l 257
 414 201 l 257
 33 201 l 257
EndSplineSet
EndChar

StartChar: afii10078
Encoding: 243 1084 243
GlifName: em-cy
Width: 1024
VWidth: 0
GlyphClass: 2
Flags: W
AnchorPoint: "base" 514 -39 basechar 0
AnchorPoint: "top" 532 1642 basechar 0
LayerCount: 2
Fore
SplineSet
101 1019 m 257
 101 0 l 257
 304 0 l 257
 304 1019 l 257
 101 1019 l 257
722 1019 m 257
 722 0 l 257
 924 0 l 257
 924 1019 l 257
 722 1019 l 257
162 900 m 257
 428 306 l 257
 616 306 l 257
 304 1019 l 257
 162 900 l 257
723 1018 m 257
 427 298 l 257
 614 298 l 257
 889 958 l 257
 723 1018 l 257
EndSplineSet
EndChar

StartChar: afii10079
Encoding: 244 1085 244
GlifName: en-cy
Width: 1024
VWidth: 0
GlyphClass: 2
Flags: W
AnchorPoint: "top" 506 1625 basechar 0
AnchorPoint: "base" 496 -34 basechar 0
LayerCount: 2
Fore
SplineSet
114 1019 m 257
 114 0 l 257
 314 0 l 257
 314 1019 l 257
 114 1019 l 257
700 1019 m 257
 700 0 l 257
 910 0 l 257
 910 1019 l 257
 700 1019 l 257
234 646 m 257
 234 441 l 257
 780 441 l 257
 780 646 l 257
 234 646 l 257
EndSplineSet
EndChar

StartChar: afii10081
Encoding: 246 1087 246
GlifName: uni043F_
Width: 1024
VWidth: 0
GlyphClass: 2
Flags: W
LayerCount: 2
Fore
SplineSet
110 1018 m 257
 110 0 l 257
 311 0 l 257
 311 1018 l 257
 110 1018 l 257
707 1018 m 257
 707 0 l 257
 910 0 l 257
 910 1018 l 257
 707 1018 l 257
174 1018 m 257
 174 818 l 257
 817 818 l 257
 817 1018 l 257
 174 1018 l 257
EndSplineSet
EndChar

StartChar: afii10084
Encoding: 249 1090 249
GlifName: te-cy
Width: 1024
VWidth: 0
GlyphClass: 2
Flags: W
AnchorPoint: "top" 516 1638 basechar 0
AnchorPoint: "base" 492 -54 basechar 0
LayerCount: 2
Fore
SplineSet
125 1021 m 257
 125 821 l 257
 899 821 l 257
 899 1021 l 257
 125 1021 l 257
412 909 m 257
 412 6 l 257
 612 6 l 257
 612 909 l 257
 412 909 l 257
EndSplineSet
EndChar

StartChar: afii10086
Encoding: 251 1092 251
GlifName: ef-cy
Width: 1024
VWidth: 0
GlyphClass: 2
Flags: W
LayerCount: 2
Fore
SplineSet
424 1541 m 257
 424 -430 l 257
 623 -430 l 257
 623 1541 l 257
 424 1541 l 257
110 1015 m 257
 110 0 l 257
 311 0 l 257
 311 1015 l 257
 110 1015 l 257
707 1015 m 257
 707 0 l 257
 910 0 l 257
 910 1015 l 257
 707 1015 l 257
174 1015 m 257
 174 815 l 257
 817 815 l 257
 817 1015 l 257
 174 1015 l 257
150 204 m 257
 150 0 l 257
 823 0 l 257
 823 204 l 257
 150 204 l 257
EndSplineSet
EndChar

StartChar: afii10088
Encoding: 253 1094 253
GlifName: tse-cy
Width: 1024
VWidth: 0
GlyphClass: 2
Flags: W
LayerCount: 2
Fore
SplineSet
37 1024 m 257
 37 3 l 257
 237 3 l 257
 237 1024 l 257
 37 1024 l 257
608 1029 m 257
 608 0 l 257
 808 0 l 257
 808 1029 l 257
 608 1029 l 257
46 200 m 257
 46 0 l 257
 808 0 l 257
 808 200 l 257
 46 200 l 257
804 198 m 257
 804 -401 l 257
 1003 -401 l 257
 1003 198 l 257
 804 198 l 257
EndSplineSet
EndChar

StartChar: afii10089
Encoding: 254 1095 254
GlifName: che-cy
Width: 1024
VWidth: 0
GlyphClass: 2
Flags: W
LayerCount: 2
Fore
SplineSet
725 1024 m 257
 725 -1 l 257
 925 -1 l 257
 925 1024 l 257
 725 1024 l 257
129 1024 m 257
 129 286 l 257
 329 286 l 257
 329 1024 l 257
 129 1024 l 257
309 486 m 257
 329 285 l 257
 831 402 l 257
 811 603 l 257
 309 486 l 257
EndSplineSet
EndChar

StartChar: afii10090
Encoding: 255 1096 255
GlifName: sha-cy
Width: 1024
VWidth: 0
GlyphClass: 2
Flags: W
LayerCount: 2
Fore
SplineSet
134 1024 m 257
 134 0 l 257
 334 0 l 257
 334 1024 l 257
 134 1024 l 257
705 1025 m 257
 705 0 l 257
 905 0 l 257
 905 1025 l 257
 705 1025 l 257
143 200 m 257
 143 0 l 257
 905 0 l 257
 905 200 l 257
 143 200 l 257
419 1023 m 257
 419 8 l 257
 619 8 l 257
 619 1023 l 257
 419 1023 l 257
EndSplineSet
EndChar

StartChar: afii10091
Encoding: 256 1097 256
GlifName: shcha-cy
Width: 1024
VWidth: 0
GlyphClass: 2
Flags: W
LayerCount: 2
Fore
SplineSet
37 1024 m 257
 37 0 l 257
 237 0 l 257
 237 1024 l 257
 37 1024 l 257
608 1025 m 257
 608 0 l 257
 808 0 l 257
 808 1025 l 257
 608 1025 l 257
46 200 m 257
 46 0 l 257
 808 0 l 257
 808 200 l 257
 46 200 l 257
804 198 m 257
 804 -401 l 257
 1003 -401 l 257
 1003 198 l 257
 804 198 l 257
322 1023 m 257
 322 8 l 257
 522 8 l 257
 522 1023 l 257
 322 1023 l 257
EndSplineSet
EndChar

StartChar: afii10092
Encoding: 257 1098 257
GlifName: hardsign-cy
Width: 1024
VWidth: 0
GlyphClass: 2
Flags: W
AnchorPoint: "base" 498 -36 basechar 0
AnchorPoint: "top" 418 1130 basechar 0
LayerCount: 2
Fore
SplineSet
323 1024 m 257
 323 0 l 257
 522 0 l 257
 522 1024 l 257
 323 1024 l 257
484 584 m 257
 484 385 l 257
 824 385 l 257
 824 584 l 257
 484 584 l 257
764 584 m 257
 764 0 l 257
 963 0 l 257
 963 584 l 257
 764 584 l 257
448 207 m 257
 448 0 l 257
 884 0 l 257
 884 207 l 257
 448 207 l 257
95 1024 m 257
 95 825 l 257
 333 825 l 257
 333 1024 l 257
 95 1024 l 257
EndSplineSet
EndChar

StartChar: afii10093
Encoding: 258 1099 258
GlifName: yeru-cy
Width: 1024
VWidth: 0
GlyphClass: 2
Flags: W
AnchorPoint: "base" 498 -36 basechar 0
AnchorPoint: "top" 220 1646 basechar 0
LayerCount: 2
Fore
SplineSet
14 1017 m 257
 14 0 l 257
 213 0 l 257
 213 1017 l 257
 14 1017 l 257
111 641 m 257
 111 442 l 257
 532 442 l 257
 532 641 l 257
 111 641 l 257
472 641 m 257
 472 0 l 257
 671 0 l 257
 671 641 l 257
 472 641 l 257
139 207 m 257
 139 0 l 257
 592 0 l 257
 592 207 l 257
 139 207 l 257
787 1021 m 257
 787 -1 l 257
 986 -1 l 257
 986 1021 l 257
 787 1021 l 257
EndSplineSet
EndChar

StartChar: afii10094
Encoding: 259 1100 259
GlifName: softsign-cy
Width: 1024
VWidth: 0
GlyphClass: 2
Flags: W
AnchorPoint: "base" 498 -36 basechar 0
AnchorPoint: "top" 220 1646 basechar 0
LayerCount: 2
Fore
SplineSet
47 1017 m 257
 47 0 l 257
 246 0 l 257
 246 1017 l 257
 47 1017 l 257
144 641 m 257
 144 442 l 257
 792 442 l 257
 792 641 l 257
 144 641 l 257
732 641 m 257
 732 0 l 257
 931 0 l 257
 931 641 l 257
 732 641 l 257
172 207 m 257
 172 0 l 257
 852 0 l 257
 852 207 l 257
 172 207 l 257
EndSplineSet
EndChar

StartChar: afii10095
Encoding: 260 1101 260
GlifName: ereversed-cy
Width: 1024
VWidth: 0
GlyphClass: 2
Flags: W
AnchorPoint: "top" 290 1180 basechar 0
LayerCount: 2
Fore
SplineSet
531 1024 m 257
 40 1024 l 257
 40 824 l 257
 531 824 l 257
 531 1024 l 257
771 632 m 257
 106 632 l 257
 106 432 l 257
 771 432 l 257
 771 632 l 257
559 201 m 257
 45 201 l 257
 45 1 l 257
 559 1 l 257
 559 201 l 257
531 1023 m 257
 331 1023 l 257
 738 540 l 257
 938 540 l 257
 531 1023 l 257
936 540 m 257
 736 540 l 257
 359 0 l 257
 559 0 l 257
 936 540 l 257
EndSplineSet
EndChar

StartChar: afii10096
Encoding: 261 1102 261
GlifName: yu-cy
Width: 1024
VWidth: 0
GlyphClass: 2
Flags: W
AnchorPoint: "top" 513 1139 basechar 0
AnchorPoint: "base" 564 -114 basechar 0
LayerCount: 2
Fore
SplineSet
378 1013 m 257
 378 0 l 257
 579 0 l 257
 579 1013 l 257
 378 1013 l 257
791 1013 m 257
 791 0 l 257
 994 0 l 257
 994 1013 l 257
 791 1013 l 257
442 1013 m 257
 442 813 l 257
 901 813 l 257
 901 1013 l 257
 442 1013 l 257
418 204 m 257
 418 0 l 257
 907 0 l 257
 907 204 l 257
 418 204 l 257
47 1016 m 257
 47 3 l 257
 248 3 l 257
 248 1016 l 257
 47 1016 l 257
111 641 m 257
 111 441 l 257
 450 439 l 257
 450 639 l 257
 111 641 l 257
EndSplineSet
EndChar

StartChar: afii10097
Encoding: 262 1103 262
GlifName: ya-cy
Width: 1024
VWidth: 0
GlyphClass: 2
Flags: W
AnchorPoint: "base" 510 -28 basechar 0
AnchorPoint: "top" 580 1171 basechar 0
LayerCount: 2
Fore
SplineSet
956 1013 m 257
 956 0 l 257
 755 0 l 257
 755 1013 l 257
 956 1013 l 257
877 1013 m 257
 877 811 l 257
 221 811 l 257
 221 1013 l 257
 877 1013 l 257
394 1013 m 257
 394 394 l 257
 194 394 l 257
 194 1013 l 257
 394 1013 l 257
893 601 m 257
 893 390 l 257
 206 390 l 257
 206 601 l 257
 893 601 l 257
754 396 m 257
 352 0 l 257
 112 0 l 257
 527 394 l 257
 754 396 l 257
EndSplineSet
EndChar

StartChar: afii10098
Encoding: 263 1169 263
GlifName: geupturn-cy
Width: 1024
VWidth: 0
GlyphClass: 2
Flags: W
LayerCount: 2
Fore
SplineSet
125 1023 m 257
 125 823 l 257
 899 823 l 257
 899 1023 l 257
 125 1023 l 257
129 911 m 257
 129 6 l 257
 329 6 l 257
 329 911 l 257
 129 911 l 257
750 1230 m 257
 750 824 l 257
 952 824 l 257
 952 1230 l 257
 750 1230 l 257
EndSplineSet
EndChar

StartChar: afii10099
Encoding: 264 1106 264
GlifName: dje-cy
Width: 1024
VWidth: 0
GlyphClass: 2
Flags: W
LayerCount: 2
Fore
SplineSet
48 1369 m 257
 48 1169 l 257
 836 1169 l 257
 836 1369 l 257
 48 1369 l 257
233 1544 m 257
 233 -1 l 257
 433 -1 l 257
 433 1544 l 257
 233 1544 l 257
316 994 m 257
 316 794 l 257
 929 794 l 257
 929 994 l 257
 316 994 l 257
729 989 m 257
 729 -406 l 257
 929 -406 l 257
 929 989 l 257
 729 989 l 257
606 -243 m 257
 606 -443 l 257
 929 -443 l 257
 929 -243 l 257
 606 -243 l 257
EndSplineSet
EndChar

StartChar: afii10101
Encoding: 266 1108 266
GlifName: e-cy
Width: 1024
VWidth: 0
GlyphClass: 2
Flags: W
AnchorPoint: "top" 634 1173 basechar 0
LayerCount: 2
Fore
SplineSet
447 1018 m 257
 447 818 l 257
 938 818 l 257
 938 1018 l 257
 447 1018 l 257
207 598 m 257
 207 398 l 257
 872 398 l 257
 872 598 l 257
 207 598 l 257
419 201 m 257
 419 1 l 257
 933 1 l 257
 933 201 l 257
 419 201 l 257
447 1017 m 257
 40 506 l 257
 240 506 l 257
 647 1017 l 257
 447 1017 l 257
42 506 m 257
 419 0 l 257
 619 0 l 257
 242 506 l 257
 42 506 l 257
EndSplineSet
EndChar

StartChar: afii10106
Encoding: 271 1113 271
GlifName: lje-cy
Width: 1024
VWidth: 0
GlyphClass: 2
Flags: W
LayerCount: 2
Fore
SplineSet
541 1024 m 257
 541 1 l 257
 741 1 l 257
 741 1024 l 257
 541 1024 l 257
291 1024 m 257
 291 824 l 257
 729 824 l 257
 729 1024 l 257
 291 1024 l 257
281 1024 m 257
 99 0 l 257
 299 0 l 257
 481 1024 l 257
 281 1024 l 257
33 201 m 257
 33 1 l 257
 299 1 l 257
 299 201 l 257
 33 201 l 257
741 200 m 257
 741 0 l 257
 1007 0 l 257
 1007 200 l 257
 741 200 l 257
724 636 m 257
 724 436 l 257
 1010 436 l 257
 1010 636 l 257
 724 636 l 257
806 167 m 257
 1006 167 l 257
 1010 472 l 257
 810 472 l 257
 806 167 l 257
EndSplineSet
EndChar

StartChar: afii10107
Encoding: 272 1114 272
GlifName: nje-cy
Width: 1024
VWidth: 0
GlyphClass: 2
Flags: W
LayerCount: 2
Fore
SplineSet
34 1021 m 257
 34 0 l 257
 234 0 l 257
 234 1021 l 257
 34 1021 l 257
444 1021 m 257
 444 0 l 257
 644 0 l 257
 644 1021 l 257
 444 1021 l 257
55 661 m 257
 55 461 l 257
 900 461 l 257
 900 661 l 257
 55 661 l 257
790 662 m 257
 790 1 l 257
 990 0 l 257
 990 661 l 257
 790 662 l 257
495 200 m 257
 495 0 l 257
 990 0 l 257
 990 200 l 257
 495 200 l 257
EndSplineSet
EndChar

StartChar: afii10108
Encoding: 273 1115 273
GlifName: tshe-cy
Width: 1024
VWidth: 0
GlyphClass: 2
Flags: W
LayerCount: 2
Fore
SplineSet
48 1365 m 257
 48 1165 l 257
 836 1165 l 257
 836 1365 l 257
 48 1365 l 257
233 1544 m 257
 233 -1 l 257
 433 -1 l 257
 433 1544 l 257
 233 1544 l 257
316 994 m 257
 316 794 l 257
 929 794 l 257
 929 994 l 257
 316 994 l 257
729 989 m 257
 729 0 l 257
 929 0 l 257
 929 989 l 257
 729 989 l 257
EndSplineSet
EndChar

StartChar: afii10145
Encoding: 276 1039 276
GlifName: D_zhe-cy
Width: 1024
VWidth: 0
GlyphClass: 2
Flags: W
LayerCount: 2
Fore
SplineSet
62 1466 m 257
 62 18 l 257
 262 18 l 257
 262 1466 l 257
 62 1466 l 257
762 1470 m 257
 762 3 l 257
 962 3 l 257
 962 1470 l 257
 762 1470 l 257
62 200 m 257
 62 0 l 257
 962 0 l 257
 962 200 l 257
 62 200 l 257
412 79 m 257
 412 -405 l 257
 612 -405 l 257
 612 79 l 257
 412 79 l 257
EndSplineSet
EndChar

StartChar: afii10146
Encoding: 277 1122 277
GlifName: Y_at-cy
Width: 1024
VWidth: 0
GlyphClass: 2
Flags: W
AnchorPoint: "base" 498 -36 basechar 0
AnchorPoint: "top" 220 1646 basechar 0
LayerCount: 2
Fore
SplineSet
291 1548 m 257
 291 0 l 257
 490 0 l 257
 490 1548 l 257
 291 1548 l 257
388 808 m 257
 388 609 l 257
 792 609 l 257
 792 808 l 257
 388 808 l 257
732 808 m 257
 732 0 l 257
 931 0 l 257
 931 808 l 257
 732 808 l 257
416 207 m 257
 416 0 l 257
 852 0 l 257
 852 207 l 257
 416 207 l 257
33 1284 m 257
 33 1085 l 257
 846 1085 l 257
 846 1284 l 257
 33 1284 l 257
EndSplineSet
EndChar

StartChar: afii10148
Encoding: 279 1140 279
GlifName: I_zhitsa-cy
Width: 1024
VWidth: 0
GlyphClass: 2
Flags: W
AnchorPoint: "top" 496 1642 basechar 0
AnchorPoint: "base" 564 -54 basechar 0
LayerCount: 2
Fore
SplineSet
106 1548 m 257
 366 0 l 257
 587 0 l 257
 307 1548 l 257
 106 1548 l 257
716 1548 m 257
 491 0 l 257
 714 0 l 257
 917 1548 l 257
 716 1548 l 257
822 1371 m 257
 997 1383 l 257
 1005 1542 l 257
 917 1547 l 257
 822 1371 l 257
EndSplineSet
EndChar

StartChar: afii10193
Encoding: 280 1119 280
GlifName: dzhe-cy
Width: 1024
VWidth: 0
GlyphClass: 2
Flags: W
LayerCount: 2
Fore
SplineSet
62 1019 m 257
 62 18 l 257
 262 18 l 257
 262 1019 l 257
 62 1019 l 257
762 1023 m 257
 762 3 l 257
 962 3 l 257
 962 1023 l 257
 762 1023 l 257
62 200 m 257
 62 0 l 257
 962 0 l 257
 962 200 l 257
 62 200 l 257
412 79 m 257
 412 -405 l 257
 612 -405 l 257
 612 79 l 257
 412 79 l 257
EndSplineSet
EndChar

StartChar: afii10194
Encoding: 281 1123 281
GlifName: yat-cy
Width: 1024
VWidth: 0
GlyphClass: 2
Flags: W
AnchorPoint: "base" 498 -36 basechar 0
AnchorPoint: "top" 220 1646 basechar 0
LayerCount: 2
Fore
SplineSet
291 1298 m 257
 291 0 l 257
 490 0 l 257
 490 1298 l 257
 291 1298 l 257
388 558 m 257
 388 359 l 257
 792 359 l 257
 792 558 l 257
 388 558 l 257
732 558 m 257
 732 0 l 257
 931 0 l 257
 931 558 l 257
 732 558 l 257
416 207 m 257
 416 0 l 257
 852 0 l 257
 852 207 l 257
 416 207 l 257
33 1034 m 257
 33 835 l 257
 846 835 l 257
 846 1034 l 257
 33 1034 l 257
EndSplineSet
EndChar

StartChar: afii10196
Encoding: 283 1141 283
GlifName: izhitsa-cy
Width: 1024
VWidth: 0
GlyphClass: 2
Flags: W
AnchorPoint: "top" 496 1642 basechar 0
AnchorPoint: "base" 564 -54 basechar 0
LayerCount: 2
Fore
SplineSet
106 1024 m 257
 366 0 l 257
 587 0 l 257
 307 1024 l 257
 106 1024 l 257
716 1024 m 257
 491 0 l 257
 714 0 l 257
 917 1024 l 257
 716 1024 l 257
822 847 m 257
 997 859 l 257
 1005 1018 l 257
 917 1023 l 257
 822 847 l 257
EndSplineSet
EndChar

StartChar: afii57636
Encoding: 286 8362 286
GlifName: sheqel
Width: 1024
VWidth: 0
GlyphClass: 2
Flags: W
LayerCount: 2
Fore
SplineSet
117 1534 m 257
 117 4 l 257
 279 4 l 257
 279 1534 l 257
 117 1534 l 257
117 1538 m 257
 117 1381 l 257
 588 1381 l 257
 588 1538 l 257
 117 1538 l 257
503 1538 m 257
 620 1278 l 257
 768 1277 l 257
 656 1538 l 257
 503 1538 l 257
620 1278 m 257
 624 673 l 257
 768 673 l 257
 768 1277 l 257
 620 1278 l 257
968 8 m 257
 968 1538 l 257
 806 1538 l 257
 806 8 l 257
 968 8 l 257
968 4 m 257
 968 161 l 257
 497 161 l 257
 497 4 l 257
 968 4 l 257
582 4 m 257
 465 264 l 257
 317 265 l 257
 429 4 l 257
 582 4 l 257
465 264 m 257
 461 869 l 257
 317 869 l 257
 317 265 l 257
 465 264 l 257
EndSplineSet
EndChar

StartChar: afii61289
Encoding: 289 8467 289
GlifName: literS_ign
Width: 1024
VWidth: 0
GlyphClass: 2
Flags: W
LayerCount: 2
Fore
SplineSet
415 290 m 257
 415 90 l 257
 829 9 l 257
 829 209 l 257
 415 290 l 257
412 1548 m 257
 412 86 l 257
 612 86 l 257
 612 1548 l 257
 412 1548 l 257
555 1549 m 257
 552 1340 l 257
 803 1335 l 257
 806 1544 l 257
 555 1549 l 257
806 1545 m 257
 418 123 l 257
 610 70 l 257
 999 1492 l 257
 806 1545 l 257
EndSplineSet
EndChar

StartChar: alpha
Encoding: 293 945 293
GlifName: alpha
Width: 1024
VWidth: 0
GlyphClass: 2
Flags: W
LayerCount: 2
Fore
SplineSet
164 1023 m 257
 164 826 l 257
 589 826 l 257
 589 1023 l 257
 164 1023 l 257
164 984 m 257
 164 0 l 257
 368 0 l 257
 368 984 l 257
 164 984 l 257
272 201 m 257
 272 0 l 257
 610 5 l 257
 610 206 l 257
 272 201 l 257
818 -20 m 257
 998 65 l 257
 590 1024 l 257
 410 939 l 257
 818 -20 l 257
613 3 m 257
 998 939 l 257
 818 1024 l 257
 433 88 l 257
 613 3 l 257
EndSplineSet
EndChar

StartChar: ampersand
Encoding: 296 38 296
GlifName: ampersand
Width: 1024
VWidth: 0
GlyphClass: 2
Flags: W
LayerCount: 2
Fore
SplineSet
260 1537 m 257
 708 12 l 257
 854 56 l 257
 422 1537 l 257
 260 1537 l 257
804 1401 m 257
 804 1537 l 257
 338 1537 l 257
 338 1401 l 257
 804 1401 l 257
644 1446 m 257
 644 917 l 257
 804 917 l 257
 804 1446 l 257
 644 1446 l 257
108 1045 m 257
 108 843 l 257
 804 843 l 257
 804 1045 l 257
 108 1045 l 257
108 1045 m 257
 108 24 l 257
 318 24 l 257
 318 1045 l 257
 108 1045 l 257
108 190 m 257
 108 6 l 257
 916 6 l 257
 916 190 l 257
 108 190 l 257
EndSplineSet
EndChar

StartChar: approxequal
Encoding: 299 8776 299
GlifName: approxequal
Width: 1024
VWidth: 0
GlyphClass: 2
Flags: W
LayerCount: 2
Fore
SplineSet
330 559 m 257
 330 395 l 257
 680 334 l 257
 680 498 l 257
 330 559 l 257
92 501 m 257
 107 338 l 257
 330 395 l 257
 330 559 l 257
 92 501 l 257
680 498 m 257
 680 334 l 257
 861 475 l 257
 837 636 l 257
 680 498 l 257
330 898 m 257
 330 716 l 257
 680 655 l 257
 680 837 l 257
 330 898 l 257
92 840 m 257
 107 659 l 257
 330 716 l 257
 330 898 l 257
 92 840 l 257
680 837 m 257
 680 655 l 257
 861 796 l 257
 837 975 l 257
 680 837 l 257
EndSplineSet
EndChar

StartChar: arrowboth
Encoding: 302 8596 302
GlifName: leftR_ightA_rrow
Width: 1024
VWidth: 0
GlyphClass: 2
Flags: W
LayerCount: 2
Fore
SplineSet
133 855 m 257
 133 644 l 257
 846 644 l 257
 846 855 l 257
 133 855 l 257
236 1076 m 257
 66 744 l 257
 251 744 l 257
 422 1076 l 257
 236 1076 l 257
66 744 m 257
 252 411 l 257
 436 411 l 257
 252 744 l 257
 66 744 l 257
829 414 m 257
 1000 746 l 257
 815 746 l 257
 644 414 l 257
 829 414 l 257
1013 746 m 257
 827 1079 l 257
 642 1079 l 257
 827 746 l 257
 1013 746 l 257
EndSplineSet
EndChar

StartChar: arrowdown
Encoding: 303 8595 303
GlifName: downA_rrow
Width: 1024
VWidth: 0
GlyphClass: 2
Flags: W
LayerCount: 2
Fore
SplineSet
394 432 m 257
 605 432 l 257
 605 1176 l 257
 394 1176 l 257
 394 432 l 257
173 568 m 257
 505 344 l 257
 505 586 l 257
 173 810 l 257
 173 568 l 257
505 344 m 257
 838 587 l 257
 838 829 l 257
 505 587 l 257
 505 344 l 257
EndSplineSet
EndChar

StartChar: arrowleft
Encoding: 304 8592 304
GlifName: leftA_rrow
Width: 1024
VWidth: 0
GlyphClass: 2
Flags: W
LayerCount: 2
Fore
SplineSet
176 870 m 257
 176 659 l 257
 920 659 l 257
 920 870 l 257
 176 870 l 257
312 1091 m 257
 88 759 l 257
 330 759 l 257
 554 1091 l 257
 312 1091 l 257
88 759 m 257
 331 426 l 257
 573 426 l 257
 331 759 l 257
 88 759 l 257
EndSplineSet
EndChar

StartChar: arrowright
Encoding: 305 8594 305
GlifName: rightA_rrow
Width: 1024
VWidth: 0
GlyphClass: 2
Flags: W
LayerCount: 2
Fore
SplineSet
832 647 m 257
 832 858 l 257
 88 858 l 257
 88 647 l 257
 832 647 l 257
696 426 m 257
 920 758 l 257
 678 758 l 257
 454 426 l 257
 696 426 l 257
920 758 m 257
 677 1091 l 257
 435 1091 l 257
 677 758 l 257
 920 758 l 257
EndSplineSet
EndChar

StartChar: arrowup
Encoding: 306 8593 306
GlifName: upA_rrow
Width: 1024
VWidth: 0
GlyphClass: 2
Flags: W
LayerCount: 2
Fore
SplineSet
617 1088 m 257
 406 1088 l 257
 406 344 l 257
 617 344 l 257
 617 1088 l 257
838 952 m 257
 506 1176 l 257
 506 934 l 257
 838 710 l 257
 838 952 l 257
506 1176 m 257
 173 933 l 257
 173 691 l 257
 506 933 l 257
 506 1176 l 257
EndSplineSet
EndChar

StartChar: arrowupdn
Encoding: 307 8597 307
GlifName: upD_ownA_rrow
Width: 1024
VWidth: 0
GlyphClass: 2
Flags: W
LayerCount: 2
Fore
SplineSet
617 1277 m 257
 406 1277 l 257
 406 344 l 257
 617 344 l 257
 617 1277 l 257
838 1141 m 257
 506 1365 l 257
 506 1123 l 257
 838 899 l 257
 838 1141 l 257
506 1365 m 257
 173 1122 l 257
 173 880 l 257
 506 1122 l 257
 506 1365 l 257
176 366 m 257
 508 142 l 257
 508 384 l 257
 176 608 l 257
 176 366 l 257
508 125 m 257
 841 368 l 257
 841 610 l 257
 508 368 l 257
 508 125 l 257
EndSplineSet
EndChar

StartChar: asciicircum
Encoding: 308 94 308
GlifName: asciicircum
Width: 1024
VWidth: 0
GlyphClass: 2
Flags: W
LayerCount: 2
Fore
SplineSet
607 1023 m 257
 458 1023 l 257
 193 407 l 257
 343 345 l 257
 607 1023 l 257
464 904 m 257
 720 343 l 257
 870 400 l 257
 607 1023 l 257
 464 904 l 257
EndSplineSet
EndChar

StartChar: asciitilde
Encoding: 309 126 309
GlifName: asciitilde
Width: 1024
VWidth: 0
GlyphClass: 2
Flags: W
LayerCount: 2
Fore
SplineSet
330 815 m 257
 330 663 l 257
 680 602 l 257
 680 754 l 257
 330 815 l 257
92 757 m 257
 107 606 l 257
 330 663 l 257
 330 815 l 257
 92 757 l 257
680 754 m 257
 680 602 l 257
 861 743 l 257
 837 892 l 257
 680 754 l 257
EndSplineSet
EndChar

StartChar: asterisk
Encoding: 310 42 310
GlifName: asterisk
Width: 1024
VWidth: 0
GlyphClass: 2
Flags: W
LayerCount: 2
Fore
SplineSet
422 1297 m 257
 422 300 l 257
 652 300 l 257
 652 1297 l 257
 422 1297 l 257
65 1099 m 257
 793 360 l 257
 952 504 l 257
 220 1241 l 257
 65 1099 l 257
817 1232 m 257
 94 525 l 257
 236 372 l 257
 959 1079 l 257
 817 1232 l 257
EndSplineSet
EndChar

StartChar: at
Encoding: 312 64 312
GlifName: at
Width: 1024
VWidth: 0
GlyphClass: 2
Flags: W
LayerCount: 2
Fore
SplineSet
101 1023 m 257
 101 879 l 257
 920 879 l 257
 920 1023 l 257
 101 1023 l 257
637 592 m 257
 637 0 l 257
 790 0 l 257
 790 592 l 257
 637 592 l 257
304 600 m 257
 304 444 l 257
 729 444 l 257
 729 600 l 257
 304 600 l 257
301 589 m 257
 301 12 l 257
 475 12 l 257
 475 589 l 257
 301 589 l 257
299 188 m 257
 299 0 l 257
 793 0 l 257
 793 188 l 257
 299 188 l 257
13 1023 m 257
 13 -223 l 257
 189 -223 l 257
 189 1023 l 257
 13 1023 l 257
11 -86 m 257
 11 -258 l 257
 959 -258 l 257
 959 -86 l 257
 11 -86 l 257
862 1011 m 257
 862 0 l 257
 1013 0 l 257
 1013 1011 l 257
 862 1011 l 257
734 175 m 257
 734 0 l 257
 943 0 l 257
 943 175 l 257
 734 175 l 257
EndSplineSet
EndChar

StartChar: b
Encoding: 314 98 314
GlifName: b
Width: 1024
VWidth: 0
GlyphClass: 2
Flags: W
AnchorPoint: "base" 498 -36 basechar 0
AnchorPoint: "top" 220 1646 basechar 0
LayerCount: 2
Fore
SplineSet
135 1537 m 257
 135 0 l 257
 334 0 l 257
 334 1537 l 257
 135 1537 l 257
232 1033 m 257
 232 834 l 257
 750 834 l 257
 750 1033 l 257
 232 1033 l 257
690 1033 m 257
 690 0 l 257
 889 0 l 257
 889 1033 l 257
 690 1033 l 257
260 207 m 257
 260 0 l 257
 810 0 l 257
 810 207 l 257
 260 207 l 257
EndSplineSet
EndChar

StartChar: backslash
Encoding: 315 92 315
GlifName: backslash
Width: 1024
VWidth: 0
GlyphClass: 2
Flags: W
LayerCount: 2
Fore
SplineSet
168 1441 m 257
 795 -13 l 257
 986 65 l 257
 360 1519 l 257
 168 1441 l 257
EndSplineSet
EndChar

StartChar: bar
Encoding: 316 124 316
GlifName: bar
Width: 1024
VWidth: 0
GlyphClass: 2
Flags: W
LayerCount: 2
Fore
SplineSet
525 1435 m 257
 525 -90 l 257
 728 -90 l 257
 728 1435 l 257
 525 1435 l 257
EndSplineSet
EndChar

StartChar: beta
Encoding: 317 946 317
GlifName: beta
Width: 1024
VWidth: 0
GlyphClass: 2
Flags: W
LayerCount: 2
Fore
SplineSet
107 1505 m 257
 107 -457 l 257
 307 -457 l 257
 307 1505 l 257
 107 1505 l 257
107 1547 m 257
 107 1347 l 257
 930 1252 l 257
 930 1452 l 257
 107 1547 l 257
730 1453 m 257
 730 2 l 257
 930 2 l 257
 930 1453 l 257
 730 1453 l 257
107 916 m 257
 107 716 l 257
 930 716 l 257
 930 916 l 257
 107 916 l 257
399 202 m 257
 399 2 l 257
 930 2 l 257
 930 202 l 257
 399 202 l 257
EndSplineSet
EndChar

StartChar: braceleft
Encoding: 318 123 318
GlifName: braceleft
Width: 1024
VWidth: 0
GlyphClass: 2
Flags: W
LayerCount: 2
Fore
SplineSet
421 1548 m 257
 421 838 l 257
 567 838 l 257
 567 1548 l 257
 421 1548 l 257
433 424 m 257
 433 -286 l 257
 579 -286 l 257
 579 424 l 257
 433 424 l 257
132 690 m 257
 132 630 l 257
 567 838 l 257
 421 838 l 257
 132 690 l 257
132 690 m 257
 132 630 l 257
 431 425 l 257
 580 425 l 257
 132 690 l 257
422 1603 m 257
 422 1452 l 257
 690 1574 l 257
 694 1603 l 257
 422 1603 l 257
434 -140 m 257
 434 -287 l 257
 710 -287 l 257
 710 -274 l 257
 434 -140 l 257
EndSplineSet
EndChar

StartChar: braceright
Encoding: 319 125 319
GlifName: braceright
Width: 1024
VWidth: 0
GlyphClass: 2
Flags: W
LayerCount: 2
Fore
SplineSet
437 1548 m 257
 275 1548 l 257
 275 838 l 257
 437 838 l 257
 437 1548 l 257
423 424 m 257
 263 424 l 257
 263 -286 l 257
 423 -286 l 257
 423 424 l 257
710 690 m 257
 432 838 l 257
 271 838 l 257
 710 630 l 257
 710 690 l 257
710 690 m 257
 263 424 l 257
 423 424 l 257
 710 630 l 257
 710 690 l 257
438 1603 m 257
 163 1603 l 257
 167 1574 l 257
 438 1452 l 257
 438 1603 l 257
408 -140 m 257
 132 -274 l 257
 132 -284 l 257
 408 -284 l 257
 408 -140 l 257
EndSplineSet
EndChar

StartChar: bracketleft
Encoding: 320 91 320
GlifName: bracketleft
Width: 1024
VWidth: 0
GlyphClass: 2
Flags: W
LayerCount: 2
Fore
SplineSet
162 1542 m 257
 162 -242 l 257
 284 -242 l 257
 284 1542 l 257
 162 1542 l 257
216 1543 m 257
 216 1416 l 257
 425 1416 l 257
 425 1543 l 257
 216 1543 l 257
216 -91 m 257
 216 -242 l 257
 430 -242 l 257
 430 -91 l 257
 216 -91 l 257
EndSplineSet
EndChar

StartChar: bracketright
Encoding: 321 93 321
GlifName: bracketright
Width: 1024
VWidth: 0
GlyphClass: 2
Flags: W
LayerCount: 2
Fore
SplineSet
366 1542 m 257
 366 -242 l 257
 488 -242 l 257
 488 1542 l 257
 366 1542 l 257
216 1543 m 257
 216 1416 l 257
 425 1416 l 257
 425 1543 l 257
 216 1543 l 257
216 -91 m 257
 216 -242 l 257
 430 -242 l 257
 430 -91 l 257
 216 -91 l 257
EndSplineSet
EndChar

StartChar: breve
Encoding: 322 728 322
GlifName: breve
Width: 1024
VWidth: 0
GlyphClass: 2
Flags: W
LayerCount: 2
Fore
SplineSet
656 1548 m 257
 656 1480 l 257
 821 1548 l 257
 821 1645 l 257
 656 1548 l 257
332 1548 m 257
 332 1480 l 257
 656 1480 l 257
 656 1548 l 257
 332 1548 l 257
161 1630 m 257
 161 1548 l 257
 332 1480 l 257
 332 1548 l 257
 161 1630 l 257
EndSplineSet
EndChar

StartChar: brokenbar
Encoding: 327 166 327
GlifName: brokenbar
Width: 1024
VWidth: 0
GlyphClass: 2
Flags: W
LayerCount: 2
Fore
SplineSet
511 -332 m 257
 621 -332 l 257
 621 682 l 257
 511 682 l 257
 511 -332 l 257
514 790 m 257
 624 790 l 257
 624 1636 l 257
 514 1636 l 257
 514 790 l 257
EndSplineSet
EndChar

StartChar: bullet
Encoding: 328 8226 328
GlifName: bullet
Width: 1024
VWidth: 0
GlyphClass: 2
Flags: W
LayerCount: 2
Fore
SplineSet
369 1023 m 257
 369 765 l 257
 654 765 l 257
 654 1023 l 257
 369 1023 l 257
EndSplineSet
EndChar

StartChar: c
Encoding: 329 99 329
GlifName: c
Width: 1024
VWidth: 0
GlyphClass: 2
Flags: W
AnchorPoint: "base" 522 -40 basechar 0
AnchorPoint: "top" 492 1162 basechar 0
LayerCount: 2
Fore
SplineSet
164 1023 m 257
 164 826 l 257
 860 826 l 257
 860 1023 l 257
 164 1023 l 257
166 984 m 257
 166 0 l 257
 368 0 l 257
 368 984 l 257
 166 984 l 257
272 201 m 257
 272 0 l 257
 854 0 l 257
 854 201 l 257
 272 201 l 257
EndSplineSet
EndChar

StartChar: caron
Encoding: 331 711 331
GlifName: caron
Width: 1024
VWidth: 0
GlyphClass: 2
Flags: W
LayerCount: 2
Fore
SplineSet
550 1083 m 257
 412 1437 l 257
 334 1404 l 257
 472 1083 l 257
 550 1083 l 257
475 1146 m 257
 550 1083 l 257
 687 1408 l 257
 609 1437 l 257
 475 1146 l 257
EndSplineSet
EndChar

StartChar: cedilla
Encoding: 336 184 336
GlifName: cedilla
Width: 1024
VWidth: 0
GlyphClass: 2
Flags: W
LayerCount: 2
Fore
SplineSet
330 -5 m 257
 330 -329 l 257
 486 -329 l 257
 486 -5 l 257
 330 -5 l 257
332 -473 m 257
 332 -591 l 257
 778 -591 l 257
 778 -473 l 257
 332 -473 l 257
626 -185 m 257
 626 -557 l 257
 778 -557 l 257
 778 -185 l 257
 626 -185 l 257
332 -185 m 257
 332 -341 l 257
 778 -341 l 257
 778 -185 l 257
 332 -185 l 257
EndSplineSet
EndChar

StartChar: cent
Encoding: 337 162 337
GlifName: cent
Width: 1024
VWidth: 0
GlyphClass: 2
Flags: W
LayerCount: 2
Fore
SplineSet
691 1183 m 257
 544 1183 l 257
 544 -86 l 257
 691 -86 l 257
 691 1183 l 257
164 1023 m 257
 164 826 l 257
 860 826 l 257
 860 1023 l 257
 164 1023 l 257
166 984 m 257
 166 0 l 257
 368 0 l 257
 368 984 l 257
 166 984 l 257
272 201 m 257
 272 0 l 257
 854 0 l 257
 854 201 l 257
 272 201 l 257
EndSplineSet
EndChar

StartChar: chi
Encoding: 338 967 338
GlifName: chi
Width: 1024
VWidth: 0
GlyphClass: 2
Flags: W
LayerCount: 2
Fore
SplineSet
87 -245 m 257
 283 -245 l 257
 930.427 1023 l 257
 737.032 1023 l 257
 87 -245 l 257
89.6532 1023 m 257
 744 -245 l 257
 938 -245 l 257
 285.927 1023 l 257
 89.6532 1023 l 257
11 1023 m 257
 11 821 l 257
 285 821 l 257
 285 1023 l 257
 11 1023 l 257
745 -43 m 257
 745 -245 l 257
 1015 -245 l 257
 1015 -43 l 257
 745 -43 l 257
EndSplineSet
EndChar

StartChar: circle
Encoding: 339 9675 339
GlifName: whiteC_ircle
Width: 1024
VWidth: 0
GlyphClass: 2
Flags: W
LayerCount: 2
Fore
SplineSet
561 1191 m 257
 378 1179 l 257
 225 1094 l 257
 131 928 l 257
 145 735 l 257
 212 520 l 257
 436 426 l 257
 598 448 l 257
 777 498 l 257
 844 650 l 257
 876 785 l 257
 871 951 l 257
 781 1094 l 257
 561 1191 l 257
550 1115 m 257
 726 1037 l 257
 798 923 l 257
 802 790 l 257
 776 682 l 257
 722 560 l 257
 579 520 l 257
 450 502 l 257
 270 578 l 257
 217 750 l 257
 206 904 l 257
 281 1037 l 257
 403 1105 l 257
 550 1115 l 257
EndSplineSet
EndChar

StartChar: circumflex
Encoding: 340 710 340
GlifName: circumflex
Width: 1024
VWidth: 0
GlyphClass: 2
Flags: W
LayerCount: 2
Fore
SplineSet
539 1330 m 257
 479 1330 l 257
 373 1083 l 257
 433 1058 l 257
 539 1330 l 257
481 1282 m 257
 584 1058 l 257
 644 1080 l 257
 539 1330 l 257
 481 1282 l 257
EndSplineSet
EndChar

StartChar: colon
Encoding: 345 58 345
GlifName: colon
Width: 1024
VWidth: 0
GlyphClass: 2
Flags: W
LayerCount: 2
Fore
SplineSet
400 430 m 257
 400 201 l 257
 648 201 l 257
 648 430 l 257
 400 430 l 257
376 1294 m 257
 376 1047 l 257
 642 1047 l 257
 642 1294 l 257
 376 1294 l 257
EndSplineSet
EndChar

StartChar: colonmonetary
Encoding: 346 8353 346
GlifName: colonmonetary
Width: 1024
VWidth: 0
GlyphClass: 2
Flags: W
LayerCount: 2
Fore
SplineSet
777 1483 m 257
 207 6 l 257
 301 -67 l 257
 871 1410 l 257
 777 1483 l 257
561 1606 m 257
 -9 129 l 257
 97 56 l 257
 667 1533 l 257
 561 1606 l 257
71 1537 m 257
 71 0 l 257
 271 0 l 257
 271 1537 l 257
 71 1537 l 257
170 1537 m 257
 170 1338 l 257
 953 1338 l 257
 953 1537 l 257
 170 1537 l 257
156 199 m 257
 156 0 l 257
 951 0 l 257
 951 199 l 257
 156 199 l 257
EndSplineSet
EndChar

StartChar: comma
Encoding: 347 44 347
GlifName: comma
Width: 1024
VWidth: 0
GlyphClass: 2
Flags: W
LayerCount: 2
Fore
SplineSet
398 237 m 257
 398 8 l 257
 646 8 l 257
 646 237 l 257
 398 237 l 257
496 135 m 257
 378 -146 l 257
 522 -206 l 257
 644 0 l 257
 496 135 l 257
EndSplineSet
EndChar

StartChar: copyright
Encoding: 348 169 348
GlifName: copyright
Width: 1024
VWidth: 0
GlyphClass: 2
Flags: W
LayerCount: 2
Fore
SplineSet
16 1537 m 257
 16 0 l 257
 217 0 l 257
 217 1537 l 257
 16 1537 l 257
814 1537 m 257
 814 0 l 257
 1017 0 l 257
 1017 1537 l 257
 814 1537 l 257
126 1537 m 257
 126 1337 l 257
 817 1337 l 257
 817 1537 l 257
 126 1537 l 257
150 204 m 257
 150 0 l 257
 823 0 l 257
 823 204 l 257
 150 204 l 257
262 1197 m 257
 262 996 l 257
 697 996 l 257
 697 1197 l 257
 262 1197 l 257
263 1154 m 257
 263 340 l 257
 432 340 l 257
 432 1154 l 257
 263 1154 l 257
263 495 m 257
 263 294 l 257
 703 294 l 257
 703 495 l 257
 263 495 l 257
EndSplineSet
EndChar

StartChar: currency
Encoding: 350 164 350
GlifName: currency
Width: 1024
VWidth: 0
GlyphClass: 2
Flags: W
LayerCount: 2
Fore
SplineSet
79 1202 m 257
 79 180 l 257
 279 180 l 257
 279 1202 l 257
 79 1202 l 257
694 1204 m 257
 694 180 l 257
 896 180 l 257
 896 1204 l 257
 694 1204 l 257
202 1204 m 257
 202 1002 l 257
 788 1002 l 257
 788 1204 l 257
 202 1204 l 257
206 380 m 257
 206 181 l 257
 778 181 l 257
 778 380 l 257
 206 380 l 257
0 1356 m 257
 0 1109 l 257
 268 1109 l 257
 268 1356 l 257
 0 1356 l 257
698 1331 m 257
 698 1084 l 257
 962 1084 l 257
 962 1331 l 257
 698 1331 l 257
10 366 m 257
 10 119 l 257
 274 119 l 257
 274 366 l 257
 10 366 l 257
680 371 m 257
 680 124 l 257
 944 124 l 257
 944 371 l 257
 680 371 l 257
EndSplineSet
EndChar

StartChar: d
Encoding: 351 100 351
GlifName: d
Width: 1024
VWidth: 0
GlyphClass: 2
Flags: W
AnchorPoint: "base" 506 -56 basechar 0
AnchorPoint: "top" 824 1642 basechar 0
LayerCount: 2
Fore
SplineSet
692 1527 m 257
 692 0 l 257
 893 0 l 257
 893 1527 l 257
 692 1527 l 257
228 1023 m 257
 228 822 l 257
 781 822 l 257
 781 1023 l 257
 228 1023 l 257
132 1023 m 257
 132 0 l 257
 333 0 l 257
 333 1023 l 257
 132 1023 l 257
228 195 m 257
 228 0 l 257
 845 0 l 257
 845 195 l 257
 228 195 l 257
EndSplineSet
EndChar

StartChar: dagger
Encoding: 352 8224 352
GlifName: dagger
Width: 1024
VWidth: 0
GlyphClass: 2
Flags: W
LayerCount: 2
Fore
SplineSet
166 1251 m 257
 166 1086 l 257
 772 1086 l 257
 772 1251 l 257
 166 1251 l 257
390 1548 m 257
 390 0 l 257
 535 0 l 257
 535 1548 l 257
 390 1548 l 257
EndSplineSet
EndChar

StartChar: daggerdbl
Encoding: 353 8225 353
GlifName: daggerdbl
Width: 1024
VWidth: 0
GlyphClass: 2
Flags: W
LayerCount: 2
Fore
SplineSet
166 937 m 257
 166 772 l 257
 772 772 l 257
 772 937 l 257
 166 937 l 257
166 1251 m 257
 166 1086 l 257
 772 1086 l 257
 772 1251 l 257
 166 1251 l 257
390 1548 m 257
 390 0 l 257
 535 0 l 257
 535 1548 l 257
 390 1548 l 257
EndSplineSet
EndChar

StartChar: dcaron
Encoding: 354 271 354
GlifName: dcaron
Width: 1024
VWidth: 0
GlyphClass: 2
Flags: W
AnchorPoint: "base" 508 -97 basechar 0
LayerCount: 2
Fore
SplineSet
613 1527 m 257
 613 0 l 257
 814 0 l 257
 814 1527 l 257
 613 1527 l 257
149 1023 m 257
 149 822 l 257
 702 822 l 257
 702 1023 l 257
 149 1023 l 257
53 1023 m 257
 53 0 l 257
 254 0 l 257
 254 1023 l 257
 53 1023 l 257
149 195 m 257
 149 0 l 257
 766 0 l 257
 766 195 l 257
 149 195 l 257
860 1496 m 257
 860 1264 l 257
 990 1264 l 257
 990 1496 l 257
 860 1496 l 257
EndSplineSet
EndChar

StartChar: dcroat
Encoding: 355 273 355
GlifName: dcroat
Width: 1024
VWidth: 0
GlyphClass: 2
Flags: W
AnchorPoint: "top" 792 1648 basechar 0
AnchorPoint: "base" 522 -86 basechar 0
LayerCount: 2
Fore
SplineSet
692 1527 m 257
 692 0 l 257
 893 0 l 257
 893 1527 l 257
 692 1527 l 257
228 1023 m 257
 228 822 l 257
 781 822 l 257
 781 1023 l 257
 228 1023 l 257
132 1023 m 257
 132 0 l 257
 333 0 l 257
 333 1023 l 257
 132 1023 l 257
228 195 m 257
 228 0 l 257
 845 0 l 257
 845 195 l 257
 228 195 l 257
555 1403 m 257
 555 1202 l 257
 999 1202 l 257
 999 1403 l 257
 555 1403 l 257
EndSplineSet
EndChar

StartChar: degree
Encoding: 356 176 356
GlifName: degree
Width: 1024
VWidth: 0
GlyphClass: 2
Flags: W
LayerCount: 2
Fore
SplineSet
467 1456 m 257
 615 1456 l 257
 615 1326 l 257
 467 1326 l 257
 467 1456 l 257
362 1548 m 257
 362 1238 l 257
 722 1238 l 257
 722 1548 l 257
 362 1548 l 257
EndSplineSet
EndChar

StartChar: delta
Encoding: 357 948 357
GlifName: delta
Width: 1024
VWidth: 0
GlyphClass: 2
Flags: W
LayerCount: 2
Fore
SplineSet
241 1548 m 257
 692 0 l 257
 893 0 l 257
 442 1548 l 257
 241 1548 l 257
228 1023 m 257
 228 822 l 257
 569 822 l 257
 569 1023 l 257
 228 1023 l 257
132 1023 m 257
 132 0 l 257
 333 0 l 257
 333 1023 l 257
 132 1023 l 257
228 195 m 257
 228 0 l 257
 835 0 l 257
 835 195 l 257
 228 195 l 257
331 1549 m 257
 331 1362 l 257
 863 1362 l 257
 863 1549 l 257
 331 1549 l 257
EndSplineSet
EndChar

StartChar: divide
Encoding: 360 247 360
GlifName: divide
Width: 1024
VWidth: 0
GlyphClass: 2
Flags: W
LayerCount: 2
Fore
SplineSet
400 430 m 257
 400 201 l 257
 648 201 l 257
 648 430 l 257
 400 430 l 257
376 1294 m 257
 376 1047 l 257
 642 1047 l 257
 642 1294 l 257
 376 1294 l 257
99 808 m 257
 99 600 l 257
 925 600 l 257
 925 808 l 257
 99 808 l 257
EndSplineSet
EndChar

StartChar: dollar
Encoding: 361 36 361
GlifName: dollar
Width: 1024
VWidth: 0
GlyphClass: 2
Flags: W
LayerCount: 2
Fore
SplineSet
126 1537 m 257
 126 1358 l 257
 724 1358 l 257
 724 1537 l 257
 126 1537 l 257
126 1542 m 257
 126 1028 l 257
 331 1028 l 257
 331 1542 l 257
 126 1542 l 257
154 163 m 257
 154 0 l 257
 862 0 l 257
 862 163 l 257
 154 163 l 257
692 0 m 257
 898 0 l 257
 898 355 l 257
 692 355 l 257
 692 0 l 257
126 1028 m 257
 692 355 l 257
 898 355 l 257
 331 1028 l 257
 126 1028 l 257
385 1636 m 257
 385 -215 l 257
 599 -215 l 257
 599 1636 l 257
 385 1636 l 257
EndSplineSet
EndChar

StartChar: dong
Encoding: 362 8363 362
GlifName: dong
Width: 1024
VWidth: 0
GlyphClass: 2
Flags: W
LayerCount: 2
Fore
SplineSet
228 18 m 257
 228 -177 l 257
 845 -177 l 257
 845 18 l 257
 228 18 l 257
692 1527 m 257
 692 98 l 257
 893 98 l 257
 893 1527 l 257
 692 1527 l 257
228 1023 m 257
 228 822 l 257
 781 822 l 257
 781 1023 l 257
 228 1023 l 257
132 1023 m 257
 132 98 l 257
 333 98 l 257
 333 1023 l 257
 132 1023 l 257
228 293 m 257
 228 98 l 257
 845 98 l 257
 845 293 l 257
 228 293 l 257
555 1403 m 257
 555 1202 l 257
 999 1202 l 257
 999 1403 l 257
 555 1403 l 257
EndSplineSet
EndChar

StartChar: dotaccent
Encoding: 363 729 363
GlifName: dotaccent
Width: 1024
VWidth: 0
GlyphClass: 2
Flags: W
HStem: 1565 247
VStem: 380 264
LayerCount: 2
Fore
SplineSet
385 1103 m 257
 385 856 l 257
 649 856 l 257
 649 1103 l 257
 385 1103 l 257
EndSplineSet
PickledDataWithLists: "(dp0
Vcom.fontlab.hintData
p1
(dp2
Vhhints
p3
(lp4
(dp5
Vposition
p6
I1565
sVwidth
p7
I247
sasVvhints
p8
(lp9
(dp10
g6
I380
sg7
I264
sass."
EndChar

StartChar: dotbelowcomb
Encoding: 364 803 364
GlifName: dotbelowcomb
Width: 0
VWidth: 0
GlyphClass: 4
Flags: W
AnchorPoint: "base" -14 -187 mark 0
LayerCount: 2
Fore
SplineSet
-132 -204 m 257
 -132 -451 l 257
 132 -451 l 257
 132 -204 l 257
 -132 -204 l 257
EndSplineSet
EndChar

StartChar: dotlessi
Encoding: 365 305 365
GlifName: dotlessi
Width: 1024
VWidth: 0
GlyphClass: 2
Flags: W
AnchorPoint: "top" 492 1191 basechar 0
AnchorPoint: "base" 546 -101 basechar 0
LayerCount: 2
Fore
SplineSet
411 1018 m 257
 411 139 l 257
 613 139 l 257
 613 1018 l 257
 411 1018 l 257
141 204 m 257
 141 6 l 257
 883 6 l 257
 883 204 l 257
 141 204 l 257
191 1018 m 257
 191 818 l 257
 567 818 l 257
 567 1018 l 257
 191 1018 l 257
EndSplineSet
EndChar

StartChar: e
Encoding: 366 101 366
GlifName: e
Width: 1024
VWidth: 0
GlyphClass: 2
Flags: W
AnchorPoint: "top" 512 1166 basechar 0
AnchorPoint: "base" 492 -96 basechar 0
LayerCount: 2
Fore
SplineSet
219 1023 m 257
 219 812 l 257
 854 812 l 257
 854 1023 l 257
 219 1023 l 257
169 1023 m 257
 169 0 l 257
 371 0 l 257
 371 1023 l 257
 169 1023 l 257
271 201 m 257
 271 0 l 257
 853 0 l 257
 853 201 l 257
 271 201 l 257
239 625 m 257
 239 446 l 257
 829 446 l 257
 829 625 l 257
 239 625 l 257
657 993 m 257
 657 445 l 257
 852 445 l 257
 852 993 l 257
 657 993 l 257
EndSplineSet
EndChar

StartChar: eight
Encoding: 374 56 374
GlifName: eight
Width: 1024
VWidth: 0
GlyphClass: 2
Flags: W
LayerCount: 2
Fore
SplineSet
56 1548 m 257
 56 0 l 257
 969 0 l 257
 969 1548 l 257
 56 1548 l 257
767 759 m 257
 767 197 l 257
 260 197 l 257
 260 759 l 257
 767 759 l 257
768 959 m 257
 260 959 l 257
 260 1350 l 257
 768 1350 l 257
 768 959 l 257
EndSplineSet
Substitution2: "sinfScientificInferiorsinLatinlookup3 subtable" uni2088
Substitution2: "supsSuperscriptinLatinlookup16 subtable" uni2078
EndChar

StartChar: ellipsis
Encoding: 375 8230 375
GlifName: ellipsis
Width: 1024
VWidth: 0
GlyphClass: 2
Flags: W
LayerCount: 2
Fore
SplineSet
180 114 m 257
 180 0 l 257
 322 0 l 257
 322 114 l 257
 180 114 l 257
436 114 m 257
 436 0 l 257
 580 0 l 257
 580 114 l 257
 436 114 l 257
702 114 m 257
 702 0 l 257
 844 0 l 257
 844 114 l 257
 702 114 l 257
EndSplineSet
EndChar

StartChar: emdash
Encoding: 377 8212 377
GlifName: emdash
Width: 1024
VWidth: 0
GlyphClass: 2
Flags: W
LayerCount: 2
Fore
SplineSet
0 600 m 257
 1024 600 l 257
 1024 808 l 257
 0 808 l 257
 0 600 l 257
EndSplineSet
EndChar

StartChar: endash
Encoding: 379 8211 379
GlifName: endash
Width: 1024
VWidth: 0
GlyphClass: 2
Flags: W
LayerCount: 2
Fore
SplineSet
99 600 m 257
 925 600 l 257
 925 808 l 257
 99 808 l 257
 99 600 l 257
EndSplineSet
EndChar

StartChar: eng
Encoding: 380 331 380
GlifName: eng
Width: 1024
VWidth: 0
GlyphClass: 2
Flags: W
AnchorPoint: "top" 474 1150 basechar 0
AnchorPoint: "base" 516 -500 basechar 0
LayerCount: 2
Fore
SplineSet
456 -211 m 257
 456 -406 l 257
 843 -406 l 257
 843 -211 l 257
 456 -211 l 257
244 990 m 257
 244 0 l 257
 445 0 l 257
 445 990 l 257
 244 990 l 257
643 976 m 257
 643 -406 l 257
 844 -406 l 257
 844 976 l 257
 643 976 l 257
65 1023 m 257
 65 826 l 257
 843 826 l 257
 843 1023 l 257
 65 1023 l 257
EndSplineSet
EndChar

StartChar: epsilon
Encoding: 382 949 382
GlifName: epsilon
Width: 1024
VWidth: 0
GlyphClass: 2
Flags: W
LayerCount: 2
Fore
SplineSet
103 1140 m 257
 96 669 l 257
 296 668 l 257
 303 1139 l 257
 103 1140 l 257
181 1139 m 257
 181 935 l 257
 900 935 l 257
 900 1139 l 257
 181 1139 l 257
170 203 m 257
 170 0 l 257
 916 0 l 257
 916 203 l 257
 170 203 l 257
170 670 m 257
 170 470 l 257
 669 470 l 257
 669 670 l 257
 170 670 l 257
103 473 m 257
 96 2 l 257
 296 1 l 257
 303 472 l 257
 103 473 l 257
EndSplineSet
EndChar

StartChar: equal
Encoding: 384 61 384
GlifName: equal
Width: 1024
VWidth: 0
GlyphClass: 2
Flags: W
LayerCount: 2
Fore
SplineSet
104 914 m 257
 104 724 l 257
 920 724 l 257
 920 914 l 257
 104 914 l 257
104 540 m 257
 104 350 l 257
 920 350 l 257
 920 540 l 257
 104 540 l 257
EndSplineSet
EndChar

StartChar: estimated
Encoding: 385 8494 385
GlifName: estimated
Width: 1024
VWidth: 0
GlyphClass: 2
Flags: W
LayerCount: 2
Fore
SplineSet
171 798 m 257
 171 718 l 257
 917 719 l 257
 917 799 l 257
 171 798 l 257
726 1098 m 257
 732 727 l 257
 916 727 l 257
 910 1098 l 257
 726 1098 l 257
167 1103 m 257
 168 731 l 257
 347 731 l 257
 346 1103 l 257
 167 1103 l 257
168 1175 m 257
 168 1081 l 257
 513 1125 l 257
 513 1219 l 257
 168 1175 l 257
513 1221 m 257
 512 1123 l 257
 910 1081 l 257
 911 1179 l 257
 513 1221 l 257
171 731 m 257
 171 287 l 257
 252 287 l 257
 252 731 l 257
 171 731 l 257
171 342 m 257
 171 248 l 257
 513 183 l 257
 513 277 l 257
 171 342 l 257
512 277 m 257
 512 183 l 257
 911 247 l 257
 911 341 l 257
 512 277 l 257
EndSplineSet
EndChar

StartChar: eta
Encoding: 386 951 386
GlifName: eta
Width: 1024
VWidth: 0
GlyphClass: 2
Flags: W
LayerCount: 2
Fore
SplineSet
244 990 m 257
 244 0 l 257
 445 0 l 257
 445 990 l 257
 244 990 l 257
643 976 m 257
 643 -409 l 257
 844 -409 l 257
 844 976 l 257
 643 976 l 257
65 1023 m 257
 65 826 l 257
 843 826 l 257
 843 1023 l 257
 65 1023 l 257
EndSplineSet
EndChar

StartChar: eth
Encoding: 388 240 388
GlifName: eth
Width: 1024
VWidth: 0
GlyphClass: 2
Flags: W
AnchorPoint: "top" 323 1629 basechar 0
AnchorPoint: "base" 533 -178 basechar 0
LayerCount: 2
Fore
SplineSet
241 1548 m 257
 692 0 l 257
 893 0 l 257
 442 1548 l 257
 241 1548 l 257
228 1023 m 257
 228 822 l 257
 569 822 l 257
 569 1023 l 257
 228 1023 l 257
132 1023 m 257
 132 0 l 257
 333 0 l 257
 333 1023 l 257
 132 1023 l 257
228 195 m 257
 228 0 l 257
 845 0 l 257
 845 195 l 257
 228 195 l 257
161 1416 m 257
 161 1229 l 257
 693 1229 l 257
 693 1416 l 257
 161 1416 l 257
EndSplineSet
EndChar

StartChar: exclam
Encoding: 389 33 389
GlifName: exclam
Width: 1024
VWidth: 0
GlyphClass: 2
Flags: W
LayerCount: 2
Fore
SplineSet
440 17 m 257
 584 17 l 257
 584 265 l 257
 440 265 l 257
 440 17 l 257
450 502 m 257
 578 502 l 257
 578 1520 l 257
 450 1520 l 257
 450 502 l 257
EndSplineSet
EndChar

StartChar: exclamdown
Encoding: 390 161 390
GlifName: exclamdown
Width: 1024
VWidth: 0
GlyphClass: 2
Flags: W
LayerCount: 2
Fore
SplineSet
672 1520 m 257
 528 1520 l 257
 528 1272 l 257
 672 1272 l 257
 672 1520 l 257
662 1035 m 257
 534 1035 l 257
 534 17 l 257
 662 17 l 257
 662 1035 l 257
EndSplineSet
EndChar

StartChar: f
Encoding: 391 102 391
GlifName: f
Width: 1024
VWidth: 0
GlyphClass: 2
Flags: W
AnchorPoint: "top" 593 1633 basechar 0
AnchorPoint: "base" 448 -116 basechar 0
LayerCount: 2
Fore
SplineSet
319 1551 m 257
 316 -6 l 257
 516 -6 l 257
 519 1551 l 257
 319 1551 l 257
381 1551 m 257
 381 1359 l 257
 863 1359 l 257
 863 1551 l 257
 381 1551 l 257
132 959 m 257
 132 756 l 257
 763 756 l 257
 763 959 l 257
 132 959 l 257
EndSplineSet
EndChar

StartChar: filledbox
Encoding: 393 9632 393
GlifName: blackS_quare
Width: 1024
VWidth: 0
GlyphClass: 2
Flags: W
LayerCount: 2
Fore
SplineSet
95 1242 m 257
 95 415 l 257
 922 415 l 257
 922 1242 l 257
 95 1242 l 257
EndSplineSet
PickledDataWithLists: "(dp0
."
EndChar

StartChar: five
Encoding: 394 53 394
GlifName: five
Width: 1024
VWidth: 0
GlyphClass: 2
Flags: W
LayerCount: 2
Fore
SplineSet
772 759 m 257
 772 198 l 257
 59 198 l 257
 59 0 l 257
 977 0 l 257
 977 959 l 257
 260 959 l 257
 260 1352 l 257
 987 1352 l 257
 987 1548 l 257
 60 1548 l 257
 60 759 l 257
 772 759 l 257
EndSplineSet
Substitution2: "sinfScientificInferiorsinLatinlookup3 subtable" uni2085
Substitution2: "supsSuperscriptinLatinlookup16 subtable" uni2075
EndChar

StartChar: florin
Encoding: 396 402 396
GlifName: uni0192
Width: 1024
VWidth: 0
GlyphClass: 2
Flags: W
LayerCount: 2
Fore
SplineSet
413 1023 m 257
 413 -406 l 257
 613 -406 l 257
 613 1023 l 257
 413 1023 l 257
475 1023 m 257
 475 831 l 257
 957 831 l 257
 957 1023 l 257
 475 1023 l 257
229 559 m 257
 229 356 l 257
 860 356 l 257
 860 559 l 257
 229 559 l 257
167 -201 m 257
 167 -406 l 257
 615 -406 l 257
 615 -201 l 257
 167 -201 l 257
EndSplineSet
EndChar

StartChar: four
Encoding: 397 52 397
GlifName: four
Width: 1024
VWidth: 0
GlyphClass: 2
Flags: W
LayerCount: 2
Fore
SplineSet
91 761 m 257
 733 761 l 257
 733 7 l 257
 929 7 l 257
 929 1548 l 257
 730 1548 l 257
 730 961 l 257
 291 961 l 257
 291 1548 l 257
 91 1548 l 257
 91 761 l 257
EndSplineSet
Substitution2: "sinfScientificInferiorsinLatinlookup3 subtable" uni2084
Substitution2: "supsSuperscriptinLatinlookup16 subtable" uni2074
EndChar

StartChar: fraction
Encoding: 398 8260 398
GlifName: uni2044
Width: 1024
VWidth: 0
GlyphClass: 2
Flags: W
LayerCount: 2
Fore
SplineSet
703 1483 m 257
 133 6 l 257
 321 -67 l 257
 891 1410 l 257
 703 1483 l 257
EndSplineSet
EndChar

StartChar: franc
Encoding: 399 8355 399
GlifName: franc
Width: 1024
VWidth: 0
GlyphClass: 2
Flags: W
LayerCount: 2
Fore
SplineSet
0 565 m 257
 0 362 l 257
 549 362 l 257
 549 565 l 257
 0 565 l 257
141 1548 m 257
 141 0 l 257
 341 0 l 257
 341 1548 l 257
 141 1548 l 257
243 1548 m 257
 243 1347 l 257
 877 1347 l 257
 877 1548 l 257
 243 1548 l 257
231 875 m 257
 231 672 l 257
 780 672 l 257
 780 875 l 257
 231 875 l 257
EndSplineSet
EndChar

StartChar: g
Encoding: 400 103 400
GlifName: g
Width: 1024
VWidth: 0
GlyphClass: 2
Flags: W
AnchorPoint: "top" 578 1176 basechar 0
AnchorPoint: "base" 570 -460 basechar 0
LayerCount: 2
Fore
SplineSet
297 1023 m 257
 297 0 l 257
 489 0 l 257
 489 1023 l 257
 297 1023 l 257
337 1023 m 257
 337 823 l 257
 853 823 l 257
 853 1023 l 257
 337 1023 l 257
681 1023 m 257
 681 -411 l 257
 875 -411 l 257
 875 1023 l 257
 681 1023 l 257
360 198 m 257
 360 0 l 257
 817 0 l 257
 817 198 l 257
 360 198 l 257
291 -214 m 257
 291 -413 l 257
 826 -413 l 257
 826 -214 l 257
 291 -214 l 257
EndSplineSet
EndChar

StartChar: gamma
Encoding: 401 947 401
GlifName: gamma
Width: 1024
VWidth: 0
GlyphClass: 2
Flags: W
LayerCount: 2
Fore
SplineSet
411 235 m 257
 411 -398 l 257
 613 -398 l 257
 613 235 l 257
 411 235 l 257
160 1026 m 257
 411 197 l 257
 607 197 l 257
 360 1026 l 257
 160 1026 l 257
665 1026 m 257
 412 197 l 257
 611 197 l 257
 864 1026 l 257
 665 1026 l 257
EndSplineSet
EndChar

StartChar: germandbls
Encoding: 407 223 407
GlifName: germandbls
Width: 1024
VWidth: 0
GlyphClass: 2
Flags: W
LayerCount: 2
Fore
SplineSet
18 1221 m 257
 18 1023 l 257
 269 1023 l 257
 269 1221 l 257
 18 1221 l 257
204 1548 m 257
 204 0 l 257
 410 0 l 257
 410 1548 l 257
 204 1548 l 257
410 1548 m 257
 410 1328 l 257
 805 1328 l 257
 805 1548 l 257
 410 1548 l 257
690 1548 m 257
 690 1023 l 257
 889 1023 l 257
 889 1548 l 257
 690 1548 l 257
690 848 m 257
 690 175 l 257
 890 175 l 257
 890 848 l 257
 690 848 l 257
547 251 m 257
 547 40 l 257
 890 40 l 257
 890 251 l 257
 547 251 l 257
610 1224 m 257
 610 1027 l 257
 889 1020 l 257
 889 1223 l 257
 610 1224 l 257
610 897 m 257
 610 694 l 257
 890 694 l 257
 890 897 l 257
 610 897 l 257
517 1222 m 257
 517 697 l 257
 610 698 l 257
 610 1223 l 257
 517 1222 l 257
EndSplineSet
EndChar

StartChar: grave
Encoding: 408 96 408
GlifName: grave
Width: 1024
VWidth: 0
GlyphClass: 2
Flags: W
LayerCount: 2
Fore
SplineSet
266 1358 m 257
 411 1057 l 257
 560 1129 l 257
 414 1430 l 257
 266 1358 l 257
EndSplineSet
EndChar

StartChar: gravecomb
Encoding: 409 768 409
GlifName: gravecomb
Width: 0
VWidth: 0
GlyphClass: 4
Flags: W
AnchorPoint: "top" 25 842 mark 0
LayerCount: 2
Fore
SplineSet
-200 1119 m 257
 -43 826 l 257
 132 924 l 257
 -24 1218 l 257
 -200 1119 l 257
EndSplineSet
EndChar

StartChar: greater
Encoding: 410 62 410
GlifName: greater
Width: 1024
VWidth: 0
GlyphClass: 2
Flags: W
LayerCount: 2
Fore
SplineSet
922 777 m 257
 100 1013 l 257
 100 807 l 257
 924 568 l 257
 922 777 l 257
922 777 m 257
 102 319 l 257
 102 122 l 257
 924 568 l 257
 922 777 l 257
EndSplineSet
EndChar

StartChar: greaterequal
Encoding: 411 8805 411
GlifName: greaterequal
Width: 1024
VWidth: 0
GlyphClass: 2
Flags: W
LayerCount: 2
Fore
SplineSet
-5 -5 m 257
 -5 -157 l 257
 1019 -157 l 257
 1019 -5 l 257
 -5 -5 l 257
922 777 m 257
 100 1013 l 257
 100 807 l 257
 924 568 l 257
 922 777 l 257
922 777 m 257
 102 319 l 257
 102 122 l 257
 924 568 l 257
 922 777 l 257
EndSplineSet
EndChar

StartChar: guillemotleft
Encoding: 412 171 412
GlifName: guillemotleft
Width: 1024
VWidth: 0
GlyphClass: 2
Flags: W
LayerCount: 2
Fore
SplineSet
134 609 m 257
 134 454 l 257
 503 631 l 257
 503 784 l 257
 134 609 l 257
134 609 m 257
 134 454 l 257
 502 122 l 257
 502 268 l 257
 134 609 l 257
549 609 m 257
 549 454 l 257
 918 631 l 257
 918 784 l 257
 549 609 l 257
549 609 m 257
 549 454 l 257
 917 122 l 257
 917 268 l 257
 549 609 l 257
EndSplineSet
EndChar

StartChar: guillemotright
Encoding: 413 187 413
GlifName: guillemotright
Width: 1024
VWidth: 0
GlyphClass: 2
Flags: W
LayerCount: 2
Fore
SplineSet
920 609 m 257
 551 784 l 257
 551 631 l 257
 920 454 l 257
 920 609 l 257
920 609 m 257
 552 268 l 257
 552 122 l 257
 920 454 l 257
 920 609 l 257
505 609 m 257
 136 784 l 257
 136 631 l 257
 505 454 l 257
 505 609 l 257
505 609 m 257
 137 268 l 257
 137 122 l 257
 505 454 l 257
 505 609 l 257
EndSplineSet
EndChar

StartChar: guilsinglleft
Encoding: 414 8249 414
GlifName: guilsinglleft
Width: 1024
VWidth: 0
GlyphClass: 2
Flags: W
LayerCount: 2
Fore
SplineSet
103 777 m 257
 103 569 l 257
 921 807 l 257
 921 1013 l 257
 103 777 l 257
103 777 m 257
 103 569 l 257
 919 122 l 257
 919 319 l 257
 103 777 l 257
EndSplineSet
EndChar

StartChar: guilsinglright
Encoding: 415 8250 415
GlifName: guilsinglright
Width: 1024
VWidth: 0
GlyphClass: 2
Flags: W
LayerCount: 2
Fore
SplineSet
922 777 m 257
 100 1013 l 257
 100 807 l 257
 924 568 l 257
 922 777 l 257
922 777 m 257
 102 319 l 257
 102 122 l 257
 924 568 l 257
 922 777 l 257
EndSplineSet
EndChar

StartChar: h
Encoding: 416 104 416
GlifName: h
Width: 1024
VWidth: 0
GlyphClass: 2
Flags: W
AnchorPoint: "top" 248 1646 basechar 0
AnchorPoint: "base" 512 -46 basechar 0
LayerCount: 2
Fore
SplineSet
174 1537 m 257
 174 6 l 257
 374 6 l 257
 374 1537 l 257
 174 1537 l 257
311 1023 m 257
 311 826 l 257
 842 826 l 257
 842 1023 l 257
 311 1023 l 257
651 1023 m 257
 651 0 l 257
 850 0 l 257
 850 1023 l 257
 651 1023 l 257
EndSplineSet
EndChar

StartChar: hbar
Encoding: 417 295 417
GlifName: hbar
Width: 1024
VWidth: 0
GlyphClass: 2
Flags: W
LayerCount: 2
Fore
SplineSet
174 1537 m 257
 174 6 l 257
 374 6 l 257
 374 1537 l 257
 174 1537 l 257
311 1023 m 257
 311 826 l 257
 842 826 l 257
 842 1023 l 257
 311 1023 l 257
651 1023 m 257
 651 0 l 257
 850 0 l 257
 850 1023 l 257
 651 1023 l 257
38 1429 m 257
 38 1221 l 257
 494 1221 l 257
 494 1429 l 257
 38 1429 l 257
EndSplineSet
EndChar

StartChar: hookabovecomb
Encoding: 419 777 419
GlifName: hookabovecomb
Width: 0
VWidth: 0
GlyphClass: 4
Flags: W
AnchorPoint: "top" -6 774 mark 0
LayerCount: 2
Fore
SplineSet
-86 1140 m 257
 -86 1081 l 257
 146 1081 l 257
 146 1140 l 257
 -86 1140 l 257
63 1138 m 257
 63 956 l 257
 148 958 l 257
 148 1140 l 257
 63 1138 l 257
-42 1021 m 257
 -41 922 l 257
 148 922 l 257
 147 1021 l 257
 -42 1021 l 257
-41 969 m 257
 -41 829 l 257
 61 828 l 257
 61 968 l 257
 -41 969 l 257
EndSplineSet
EndChar

StartChar: hungarumlaut
Encoding: 420 733 420
GlifName: hungarumlaut
Width: 1024
VWidth: 0
GlyphClass: 2
Flags: W
LayerCount: 2
Fore
SplineSet
240 122 m 257
 384 122 l 257
 384 370 l 257
 240 370 l 257
 240 122 l 257
640 122 m 257
 784 122 l 257
 784 370 l 257
 640 370 l 257
 640 122 l 257
EndSplineSet
EndChar

StartChar: hyphen
Encoding: 421 45 421
GlifName: hyphen
Width: 1024
VWidth: 0
GlyphClass: 2
Flags: W
LayerCount: 2
Fore
SplineSet
99 808 m 257
 99 600 l 257
 925 600 l 257
 925 808 l 257
 99 808 l 257
EndSplineSet
EndChar

StartChar: i
Encoding: 422 105 422
GlifName: i
Width: 1024
VWidth: 0
GlyphClass: 2
Flags: W
AnchorPoint: "top" 436 1457 basechar 0
AnchorPoint: "base" 511 -61 basechar 0
LayerCount: 2
Fore
SplineSet
411 1018 m 257
 411 139 l 257
 613 139 l 257
 613 1018 l 257
 411 1018 l 257
141 204 m 257
 141 6 l 257
 883 6 l 257
 883 204 l 257
 141 204 l 257
347 1369 m 257
 347 1168 l 257
 545 1168 l 257
 545 1369 l 257
 347 1369 l 257
191 1018 m 257
 191 818 l 257
 567 818 l 257
 567 1018 l 257
 191 1018 l 257
EndSplineSet
Substitution2: "Single Substitution lookup 5 subtable" dotlessi
EndChar

StartChar: infinity
Encoding: 431 8734 431
GlifName: infinity
Width: 1024
VWidth: 0
GlyphClass: 2
Flags: W
LayerCount: 2
Fore
SplineSet
27 1023 m 257
 27 826 l 257
 345 823 l 257
 345 1020 l 257
 27 1023 l 257
27 984 m 257
 27 0 l 257
 231 0 l 257
 231 984 l 257
 27 984 l 257
135 201 m 257
 135 0 l 257
 366 2 l 257
 366 203 l 257
 135 201 l 257
661 -3 m 257
 837 65 l 257
 343 1021 l 257
 163 936 l 257
 661 -3 l 257
366 0 m 257
 836 939 l 257
 656 1024 l 257
 186 85 l 257
 366 0 l 257
655 1024 m 257
 655 827 l 257
 964 827 l 257
 964 1024 l 257
 655 1024 l 257
786 1024 m 257
 791 0 l 257
 995 0 l 257
 990 1024 l 257
 786 1024 l 257
664 200 m 257
 665 -1 l 257
 881 4 l 257
 881 205 l 257
 664 200 l 257
EndSplineSet
EndChar

StartChar: integral
Encoding: 432 8747 432
GlifName: integral
Width: 1024
VWidth: 0
GlyphClass: 2
Flags: W
LayerCount: 2
Fore
SplineSet
534 1641 m 257
 311 -399 l 257
 504 -399 l 257
 727 1641 l 257
 534 1641 l 257
131 -241 m 257
 131 -398 l 257
 469 -398 l 257
 469 -241 l 257
 131 -241 l 257
606 1641 m 257
 606 1507 l 257
 925 1507 l 257
 925 1641 l 257
 606 1641 l 257
EndSplineSet
EndChar

StartChar: iota
Encoding: 435 953 435
GlifName: iota
Width: 1024
VWidth: 0
GlyphClass: 2
Flags: W
LayerCount: 2
Fore
SplineSet
447 1013 m 257
 447 234 l 257
 649 234 l 257
 649 1013 l 257
 447 1013 l 257
447 299 m 257
 447 101 l 257
 918 20 l 257
 918 218 l 257
 447 299 l 257
EndSplineSet
EndChar

StartChar: j
Encoding: 442 106 442
GlifName: j
Width: 1024
VWidth: 0
GlyphClass: 2
Flags: W
AnchorPoint: "top" 697 1521 basechar 0
AnchorPoint: "base" 522 -455 basechar 0
LayerCount: 2
Fore
SplineSet
628 1023 m 257
 628 -411 l 257
 826 -411 l 257
 826 1023 l 257
 628 1023 l 257
198 -209 m 257
 198 -406 l 257
 728 -406 l 257
 728 -209 l 257
 198 -209 l 257
198 -6 m 257
 198 -351 l 257
 398 -351 l 257
 398 -6 l 257
 198 -6 l 257
620 1413 m 257
 620 1214 l 257
 820 1214 l 257
 820 1413 l 257
 620 1413 l 257
EndSplineSet
Substitution2: "Single Substitution lookup 5 subtable" uni0237
EndChar

StartChar: k
Encoding: 445 107 445
GlifName: k
Width: 1024
VWidth: 0
GlyphClass: 2
Flags: W
AnchorPoint: "base" 494 -48 basechar 0
AnchorPoint: "top" 220 1638 basechar 0
LayerCount: 2
Fore
SplineSet
118 1537 m 257
 118 5 l 257
 318 5 l 257
 318 1537 l 257
 118 1537 l 257
167 516 m 257
 216 298 l 257
 903 1023 l 257
 686 1023 l 257
 167 516 l 257
424 631 m 257
 272 483 l 257
 722 0 l 257
 960 0 l 257
 424 631 l 257
EndSplineSet
EndChar

StartChar: kgreenlandic
Encoding: 448 312 448
GlifName: kgreenlandic
Width: 1024
VWidth: 0
GlyphClass: 2
Flags: W
AnchorPoint: "base" 486 -119 basechar 0
AnchorPoint: "top" 140 1110 basechar 0
LayerCount: 2
Fore
SplineSet
42 1022 m 257
 42 5 l 257
 242 5 l 257
 242 1022 l 257
 42 1022 l 257
91 516 m 257
 140 298 l 257
 1012 1023 l 257
 795 1023 l 257
 91 516 l 257
424 631 m 257
 196 483 l 257
 765 0 l 257
 1003 0 l 257
 424 631 l 257
EndSplineSet
EndChar

StartChar: l
Encoding: 449 108 449
GlifName: l
Width: 1024
VWidth: 0
GlyphClass: 2
Flags: W
AnchorPoint: "base" 538 -68 basechar 0
AnchorPoint: "top" 520 1654 basechar 0
LayerCount: 2
Fore
SplineSet
195 209 m 257
 195 9 l 257
 829 9 l 257
 829 209 l 257
 195 209 l 257
412 1548 m 257
 412 86 l 257
 612 86 l 257
 612 1548 l 257
 412 1548 l 257
256 1548 m 257
 256 1349 l 257
 491 1349 l 257
 491 1548 l 257
 256 1548 l 257
EndSplineSet
EndChar

StartChar: lambda
Encoding: 452 955 452
GlifName: lambda
Width: 1024
VWidth: 0
GlyphClass: 2
Flags: W
LayerCount: 2
Fore
SplineSet
181 0 m 257
 380 0 l 257
 675 777 l 257
 468 777 l 257
 181 0 l 257
643 0 m 257
 843 0 l 257
 615 1047 l 257
 408 1047 l 257
 643 0 l 257
EndSplineSet
EndChar

StartChar: lcaron
Encoding: 454 318 454
GlifName: lcaron
Width: 1024
VWidth: 0
GlyphClass: 2
Flags: W
LayerCount: 2
Fore
SplineSet
133 209 m 257
 133 9 l 257
 767 9 l 257
 767 209 l 257
 133 209 l 257
350 1548 m 257
 350 86 l 257
 550 86 l 257
 550 1548 l 257
 350 1548 l 257
194 1548 m 257
 194 1349 l 257
 429 1349 l 257
 429 1548 l 257
 194 1548 l 257
630 1496 m 257
 630 1264 l 257
 760 1264 l 257
 760 1496 l 257
 630 1496 l 257
EndSplineSet
EndChar

StartChar: less
Encoding: 457 60 457
GlifName: less
Width: 1024
VWidth: 0
GlyphClass: 2
Flags: W
LayerCount: 2
Fore
SplineSet
103 777 m 257
 103 569 l 257
 921 807 l 257
 921 1013 l 257
 103 777 l 257
103 777 m 257
 103 569 l 257
 919 122 l 257
 919 319 l 257
 103 777 l 257
EndSplineSet
EndChar

StartChar: lessequal
Encoding: 458 8804 458
GlifName: lessequal
Width: 1024
VWidth: 0
GlyphClass: 2
Flags: W
LayerCount: 2
Fore
SplineSet
-5 -5 m 257
 -5 -157 l 257
 1019 -157 l 257
 1019 -5 l 257
 -5 -5 l 257
103 777 m 257
 103 569 l 257
 921 807 l 257
 921 1013 l 257
 103 777 l 257
103 777 m 257
 103 569 l 257
 919 122 l 257
 919 319 l 257
 103 777 l 257
EndSplineSet
EndChar

StartChar: lira
Encoding: 459 8356 459
GlifName: lira
Width: 1024
VWidth: 0
GlyphClass: 2
Flags: W
LayerCount: 2
Fore
SplineSet
54 770 m 257
 54 571 l 257
 780 571 l 257
 780 770 l 257
 54 770 l 257
381 1543 m 257
 381 1344 l 257
 672 1344 l 257
 672 1543 l 257
 381 1543 l 257
54 1064 m 257
 54 865 l 257
 780 865 l 257
 780 1064 l 257
 54 1064 l 257
337 1542 m 257
 337 0 l 257
 535 0 l 257
 535 1542 l 257
 337 1542 l 257
162 202 m 257
 162 0 l 257
 888 0 l 257
 888 202 l 257
 162 202 l 257
EndSplineSet
EndChar

StartChar: logicalnot
Encoding: 460 172 460
GlifName: logicalnot
Width: 1024
VWidth: 0
GlyphClass: 2
Flags: W
LayerCount: 2
Fore
SplineSet
641 935 m 257
 641 640 l 257
 751 640 l 257
 751 935 l 257
 641 935 l 257
211 935 m 257
 211 835 l 257
 761 835 l 257
 761 935 l 257
 211 935 l 257
EndSplineSet
EndChar

StartChar: longs
Encoding: 461 383 461
GlifName: longs
Width: 1024
VWidth: 0
GlyphClass: 2
Flags: W
LayerCount: 2
Fore
SplineSet
18 1221 m 257
 18 1023 l 257
 269 1023 l 257
 269 1221 l 257
 18 1221 l 257
204 1548 m 257
 204 0 l 257
 410 0 l 257
 410 1548 l 257
 204 1548 l 257
410 1548 m 257
 410 1328 l 257
 805 1328 l 257
 805 1548 l 257
 410 1548 l 257
EndSplineSet
EndChar

StartChar: lozenge
Encoding: 462 9674 462
GlifName: lozenge
Width: 1024
VWidth: 0
GlyphClass: 2
Flags: W
LayerCount: 2
Fore
SplineSet
320 829 m 257
 508 402 l 257
 715 820 l 257
 509 1255 l 257
 320 829 l 257
EndSplineSet
EndChar

StartChar: lslash
Encoding: 463 322 463
GlifName: lslash
Width: 1024
VWidth: 0
GlyphClass: 2
Flags: W
LayerCount: 2
Fore
SplineSet
195 209 m 257
 195 9 l 257
 829 9 l 257
 829 209 l 257
 195 209 l 257
412 1548 m 257
 412 86 l 257
 612 86 l 257
 612 1548 l 257
 412 1548 l 257
256 1548 m 257
 256 1349 l 257
 491 1349 l 257
 491 1548 l 257
 256 1548 l 257
815 1213 m 257
 112 830 l 257
 214 656 l 257
 917 1039 l 257
 815 1213 l 257
EndSplineSet
EndChar

StartChar: m
Encoding: 464 109 464
GlifName: m
Width: 1024
VWidth: 0
GlyphClass: 2
Flags: W
AnchorPoint: "base" 498 -112 basechar 0
AnchorPoint: "top" 508 1110 basechar 0
LayerCount: 2
Fore
SplineSet
110 993 m 257
 110 0 l 257
 310 0 l 257
 310 993 l 257
 110 993 l 257
425 972 m 257
 425 0 l 257
 625 0 l 257
 625 972 l 257
 425 972 l 257
740 976 m 257
 740 0 l 257
 940 0 l 257
 940 976 l 257
 740 976 l 257
33 1023 m 257
 33 826 l 257
 939 826 l 257
 939 1023 l 257
 33 1023 l 257
EndSplineSet
EndChar

StartChar: macron
Encoding: 465 175 465
GlifName: macron
Width: 1024
VWidth: 0
GlyphClass: 2
Flags: W
LayerCount: 2
Fore
SplineSet
245 1104 m 257
 245 944 l 257
 805 944 l 257
 805 1104 l 257
 245 1104 l 257
EndSplineSet
EndChar

StartChar: mu
Encoding: 468 181 468
GlifName: mu
Width: 1024
VWidth: 0
GlyphClass: 2
Flags: W
LayerCount: 2
Fore
SplineSet
641 935 m 257
 641 0 l 257
 841 0 l 257
 841 935 l 257
 641 935 l 257
296 200 m 257
 296 0 l 257
 811 0 l 257
 811 200 l 257
 296 200 l 257
196 935 m 257
 196 -430 l 257
 396 -430 l 257
 396 935 l 257
 196 935 l 257
EndSplineSet
EndChar

StartChar: multiply
Encoding: 469 215 469
GlifName: multiply
Width: 1024
VWidth: 0
GlyphClass: 2
Flags: W
LayerCount: 2
Fore
SplineSet
91 302 m 257
 292 302 l 257
 927 1323 l 257
 728 1323 l 257
 91 302 l 257
93 1325 m 257
 735 298 l 257
 934 298 l 257
 295 1325 l 257
 93 1325 l 257
EndSplineSet
EndChar

StartChar: n
Encoding: 470 110 470
GlifName: n
Width: 1024
VWidth: 0
GlyphClass: 2
Flags: W
AnchorPoint: "base" 530 -64 basechar 0
AnchorPoint: "top" 492 1158 basechar 0
LayerCount: 2
Fore
SplineSet
244 990 m 257
 244 0 l 257
 445 0 l 257
 445 990 l 257
 244 990 l 257
643 976 m 257
 643 0 l 257
 844 0 l 257
 844 976 l 257
 643 976 l 257
65 1023 m 257
 65 826 l 257
 843 826 l 257
 843 1023 l 257
 65 1023 l 257
EndSplineSet
EndChar

StartChar: nine
Encoding: 475 57 475
GlifName: nine
Width: 1024
VWidth: 0
GlyphClass: 2
Flags: W
LayerCount: 2
Fore
SplineSet
781 759 m 257
 781 200 l 257
 79 200 l 257
 79 0 l 257
 977 0 l 257
 977 1554 l 257
 57 1554 l 257
 57 1537 l 257
 57 759 l 257
 781 759 l 257
778 959 m 257
 257 959 l 257
 257 1354 l 257
 778 1354 l 257
 778 959 l 257
EndSplineSet
Substitution2: "sinfScientificInferiorsinLatinlookup3 subtable" uni2089
Substitution2: "supsSuperscriptinLatinlookup16 subtable" uni2079
EndChar

StartChar: notequal
Encoding: 476 8800 476
GlifName: notequal
Width: 1024
VWidth: 0
GlyphClass: 2
Flags: W
LayerCount: 2
Fore
SplineSet
703 1101 m 257
 133 182 l 257
 264 109 l 257
 834 1028 l 257
 703 1101 l 257
104 914 m 257
 104 724 l 257
 920 724 l 257
 920 914 l 257
 104 914 l 257
104 540 m 257
 104 350 l 257
 920 350 l 257
 920 540 l 257
 104 540 l 257
EndSplineSet
EndChar

StartChar: numbersign
Encoding: 479 35 479
GlifName: numbersign
Width: 1024
VWidth: 0
GlyphClass: 2
Flags: W
LayerCount: 2
Fore
SplineSet
228 1347 m 257
 228 313 l 257
 368 313 l 257
 368 1347 l 257
 228 1347 l 257
638 1350 m 257
 638 279 l 257
 806 279 l 257
 806 1350 l 257
 638 1350 l 257
98 1157 m 257
 98 1010 l 257
 916 1010 l 257
 916 1157 l 257
 98 1157 l 257
98 767 m 257
 98 592 l 257
 926 592 l 257
 926 767 l 257
 98 767 l 257
EndSplineSet
EndChar

StartChar: o
Encoding: 480 111 480
GlifName: o
Width: 1024
VWidth: 0
GlyphClass: 2
Flags: W
AnchorPoint: "top" 512 1110 basechar 0
AnchorPoint: "base" 507 -89 basechar 0
LayerCount: 2
Fore
SplineSet
104 1023 m 257
 104 0 l 257
 304 0 l 257
 304 1023 l 257
 104 1023 l 257
719 1023 m 257
 719 0 l 257
 921 0 l 257
 921 1023 l 257
 719 1023 l 257
227 1023 m 257
 227 822 l 257
 813 822 l 257
 813 1023 l 257
 227 1023 l 257
231 200 m 257
 231 0 l 257
 803 0 l 257
 803 200 l 257
 231 200 l 257
EndSplineSet
Substitution2: "Single Substitution lookup 11 subtable" ordmasculine
EndChar

StartChar: oe
Encoding: 485 339 485
GlifName: oe
Width: 1024
VWidth: 0
GlyphClass: 2
Flags: W
AnchorPoint: "top" 534 1132 basechar 0
AnchorPoint: "base" 558 -80 basechar 0
LayerCount: 2
Fore
SplineSet
597 645 m 257
 597 446 l 257
 824 446 l 257
 824 645 l 257
 597 645 l 257
799 1023 m 257
 799 445 l 257
 999 445 l 257
 999 1023 l 257
 799 1023 l 257
103 1023 m 257
 103 0 l 257
 303 0 l 257
 303 1023 l 257
 103 1023 l 257
451 1023 m 257
 451 0 l 257
 651 0 l 257
 651 1023 l 257
 451 1023 l 257
158 1023 m 257
 158 823 l 257
 859 823 l 257
 859 1023 l 257
 158 1023 l 257
149 200 m 257
 149 0 l 257
 999 0 l 257
 999 200 l 257
 149 200 l 257
EndSplineSet
EndChar

StartChar: ogonek
Encoding: 486 731 486
GlifName: ogonek
Width: 1024
VWidth: 0
GlyphClass: 2
Flags: W
LayerCount: 2
Fore
SplineSet
241 -274 m 257
 241 -392 l 257
 783 -392 l 257
 783 -274 l 257
 241 -274 l 257
241 14 m 257
 241 -392 l 257
 359 -392 l 257
 359 14 l 257
 241 14 l 257
241 14 m 257
 241 -107 l 257
 783 -107 l 257
 783 14 l 257
 241 14 l 257
EndSplineSet
EndChar

StartChar: omega
Encoding: 491 969 491
GlifName: omega
Width: 1024
VWidth: 0
GlyphClass: 2
Flags: W
LayerCount: 2
Fore
SplineSet
150 1023 m 257
 106 129 l 257
 305 129 l 257
 349 1023 l 257
 150 1023 l 257
662 1024 m 257
 722 127 l 257
 921 127 l 257
 861 1024 l 257
 662 1024 l 257
408 612 m 257
 408 140 l 257
 609 140 l 257
 609 612 l 257
 408 612 l 257
107 197 m 257
 102 2 l 257
 484 140 l 257
 484 340 l 257
 107 197 l 257
539 340 m 257
 539 140 l 257
 921 2 l 257
 921 197 l 257
 539 340 l 257
EndSplineSet
EndChar

StartChar: one
Encoding: 495 49 495
GlifName: one
Width: 1024
VWidth: 0
GlyphClass: 2
Flags: W
LayerCount: 2
Fore
SplineSet
412 0 m 257
 611 0 l 257
 611 1548 l 257
 412 1548 l 257
 412 0 l 257
416 1548 m 257
 218 1252 l 257
 368 1152 l 257
 566 1449 l 257
 416 1548 l 257
EndSplineSet
Substitution2: "sinfScientificInferiorsinLatinlookup3 subtable" uni2081
Substitution2: "supsSuperscriptinLatinlookup16 subtable" uni00B9
EndChar

StartChar: onequarter
Encoding: 498 188 498
GlifName: onequarter
Width: 1024
VWidth: 0
GlyphClass: 2
Flags: W
LayerCount: 2
Fore
SplineSet
79 10 m 257
 182 10 l 257
 79 10 l 257
873 7 m 257
 932 7 l 257
 873 7 l 257
EndSplineSet
Refer: 597 185 N 1 0 0 1 -284 357 2
Refer: 558 47 N 1 0 0 1 -124 -63 2
Refer: 1948 8324 N 1 0 0 1 253 18 2
Ligature2: "fracDiagonalFractionsinLatinlookup2 subtable" one fraction four
Ligature2: "fracDiagonalFractionsinLatinlookup2 subtable" one slash four
EndChar

StartChar: openbullet
Encoding: 500 9702 500
GlifName: whiteB_ullet
Width: 1024
VWidth: 0
GlyphClass: 2
Flags: W
LayerCount: 2
Fore
SplineSet
369 1023 m 257
 369 765 l 257
 654 765 l 257
 654 1023 l 257
 369 1023 l 257
397 997 m 257
 626 997 l 257
 626 791 l 257
 397 791 l 257
 397 997 l 257
EndSplineSet
EndChar

StartChar: ordfeminine
Encoding: 501 170 501
GlifName: ordfeminine
Width: 1024
VWidth: 0
GlyphClass: 2
Flags: W
LayerCount: 2
Fore
SplineSet
168 1538 m 257
 168 1338 l 257
 774 1338 l 257
 774 1538 l 257
 168 1538 l 257
661 1539 m 257
 661 515 l 257
 855 515 l 257
 855 1539 l 257
 661 1539 l 257
172 1113 m 257
 172 914 l 257
 796 914 l 257
 796 1113 l 257
 172 1113 l 257
172 1089 m 257
 172 512 l 257
 373 512 l 257
 373 1089 l 257
 172 1089 l 257
170 715 m 257
 170 515 l 257
 860 515 l 257
 860 715 l 257
 170 715 l 257
77 381 m 257
 77 219 l 257
 945 219 l 257
 945 381 l 257
 77 381 l 257
EndSplineSet
EndChar

StartChar: ordmasculine
Encoding: 502 186 502
GlifName: ordmasculine
Width: 1024
VWidth: 0
GlyphClass: 2
Flags: W
LayerCount: 2
Fore
SplineSet
96 1542 m 257
 96 519 l 257
 296 519 l 257
 296 1542 l 257
 96 1542 l 257
714 1542 m 257
 714 519 l 257
 914 519 l 257
 914 1542 l 257
 714 1542 l 257
157 1542 m 257
 157 1342 l 257
 858 1342 l 257
 858 1542 l 257
 157 1542 l 257
142 719 m 257
 142 519 l 257
 861 519 l 257
 861 719 l 257
 142 719 l 257
100 406 m 257
 100 239 l 257
 922 239 l 257
 922 406 l 257
 100 406 l 257
EndSplineSet
EndChar

StartChar: oslash
Encoding: 503 248 503
GlifName: oslash
Width: 1024
VWidth: 0
GlyphClass: 2
Flags: W
AnchorPoint: "top" 450 1110 basechar 0
AnchorPoint: "base" 482 -86 basechar 0
LayerCount: 2
Fore
SplineSet
837 1164 m 257
 9 -5 l 257
 171 -103 l 257
 1000 1066 l 257
 837 1164 l 257
104 1023 m 257
 104 0 l 257
 304 0 l 257
 304 1023 l 257
 104 1023 l 257
719 1023 m 257
 719 0 l 257
 921 0 l 257
 921 1023 l 257
 719 1023 l 257
227 1023 m 257
 227 822 l 257
 813 822 l 257
 813 1023 l 257
 227 1023 l 257
231 200 m 257
 231 0 l 257
 803 0 l 257
 803 200 l 257
 231 200 l 257
EndSplineSet
EndChar

StartChar: uni0223
Encoding: 506 547 506
GlifName: ou
Width: 1024
VWidth: 0
GlyphClass: 2
Flags: W
LayerCount: 2
Fore
SplineSet
115 1552 m 257
 115 911 l 257
 315 911 l 257
 315 1552 l 257
 115 1552 l 257
727 1552 m 257
 724 915 l 257
 924 915 l 257
 927 1552 l 257
 727 1552 l 257
102 779 m 257
 100 581 l 257
 944 578 l 257
 942 783 l 257
 102 779 l 257
102 779 m 257
 95 24 l 257
 299 24 l 257
 299 779 l 257
 102 779 l 257
743 780 m 257
 749 0 l 257
 951 3 l 257
 942 783 l 257
 743 780 l 257
94 200 m 257
 92 0 l 257
 942 0 l 257
 942 200 l 257
 94 200 l 257
942 783 m 257
 113 1143 l 257
 117 910 l 257
 944 578 l 257
 942 783 l 257
101 581 m 257
 924 915 l 257
 919 1139 l 257
 102 780 l 257
 101 581 l 257
EndSplineSet
EndChar

StartChar: p
Encoding: 507 112 507
GlifName: p
Width: 1024
VWidth: 0
GlyphClass: 2
Flags: W
AnchorPoint: "base" 270 -468 basechar 0
AnchorPoint: "top" 268 1322 basechar 0
LayerCount: 2
Fore
SplineSet
173 1203 m 257
 173 -406 l 257
 373 -406 l 257
 373 1203 l 257
 173 1203 l 257
271 1023 m 257
 271 821 l 257
 810 821 l 257
 810 1023 l 257
 271 1023 l 257
275 202 m 257
 275 0 l 257
 815 0 l 257
 815 202 l 257
 275 202 l 257
613 876 m 257
 613 175 l 257
 811 175 l 257
 811 876 l 257
 613 876 l 257
EndSplineSet
EndChar

StartChar: paragraph
Encoding: 508 182 508
GlifName: paragraph
Width: 1024
VWidth: 0
GlyphClass: 2
Flags: W
LayerCount: 2
Fore
SplineSet
36 1130 m 257
 36 985 l 257
 601 985 l 257
 601 1130 l 257
 36 1130 l 257
36 1548 m 257
 36 1000 l 257
 196 1000 l 257
 196 1548 l 257
 36 1548 l 257
36 1548 m 257
 36 1435 l 257
 856 1435 l 257
 856 1548 l 257
 36 1548 l 257
506 1548 m 257
 506 0 l 257
 651 0 l 257
 651 1548 l 257
 506 1548 l 257
776 1548 m 257
 776 0 l 257
 881 0 l 257
 881 1548 l 257
 776 1548 l 257
EndSplineSet
EndChar

StartChar: parenleft
Encoding: 509 40 509
GlifName: parenleft
Width: 1024
VWidth: 0
GlyphClass: 2
Flags: W
LayerCount: 2
Fore
SplineSet
324 1023 m 257
 324 179 l 257
 514 179 l 257
 514 1023 l 257
 324 1023 l 257
642 1633 m 257
 324 1028 l 257
 512 1028 l 257
 672 1640 l 257
 642 1633 l 257
324 179 m 257
 668 -406 l 257
 700 -406 l 257
 514 179 l 257
 324 179 l 257
EndSplineSet
EndChar

StartChar: parenright
Encoding: 510 41 510
GlifName: parenright
Width: 1024
VWidth: 0
GlyphClass: 2
Flags: W
LayerCount: 2
Fore
SplineSet
488 1023 m 257
 488 179 l 257
 678 179 l 257
 678 1023 l 257
 488 1023 l 257
346 1629 m 257
 488 1023 l 257
 678 1023 l 257
 384 1629 l 257
 346 1629 l 257
488 179 m 257
 346 -406 l 257
 374 -406 l 257
 678 179 l 257
 488 179 l 257
EndSplineSet
EndChar

StartChar: partialdiff
Encoding: 511 8706 511
GlifName: partialdiff
Width: 1024
VWidth: 0
GlyphClass: 2
Flags: W
LayerCount: 2
Fore
SplineSet
241 1548 m 257
 692 0 l 257
 893 0 l 257
 442 1548 l 257
 241 1548 l 257
228 1023 m 257
 228 822 l 257
 569 822 l 257
 569 1023 l 257
 228 1023 l 257
132 1023 m 257
 132 0 l 257
 333 0 l 257
 333 1023 l 257
 132 1023 l 257
228 195 m 257
 228 0 l 257
 835 0 l 257
 835 195 l 257
 228 195 l 257
85 1540 m 257
 85 1353 l 257
 285 1362 l 257
 285 1549 l 257
 85 1540 l 257
EndSplineSet
EndChar

StartChar: percent
Encoding: 512 37 512
GlifName: percent
Width: 1024
VWidth: 0
GlyphClass: 2
Flags: W
LayerCount: 2
Fore
SplineSet
78 522 m 257
 122 377 l 257
 946 716 l 257
 902 860 l 257
 78 522 l 257
218 1148 m 257
 218 822 l 257
 296 822 l 257
 296 1148 l 257
 218 1148 l 257
218 1152 m 257
 218 1057 l 257
 566 1057 l 257
 566 1152 l 257
 218 1152 l 257
218 871 m 257
 218 789 l 257
 562 789 l 257
 562 871 l 257
 218 871 l 257
474 1152 m 257
 474 791 l 257
 566 791 l 257
 566 1152 l 257
 474 1152 l 257
546 436 m 257
 546 110 l 257
 624 110 l 257
 624 436 l 257
 546 436 l 257
546 440 m 257
 546 345 l 257
 892 345 l 257
 892 440 l 257
 546 440 l 257
546 159 m 257
 546 77 l 257
 890 77 l 257
 890 159 l 257
 546 159 l 257
800 440 m 257
 800 79 l 257
 892 79 l 257
 892 440 l 257
 800 440 l 257
EndSplineSet
EndChar

StartChar: period
Encoding: 513 46 513
GlifName: period
Width: 1024
VWidth: 0
GlyphClass: 2
Flags: W
LayerCount: 2
Fore
SplineSet
380 246 m 257
 380 0 l 257
 644 0 l 257
 644 246 l 257
 380 246 l 257
EndSplineSet
EndChar

StartChar: periodcentered
Encoding: 514 183 514
GlifName: periodcentered
Width: 1024
VWidth: 0
GlyphClass: 2
Flags: W
LayerCount: 2
Fore
SplineSet
379 1146 m 257
 379 899 l 257
 644 899 l 257
 644 1146 l 257
 379 1146 l 257
EndSplineSet
EndChar

StartChar: perthousand
Encoding: 515 8240 515
GlifName: perthousand
Width: 1024
VWidth: 0
GlyphClass: 2
Flags: W
LayerCount: 2
Fore
SplineSet
632 436 m 257
 632 110 l 257
 710 110 l 257
 710 436 l 257
 632 436 l 257
632 440 m 257
 632 345 l 257
 978 345 l 257
 978 440 l 257
 632 440 l 257
632 159 m 257
 632 77 l 257
 976 77 l 257
 976 159 l 257
 632 159 l 257
886 440 m 257
 886 79 l 257
 978 79 l 257
 978 440 l 257
 886 440 l 257
-14 522 m 257
 28 377 l 257
 852 716 l 257
 808 860 l 257
 -14 522 l 257
126 1148 m 257
 126 822 l 257
 204 822 l 257
 204 1148 l 257
 126 1148 l 257
126 1152 m 257
 126 1057 l 257
 472 1057 l 257
 472 1152 l 257
 126 1152 l 257
126 871 m 257
 126 789 l 257
 470 789 l 257
 470 871 l 257
 126 871 l 257
380 1152 m 257
 380 791 l 257
 472 791 l 257
 472 1152 l 257
 380 1152 l 257
230 436 m 257
 230 110 l 257
 308 110 l 257
 308 436 l 257
 230 436 l 257
230 440 m 257
 230 345 l 257
 578 345 l 257
 578 440 l 257
 230 440 l 257
230 159 m 257
 230 77 l 257
 574 77 l 257
 574 159 l 257
 230 159 l 257
486 440 m 257
 486 79 l 257
 578 79 l 257
 578 440 l 257
 486 440 l 257
EndSplineSet
EndChar

StartChar: peseta
Encoding: 516 8359 516
GlifName: peseta
Width: 1024
VWidth: 0
GlyphClass: 2
Flags: W
LayerCount: 2
Fore
SplineSet
220 1548 m 257
 220 0 l 257
 291 0 l 257
 291 1548 l 257
 220 1548 l 257
250 1548 m 257
 250 1346 l 257
 492 1346 l 257
 492 1548 l 257
 250 1548 l 257
426 1548 m 257
 426 881 l 257
 499 881 l 257
 499 1548 l 257
 426 1548 l 257
244 1068 m 257
 244 868 l 257
 498 868 l 257
 498 1068 l 257
 244 1068 l 257
596 1548 m 257
 596 0 l 257
 662 0 l 257
 662 1548 l 257
 596 1548 l 257
599 198 m 257
 599 0 l 257
 728 0 l 257
 728 198 l 257
 599 198 l 257
518 1009 m 257
 518 813 l 257
 740 813 l 257
 740 1009 l 257
 518 1009 l 257
778 609 m 257
 778 491 l 257
 933 491 l 257
 933 609 l 257
 778 609 l 257
778 609 m 257
 778 438 l 257
 829 438 l 257
 829 609 l 257
 778 609 l 257
779 118 m 257
 779 0 l 257
 932 0 l 257
 932 118 l 257
 779 118 l 257
881 173 m 257
 881 5 l 257
 932 5 l 257
 932 173 l 257
 881 173 l 257
779 438 m 257
 881 173 l 257
 932 173 l 257
 829 438 l 257
 779 438 l 257
EndSplineSet
EndChar

StartChar: phi
Encoding: 517 966 517
GlifName: phi
Width: 1024
VWidth: 0
GlyphClass: 2
Flags: W
LayerCount: 2
Fore
SplineSet
104 1023 m 257
 104 0 l 257
 304 0 l 257
 304 1023 l 257
 104 1023 l 257
719 1023 m 257
 719 0 l 257
 921 0 l 257
 921 1023 l 257
 719 1023 l 257
227 1023 m 257
 227 822 l 257
 813 822 l 257
 813 1023 l 257
 227 1023 l 257
231 200 m 257
 231 0 l 257
 803 0 l 257
 803 200 l 257
 231 200 l 257
411 1202 m 257
 411 -413 l 257
 613 -413 l 257
 613 1202 l 257
 411 1202 l 257
EndSplineSet
EndChar

StartChar: phi1
Encoding: 518 981 518
GlifName: phiS_ymbol
Width: 1024
VWidth: 0
GlyphClass: 2
Flags: W
LayerCount: 2
Fore
SplineSet
71 1110 m 257
 71 25 l 257
 271 25 l 257
 271 1110 l 257
 71 1110 l 257
71 201 m 257
 71 1 l 257
 886 1 l 257
 886 201 l 257
 71 201 l 257
775 1098 m 257
 775 0 l 257
 975 0 l 257
 975 1098 l 257
 775 1098 l 257
468 1098 m 257
 468 898 l 257
 975 898 l 257
 975 1098 l 257
 468 1098 l 257
451 1098 m 257
 451 -503 l 257
 651 -503 l 257
 651 1098 l 257
 451 1098 l 257
EndSplineSet
EndChar

StartChar: pi
Encoding: 519 960 519
GlifName: pi
Width: 1024
VWidth: 0
GlyphClass: 2
Flags: W
LayerCount: 2
Fore
SplineSet
200 990 m 257
 188 0 l 257
 389 0 l 257
 401 990 l 257
 200 990 l 257
599 976 m 257
 587 0 l 257
 788 0 l 257
 800 976 l 257
 599 976 l 257
79.5273 1023 m 257
 77.0945 826 l 257
 939 826 l 257
 942 1023 l 257
 79.5273 1023 l 257
EndSplineSet
EndChar

StartChar: plus
Encoding: 520 43 520
GlifName: plus
Width: 1024
VWidth: 0
GlyphClass: 2
Flags: W
LayerCount: 2
Fore
SplineSet
384 1221 m 257
 384 165 l 257
 609 165 l 257
 609 1221 l 257
 384 1221 l 257
61 821 m 257
 61 613 l 257
 963 613 l 257
 963 821 l 257
 61 821 l 257
EndSplineSet
EndChar

StartChar: plusminus
Encoding: 521 177 521
GlifName: plusminus
Width: 1024
VWidth: 0
GlyphClass: 2
Flags: W
LayerCount: 2
Fore
SplineSet
99 108 m 257
 99 -100 l 257
 925 -100 l 257
 925 108 l 257
 99 108 l 257
384 1221 m 257
 384 165 l 257
 609 165 l 257
 609 1221 l 257
 384 1221 l 257
61 821 m 257
 61 613 l 257
 963 613 l 257
 963 821 l 257
 61 821 l 257
EndSplineSet
EndChar

StartChar: product
Encoding: 523 8719 523
GlifName: product
Width: 1024
VWidth: 0
GlyphClass: 2
Flags: W
LayerCount: 2
Fore
SplineSet
133 1537 m 257
 133 0 l 257
 334 0 l 257
 334 1537 l 257
 133 1537 l 257
707 1537 m 257
 707 0 l 257
 910 0 l 257
 910 1537 l 257
 707 1537 l 257
56 1537 m 257
 56 1337 l 257
 982 1337 l 257
 982 1537 l 257
 56 1537 l 257
EndSplineSet
EndChar

StartChar: psi
Encoding: 524 968 524
GlifName: psi
Width: 1024
VWidth: 0
GlyphClass: 2
Flags: W
LayerCount: 2
Fore
SplineSet
427 1015 m 257
 411 -129 l 257
 613 -129 l 257
 629 1015 l 257
 427 1015 l 257
179 1020 m 257
 170 278 l 257
 370 278 l 257
 379 1020 l 257
 179 1020 l 257
684 1020 m 257
 675 278 l 257
 874 278 l 257
 883 1020 l 257
 684 1020 l 257
240 478 m 257
 238 278 l 257
 784 278 l 257
 786 478 l 257
 240 478 l 257
EndSplineSet
EndChar

StartChar: q
Encoding: 525 113 525
GlifName: q
Width: 1024
VWidth: 0
GlyphClass: 2
Flags: W
AnchorPoint: "top" 738 1300 basechar 0
AnchorPoint: "base" 758 -496 basechar 0
LayerCount: 2
Fore
SplineSet
662 1201 m 257
 662 -406 l 257
 861 -406 l 257
 861 1201 l 257
 662 1201 l 257
189 1023 m 257
 189 823 l 257
 838 823 l 257
 838 1023 l 257
 189 1023 l 257
190 203 m 257
 190 0 l 257
 806 0 l 257
 806 203 l 257
 190 203 l 257
188 855 m 257
 188 107 l 257
 388 107 l 257
 388 855 l 257
 188 855 l 257
701 -268 m 257
 701 -406 l 257
 937 -406 l 257
 937 -268 l 257
 701 -268 l 257
EndSplineSet
EndChar

StartChar: question
Encoding: 526 63 526
GlifName: question
Width: 1024
VWidth: 0
GlyphClass: 2
Flags: W
LayerCount: 2
Fore
SplineSet
368 247 m 257
 368 0 l 257
 614 0 l 257
 614 247 l 257
 368 247 l 257
192 1519 m 257
 192 1333 l 257
 828 1333 l 257
 828 1519 l 257
 192 1519 l 257
638 1514 m 257
 638 966 l 257
 832 966 l 257
 832 1514 l 257
 638 1514 l 257
368 1015 m 257
 368 816 l 257
 832 816 l 257
 832 1015 l 257
 368 1015 l 257
368 1011 m 257
 368 392 l 257
 616 392 l 257
 616 1011 l 257
 368 1011 l 257
EndSplineSet
EndChar

StartChar: questiondown
Encoding: 527 191 527
GlifName: questiondown
Width: 1024
VWidth: 0
GlyphClass: 2
Flags: W
LayerCount: 2
Fore
SplineSet
655 1273 m 257
 655 1519 l 257
 405 1519 l 257
 405 1272 l 257
 655 1273 l 257
832 0 m 257
 832 186 l 257
 195 186 l 257
 195 0 l 257
 832 0 l 257
385 5 m 257
 385 553 l 257
 191 553 l 257
 191 5 l 257
 385 5 l 257
655 504 m 257
 655 703 l 257
 191 703 l 257
 191 504 l 257
 655 504 l 257
655 508 m 257
 655 1127 l 257
 407 1127 l 257
 407 508 l 257
 655 508 l 257
EndSplineSet
EndChar

StartChar: quotedbl
Encoding: 528 34 528
GlifName: quotedbl
Width: 1024
VWidth: 0
GlyphClass: 2
Flags: W
LayerCount: 2
Fore
SplineSet
240 1326 m 257
 384 1326 l 257
 384 1574 l 257
 240 1574 l 257
 240 1326 l 257
640 1326 m 257
 784 1326 l 257
 784 1574 l 257
 640 1574 l 257
 640 1326 l 257
EndSplineSet
EndChar

StartChar: quotedblbase
Encoding: 529 8222 529
GlifName: quotedblbase
Width: 1024
VWidth: 0
GlyphClass: 2
Flags: W
LayerCount: 2
Fore
SplineSet
198 237 m 257
 198 8 l 257
 446 8 l 257
 446 237 l 257
 198 237 l 257
297 135 m 257
 179 -146 l 257
 322 -206 l 257
 444 0 l 257
 297 135 l 257
597 237 m 257
 597 8 l 257
 845 8 l 257
 845 237 l 257
 597 237 l 257
696 135 m 257
 578 -146 l 257
 721 -206 l 257
 843 0 l 257
 696 135 l 257
EndSplineSet
EndChar

StartChar: quotedblleft
Encoding: 530 8220 530
GlifName: quotedblleft
Width: 1024
VWidth: 0
GlyphClass: 2
Flags: W
LayerCount: 2
Fore
SplineSet
458 1194 m 257
 458 1423 l 257
 210 1423 l 257
 210 1194 l 257
 458 1194 l 257
360 1296 m 257
 478 1577 l 257
 334 1637 l 257
 212 1427 l 257
 360 1296 l 257
794 1194 m 257
 794 1423 l 257
 546 1423 l 257
 546 1194 l 257
 794 1194 l 257
696 1296 m 257
 814 1577 l 257
 670 1637 l 257
 548 1427 l 257
 696 1296 l 257
EndSplineSet
EndChar

StartChar: quotedblright
Encoding: 531 8221 531
GlifName: quotedblright
Width: 1024
VWidth: 0
GlyphClass: 2
Flags: W
LayerCount: 2
Fore
SplineSet
556 1645 m 257
 556 1416 l 257
 804 1416 l 257
 804 1645 l 257
 556 1645 l 257
656 1543 m 257
 538 1262 l 257
 680 1202 l 257
 802 1412 l 257
 656 1543 l 257
238 1645 m 257
 238 1416 l 257
 486 1416 l 257
 486 1645 l 257
 238 1645 l 257
338 1543 m 257
 220 1262 l 257
 362 1202 l 257
 484 1412 l 257
 338 1543 l 257
EndSplineSet
EndChar

StartChar: quoteleft
Encoding: 532 8216 532
GlifName: quoteleft
Width: 1024
VWidth: 0
GlyphClass: 2
Flags: W
LayerCount: 2
Fore
SplineSet
626 1210 m 257
 626 1439 l 257
 378 1439 l 257
 378 1210 l 257
 626 1210 l 257
528 1312 m 257
 646 1593 l 257
 502 1653 l 257
 380 1443 l 257
 528 1312 l 257
EndSplineSet
EndChar

StartChar: quoteright
Encoding: 533 8217 533
GlifName: quoteright
Width: 1024
VWidth: 0
GlyphClass: 2
Flags: W
LayerCount: 2
Fore
SplineSet
398 1641 m 257
 398 1412 l 257
 646 1412 l 257
 646 1641 l 257
 398 1641 l 257
496 1539 m 257
 378 1258 l 257
 522 1198 l 257
 644 1408 l 257
 496 1539 l 257
EndSplineSet
EndChar

StartChar: quotesinglbase
Encoding: 534 8218 534
GlifName: quotesinglbase
Width: 1024
VWidth: 0
GlyphClass: 2
Flags: W
LayerCount: 2
Fore
SplineSet
398 237 m 257
 398 8 l 257
 646 8 l 257
 646 237 l 257
 398 237 l 257
496 135 m 257
 378 -146 l 257
 522 -206 l 257
 644 0 l 257
 496 135 l 257
EndSplineSet
EndChar

StartChar: quotesingle
Encoding: 535 39 535
GlifName: quotesingle
Width: 1024
VWidth: 0
GlyphClass: 2
Flags: W
LayerCount: 2
Fore
SplineSet
447 1496 m 257
 447 1264 l 257
 577 1264 l 257
 577 1496 l 257
 447 1496 l 257
EndSplineSet
EndChar

StartChar: r
Encoding: 536 114 536
GlifName: r
Width: 1024
VWidth: 0
GlyphClass: 2
Flags: W
AnchorPoint: "top" 504 1174 basechar 0
AnchorPoint: "base" 500 -70 basechar 0
LayerCount: 2
Fore
SplineSet
165 1023 m 257
 165 821 l 257
 898 821 l 257
 898 1023 l 257
 165 1023 l 257
380 954 m 257
 380 0 l 257
 580 0 l 257
 580 954 l 257
 380 954 l 257
698 976 m 257
 698 650 l 257
 898 650 l 257
 898 976 l 257
 698 976 l 257
EndSplineSet
EndChar

StartChar: radical
Encoding: 538 8730 538
GlifName: radical
Width: 1024
VWidth: 0
GlyphClass: 2
Flags: W
LayerCount: 2
Fore
SplineSet
700 1390 m 257
 504 117 l 257
 688 117 l 257
 884 1390 l 257
 700 1390 l 257
184 620 m 257
 110 396 l 257
 206 317 l 257
 389 675 l 257
 184 620 l 257
194 621 m 257
 504 117 l 257
 688 117 l 257
 392 679 l 257
 194 621 l 257
EndSplineSet
PickledDataWithLists: "(dp0
."
EndChar

StartChar: registered
Encoding: 541 174 541
GlifName: registered
Width: 1024
VWidth: 0
GlyphClass: 2
Flags: W
LayerCount: 2
Fore
SplineSet
389 1032 m 257
 389 501 l 257
 457 501 l 257
 457 1032 l 257
 389 1032 l 257
414 1032 m 257
 414 963 l 257
 643 963 l 257
 643 1032 l 257
 414 1032 l 257
583 1032 m 257
 583 802 l 257
 652 802 l 257
 652 1032 l 257
 583 1032 l 257
410 875 m 257
 410 801 l 257
 648 801 l 257
 648 875 l 257
 410 875 l 257
457 809 m 257
 596 500 l 257
 679 500 l 257
 527 809 l 257
 457 809 l 257
33 1537 m 257
 33 0 l 257
 234 0 l 257
 234 1537 l 257
 33 1537 l 257
772 1537 m 257
 772 0 l 257
 975 0 l 257
 975 1537 l 257
 772 1537 l 257
174 1537 m 257
 174 1337 l 257
 817 1337 l 257
 817 1537 l 257
 174 1537 l 257
150 204 m 257
 150 0 l 257
 823 0 l 257
 823 204 l 257
 150 204 l 257
EndSplineSet
EndChar

StartChar: rho
Encoding: 542 961 542
GlifName: rho
Width: 1024
VWidth: 0
GlyphClass: 2
Flags: W
LayerCount: 2
Fore
SplineSet
173 1203 m 257
 173 -406 l 257
 373 -406 l 257
 373 1203 l 257
 173 1203 l 257
271 1203 m 257
 271 1001 l 257
 810 821 l 257
 810 1023 l 257
 271 1203 l 257
275 202 m 257
 275 0 l 257
 815 147 l 257
 815 349 l 257
 275 202 l 257
613 876 m 257
 613 266 l 257
 811 266 l 257
 811 876 l 257
 613 876 l 257
EndSplineSet
EndChar

StartChar: ring
Encoding: 543 730 543
GlifName: ring
Width: 1024
VWidth: 0
GlyphClass: 2
Flags: W
LayerCount: 2
Fore
SplineSet
467 1756 m 257
 615 1756 l 257
 615 1626 l 257
 467 1626 l 257
 467 1756 l 257
362 1847 m 257
 362 1537 l 257
 722 1537 l 257
 722 1847 l 257
 362 1847 l 257
EndSplineSet
EndChar

StartChar: s
Encoding: 544 115 544
GlifName: s
Width: 1024
VWidth: 0
GlyphClass: 2
Flags: W
AnchorPoint: "top" 472 1134 basechar 0
AnchorPoint: "base" 512 -66 basechar 0
LayerCount: 2
Fore
SplineSet
186 1023 m 257
 186 826 l 257
 795 826 l 257
 795 1023 l 257
 186 1023 l 257
186 1023 m 257
 186 736 l 257
 386 736 l 257
 386 1023 l 257
 186 1023 l 257
187 201 m 257
 187 0 l 257
 792 0 l 257
 792 201 l 257
 187 201 l 257
591 293 m 257
 591 12 l 257
 791 12 l 257
 791 293 l 257
 591 293 l 257
187 736 m 257
 591 293 l 257
 791 293 l 257
 387 736 l 257
 187 736 l 257
EndSplineSet
EndChar

StartChar: section
Encoding: 551 167 551
GlifName: section
Width: 1024
VWidth: 0
GlyphClass: 2
Flags: W
LayerCount: 2
Fore
SplineSet
146 1238 m 257
 146 1035 l 257
 744 1035 l 257
 744 1238 l 257
 146 1238 l 257
146 1241 m 257
 146 605 l 257
 348 605 l 257
 348 1241 l 257
 146 1241 l 257
183 -61 m 257
 183 -260 l 257
 891 -260 l 257
 891 -61 l 257
 183 -61 l 257
726 -259 m 257
 927 -259 l 257
 927 95 l 257
 726 95 l 257
 726 -259 l 257
146 605 m 257
 726 95 l 257
 927 95 l 257
 348 605 l 257
 146 605 l 257
146 1626 m 257
 146 1423 l 257
 744 1423 l 257
 744 1626 l 257
 146 1626 l 257
146 1629 m 257
 146 1237 l 257
 348 1237 l 257
 348 1629 l 257
 146 1629 l 257
174 286 m 257
 174 87 l 257
 882 87 l 257
 882 286 l 257
 174 286 l 257
717 88 m 257
 918 88 l 257
 918 442 l 257
 717 442 l 257
 717 88 l 257
146 1237 m 257
 717 442 l 257
 918 442 l 257
 348 1237 l 257
 146 1237 l 257
EndSplineSet
EndChar

StartChar: semicolon
Encoding: 552 59 552
GlifName: semicolon
Width: 1024
VWidth: 0
GlyphClass: 2
Flags: W
LayerCount: 2
Fore
SplineSet
400 240 m 257
 400 11 l 257
 648 11 l 257
 648 240 l 257
 400 240 l 257
498 138 m 257
 380 -143 l 257
 524 -203 l 257
 646 7 l 257
 498 138 l 257
376 773 m 257
 376 526 l 257
 642 526 l 257
 642 773 l 257
 376 773 l 257
EndSplineSet
EndChar

StartChar: seven
Encoding: 553 55 553
GlifName: seven
Width: 1024
VWidth: 0
GlyphClass: 2
Flags: W
LayerCount: 2
Fore
SplineSet
54 1355 m 257
 764 1355 l 257
 764 0 l 257
 967 0 l 257
 967 1557 l 257
 54 1557 l 257
 54 1355 l 257
EndSplineSet
Substitution2: "sinfScientificInferiorsinLatinlookup3 subtable" uni2087
Substitution2: "supsSuperscriptinLatinlookup16 subtable" uni2077
EndChar

StartChar: sigma
Encoding: 555 963 555
GlifName: sigma
Width: 1024
VWidth: 0
GlyphClass: 2
Flags: W
LayerCount: 2
Fore
SplineSet
51 1023 m 257
 38 0 l 257
 238 0 l 257
 251 1023 l 257
 51 1023 l 257
608 1023 m 257
 595 0 l 257
 797 0 l 257
 810 1023 l 257
 608 1023 l 257
174 1023 m 257
 171 822 l 257
 979 822 l 257
 982 1023 l 257
 174 1023 l 257
167 200 m 257
 165 0 l 257
 737 0 l 257
 739 200 l 257
 167 200 l 257
EndSplineSet
EndChar

StartChar: sigma1
Encoding: 556 962 556
GlifName: sigmafinal
Width: 1024
VWidth: 0
GlyphClass: 2
Flags: W
LayerCount: 2
Fore
SplineSet
164 1023 m 257
 164 823 l 257
 860 823 l 257
 860 1023 l 257
 164 1023 l 257
166 984 m 257
 166 51 l 257
 366 53 l 257
 366 986 l 257
 166 984 l 257
203 253 m 257
 203 53 l 257
 857 51 l 257
 857 251 l 257
 203 253 l 257
463 -124 m 257
 463 -324 l 257
 857 -324 l 257
 857 -124 l 257
 463 -124 l 257
657 100 m 257
 657 -284 l 257
 857 -284 l 257
 857 100 l 257
 657 100 l 257
EndSplineSet
EndChar

StartChar: six
Encoding: 557 54 557
GlifName: six
Width: 1024
VWidth: 0
GlyphClass: 2
Flags: W
LayerCount: 2
Fore
SplineSet
41 1548 m 257
 41 201 l 257
 41 0 l 257
 980 0 l 257
 980 959 l 257
 244 959 l 257
 244 1348 l 257
 985 1348 l 257
 985 1548 l 257
 41 1548 l 257
772 759 m 257
 772 203 l 257
 250 203 l 257
 250 759 l 257
 772 759 l 257
EndSplineSet
Substitution2: "sinfScientificInferiorsinLatinlookup3 subtable" uni2086
Substitution2: "supsSuperscriptinLatinlookup16 subtable" uni2076
EndChar

StartChar: slash
Encoding: 558 47 558
GlifName: slash
Width: 1024
VWidth: 0
GlyphClass: 2
Flags: W
LayerCount: 2
Fore
SplineSet
703 1483 m 257
 133 6 l 257
 321 -67 l 257
 891 1410 l 257
 703 1483 l 257
EndSplineSet
EndChar

StartChar: sterling
Encoding: 560 163 560
GlifName: sterling
Width: 1024
VWidth: 0
GlyphClass: 2
Flags: W
LayerCount: 2
Fore
SplineSet
381 1543 m 257
 381 1344 l 257
 672 1344 l 257
 672 1543 l 257
 381 1543 l 257
54 770 m 257
 54 571 l 257
 780 571 l 257
 780 770 l 257
 54 770 l 257
337 1542 m 257
 337 0 l 257
 535 0 l 257
 535 1542 l 257
 337 1542 l 257
162 202 m 257
 162 0 l 257
 888 0 l 257
 888 202 l 257
 162 202 l 257
EndSplineSet
EndChar

StartChar: summation
Encoding: 561 8721 561
GlifName: summation
Width: 1024
VWidth: 0
GlyphClass: 2
Flags: W
LayerCount: 2
Fore
SplineSet
704 830 m 257
 110 112 l 257
 110 -112 l 257
 704 627 l 257
 704 830 l 257
706 823 m 257
 128 1539 l 257
 129 1338 l 257
 706 624 l 257
 706 823 l 257
850 1337 m 257
 850 1537 l 257
 128 1537 l 257
 128 1337 l 257
 850 1337 l 257
788 -98 m 257
 788 108 l 257
 125 108 l 257
 125 -98 l 257
 788 -98 l 257
EndSplineSet
EndChar

StartChar: t
Encoding: 562 116 562
GlifName: t
Width: 1024
VWidth: 0
GlyphClass: 2
Flags: W
AnchorPoint: "top" 500 1642 basechar 0
AnchorPoint: "base" 500 -82 basechar 0
LayerCount: 2
Fore
SplineSet
410 1548 m 257
 410 0 l 257
 610 0 l 257
 610 1548 l 257
 410 1548 l 257
418 199 m 257
 418 0 l 257
 809 0 l 257
 809 199 l 257
 418 199 l 257
174 1023 m 257
 174 824 l 257
 848 824 l 257
 848 1023 l 257
 174 1023 l 257
EndSplineSet
EndChar

StartChar: tcaron
Encoding: 565 357 565
GlifName: tcaron
Width: 1024
VWidth: 0
GlyphClass: 2
Flags: W
AnchorPoint: "base" 512 -78 basechar 0
LayerCount: 2
Fore
SplineSet
342 1529 m 257
 342 0 l 257
 543 0 l 257
 543 1529 l 257
 342 1529 l 257
495 199 m 257
 495 0 l 257
 886 0 l 257
 886 199 l 257
 495 199 l 257
70 1023 m 257
 70 824 l 257
 849 824 l 257
 849 1023 l 257
 70 1023 l 257
672 1496 m 257
 672 1291 l 257
 802 1291 l 257
 802 1496 l 257
 672 1496 l 257
EndSplineSet
EndChar

StartChar: theta
Encoding: 568 952 568
GlifName: theta
Width: 1024
VWidth: 0
GlyphClass: 2
Flags: W
LayerCount: 2
Fore
SplineSet
242 908 m 257
 242 708 l 257
 852 701 l 257
 852 901 l 257
 242 908 l 257
295 1276 m 257
 492 1359 l 257
 730 1282 l 257
 730 301 l 257
 486 208 l 257
 295 301 l 257
 295 1276 l 257
93 1425 m 257
 93 163 l 257
 502 7 l 257
 930 163 l 257
 930 1431 l 257
 473 1559 l 257
 93 1425 l 257
EndSplineSet
EndChar

StartChar: thorn
Encoding: 570 254 570
GlifName: thorn
Width: 1024
VWidth: 0
GlyphClass: 2
Flags: W
AnchorPoint: "base" 265 -491 basechar 0
LayerCount: 2
Fore
SplineSet
173 1630 m 257
 173 -406 l 257
 373 -406 l 257
 373 1630 l 257
 173 1630 l 257
360 1012 m 257
 360 813 l 257
 916 813 l 257
 916 1012 l 257
 360 1012 l 257
368 204 m 257
 368 3 l 257
 914 3 l 257
 914 204 l 257
 368 204 l 257
716 942 m 257
 716 94 l 257
 914 94 l 257
 914 942 l 257
 716 942 l 257
EndSplineSet
EndChar

StartChar: three
Encoding: 571 51 571
GlifName: three
Width: 1024
VWidth: 0
GlyphClass: 2
Flags: W
LayerCount: 2
Fore
SplineSet
101 736 m 257
 759 736 l 257
 759 192 l 257
 59 192 l 257
 59 -8 l 257
 963 -8 l 257
 963 1553 l 257
 89 1553 l 257
 89 1353 l 257
 757 1353 l 257
 757 936 l 257
 101 936 l 257
 101 736 l 257
EndSplineSet
Substitution2: "sinfScientificInferiorsinLatinlookup3 subtable" uni2083
Substitution2: "supsSuperscriptinLatinlookup16 subtable" uni00B3
EndChar

StartChar: tilde
Encoding: 574 732 574
GlifName: tilde
Width: 1024
VWidth: 0
GlyphClass: 2
Flags: W
LayerCount: 2
Fore
SplineSet
359 1607 m 257
 359 1528 l 257
 639 1479 l 257
 639 1558 l 257
 359 1607 l 257
169 1560 m 257
 181 1482 l 257
 359 1528 l 257
 359 1607 l 257
 169 1560 l 257
639 1558 m 257
 639 1479 l 257
 784 1592 l 257
 765 1668 l 257
 639 1558 l 257
EndSplineSet
EndChar

StartChar: tildecomb
Encoding: 575 771 575
GlifName: tildecomb
Width: 0
VWidth: 0
GlyphClass: 4
Flags: W
AnchorPoint: "top" -6 778 mark 0
LayerCount: 2
Fore
SplineSet
-194 994 m 257
 -194 895 l 257
 156 834 l 257
 156 933 l 257
 -194 994 l 257
-432 936 m 257
 -417 838 l 257
 -194 895 l 257
 -194 994 l 257
 -432 936 l 257
156 933 m 257
 156 834 l 257
 337 975 l 257
 313 1071 l 257
 156 933 l 257
EndSplineSet
EndChar

StartChar: tonos
Encoding: 576 900 576
GlifName: tonos
Width: 1024
VWidth: 0
GlyphClass: 2
Flags: W
AnchorPoint: "top" -1 785 mark 0
LayerCount: 2
Fore
SplineSet
552 1080 m 257
 297 826 l 257
 470 780 l 257
 727 1035 l 257
 552 1080 l 257
EndSplineSet
EndChar

StartChar: triagdn
Encoding: 578 9660 578
GlifName: downB_lackT_riangle
Width: 1024
VWidth: 0
GlyphClass: 2
Flags: W
LayerCount: 2
Fore
SplineSet
507 332 m 257
 923 1021 l 257
 99 1024 l 257
 507 332 l 257
EndSplineSet
EndChar

StartChar: triagup
Encoding: 579 9650 579
GlifName: upB_lackT_riangle
Width: 1024
VWidth: 0
GlyphClass: 2
Flags: W
LayerCount: 2
Fore
SplineSet
512 1024 m 257
 99 354 l 257
 920 332 l 257
 512 1024 l 257
EndSplineSet
EndChar

StartChar: two
Encoding: 580 50 580
GlifName: two
Width: 1024
VWidth: 0
GlyphClass: 2
Flags: W
LayerCount: 2
Fore
SplineSet
109 1344 m 257
 718 1344 l 257
 718 908 l 257
 116 908 l 257
 116 0 l 257
 904 0 l 257
 904 200 l 257
 319 200 l 257
 319 707 l 257
 918 707 l 257
 918 1548 l 257
 109 1548 l 257
 109 1344 l 257
EndSplineSet
Substitution2: "sinfScientificInferiorsinLatinlookup3 subtable" uni2082
Substitution2: "supsSuperscriptinLatinlookup16 subtable" uni00B2
EndChar

StartChar: u
Encoding: 582 117 582
GlifName: u
Width: 1024
VWidth: 0
GlyphClass: 2
Flags: W
AnchorPoint: "top" 440 1146 basechar 0
AnchorPoint: "base" 472 -62 basechar 0
LayerCount: 2
Fore
SplineSet
139 1023 m 257
 139 0 l 257
 340 0 l 257
 340 1023 l 257
 139 1023 l 257
571 1023 m 257
 571 0 l 257
 771 0 l 257
 771 1023 l 257
 571 1023 l 257
186 200 m 257
 186 0 l 257
 888 0 l 257
 888 200 l 257
 186 200 l 257
EndSplineSet
EndChar

StartChar: underscore
Encoding: 591 95 591
GlifName: underscore
Width: 1024
VWidth: 0
GlyphClass: 2
Flags: W
LayerCount: 2
Fore
SplineSet
1 -110 m 257
 -2 -252 l 257
 1022 -252 l 257
 1025 -110 l 257
 1 -110 l 257
EndSplineSet
EndChar

StartChar: uni0000
Encoding: 592 0 592
GlifName: _notdef
Width: 1024
VWidth: 0
GlyphClass: 2
Flags: W
LayerCount: 2
Fore
SplineSet
18 -26 m 257
 1016 -26 l 257
 1016 1614 l 257
 18 1614 l 257
 18 -26 l 257
92 54 m 257
 92 1537 l 257
 485 817 l 257
 92 54 l 257
184 54 m 257
 523 740 l 257
 864 54 l 257
 184 54 l 257
212 1548 m 257
 843 1548 l 257
 525 899 l 257
 212 1548 l 257
563 822 m 257
 939 1548 l 257
 939 54 l 257
 563 822 l 257
EndSplineSet
EndChar

StartChar: uni0182
Encoding: 600 386 600
GlifName: B_topbar
Width: 1024
VWidth: 0
GlyphClass: 2
Flags: W
AnchorPoint: "top" 262 1657 basechar 0
AnchorPoint: "base" 250 -67 basechar 0
LayerCount: 2
Fore
SplineSet
110 0 m 257
 318 0 l 257
 318 1537 l 257
 110 1537 l 257
 110 0 l 257
375 201 m 257
 375 0 l 257
 929 364 l 257
 929 588 l 257
 375 201 l 257
442 567 m 257
 929 364 l 257
 929 586 l 257
 442 766 l 257
 442 567 l 257
270 766 m 257
 270 567 l 257
 442 567 l 257
 442 766 l 257
 270 766 l 257
208 200 m 257
 208 0 l 257
 375 0 l 257
 375 200 l 257
 208 200 l 257
270 1537 m 257
 270 1331 l 257
 911 1331 l 257
 911 1537 l 257
 270 1537 l 257
EndSplineSet
EndChar

StartChar: uni018F
Encoding: 608 399 608
GlifName: uni018F_
Width: 1024
VWidth: 0
GlyphClass: 2
Flags: W
AnchorPoint: "top" 568 1630 basechar 0
AnchorPoint: "base" 690 -117 basechar 0
LayerCount: 2
Fore
SplineSet
804 0 m 257
 804 200 l 257
 265 200 l 257
 265 0 l 257
 804 0 l 257
854 0 m 257
 854 1543 l 257
 652 1543 l 257
 652 0 l 257
 854 0 l 257
752 1342 m 257
 752 1543 l 257
 170 1543 l 257
 170 1342 l 257
 752 1342 l 257
816 668 m 257
 816 868 l 257
 162 868 l 257
 162 668 l 257
 816 668 l 257
462 30 m 257
 302 869 l 257
 107 869 l 257
 267 30 l 257
 462 30 l 257
EndSplineSet
EndChar

StartChar: uni0190
Encoding: 609 400 609
GlifName: E_open
Width: 1024
VWidth: 0
GlyphClass: 2
Flags: W
AnchorPoint: "base" 504 -125 basechar 0
AnchorPoint: "top" 520 1641 basechar 0
LayerCount: 2
Fore
SplineSet
103 1542 m 257
 275 930 l 257
 475 929 l 257
 303 1541 l 257
 103 1542 l 257
181 1541 m 257
 181 1337 l 257
 900 1337 l 257
 900 1541 l 257
 181 1541 l 257
170 203 m 257
 170 0 l 257
 916 0 l 257
 916 203 l 257
 170 203 l 257
467 931 m 257
 467 731 l 257
 669 731 l 257
 669 931 l 257
 467 931 l 257
282 734 m 257
 96 2 l 257
 296 1 l 257
 482 733 l 257
 282 734 l 257
EndSplineSet
EndChar

StartChar: uni0194
Encoding: 612 404 612
GlifName: G_amma_latin
Width: 1024
VWidth: 0
GlyphClass: 2
Flags: W
LayerCount: 2
Fore
SplineSet
81 1543 m 257
 556 -158 l 257
 756 -158 l 257
 281 1543 l 257
 81 1543 l 257
730 1543 m 257
 218 -158 l 257
 417 -158 l 257
 930 1543 l 257
 730 1543 l 257
219 -360 m 257
 757 -361 l 257
 757 -158 l 257
 219 -158 l 257
 219 -360 l 257
EndSplineSet
EndChar

StartChar: uni0196
Encoding: 613 406 613
GlifName: I_ota_latin
Width: 1024
VWidth: 0
GlyphClass: 2
Flags: W
AnchorPoint: "top" 470 1641 basechar 0
AnchorPoint: "base" 504 -66 basechar 0
LayerCount: 2
Fore
SplineSet
447 1538 m 257
 447 234 l 257
 649 234 l 257
 649 1538 l 257
 447 1538 l 257
447 299 m 257
 447 101 l 257
 918 20 l 257
 918 218 l 257
 447 299 l 257
EndSplineSet
EndChar

StartChar: uni0198
Encoding: 615 408 615
GlifName: K_hook
Width: 1024
VWidth: 0
GlyphClass: 2
Flags: W
LayerCount: 2
Fore
SplineSet
118 1537 m 257
 118 5 l 257
 319 5 l 257
 319 1537 l 257
 118 1537 l 257
163 999 m 257
 282 835 l 257
 939 1529 l 257
 672 1529 l 257
 163 999 l 257
293 798 m 257
 156 643 l 257
 711 0 l 257
 992 0 l 257
 293 798 l 257
1261 1729 m 257
 1138 1944 l 257
 939 1830 l 257
 1063 1615 l 257
 1261 1729 l 257
1032 1712 m 257
 940 1828 l 257
 668 1523 l 257
 938 1529 l 257
 1032 1712 l 257
EndSplineSet
EndChar

StartChar: uni019C
Encoding: 618 412 618
GlifName: M_turned
Width: 1024
VWidth: 0
GlyphClass: 2
Flags: W
AnchorPoint: "base" 498 -112 basechar 0
AnchorPoint: "top" 437 1679 basechar 0
LayerCount: 2
Fore
SplineSet
863 30 m 257
 863 1546 l 257
 663 1546 l 257
 663 30 l 257
 863 30 l 257
548 51 m 257
 548 1546 l 257
 348 1546 l 257
 348 51 l 257
 548 51 l 257
233 47 m 257
 233 1546 l 257
 33 1546 l 257
 33 47 l 257
 233 47 l 257
940 0 m 257
 940 197 l 257
 34 197 l 257
 34 0 l 257
 940 0 l 257
EndSplineSet
EndChar

StartChar: uni019F
Encoding: 620 415 620
GlifName: O_barred
Width: 1024
VWidth: 0
GlyphClass: 2
Flags: W
AnchorPoint: "top" 539 1698 basechar 0
AnchorPoint: "base" 564 -114 basechar 0
LayerCount: 2
Fore
SplineSet
110 1537 m 257
 110 0 l 257
 311 0 l 257
 311 1537 l 257
 110 1537 l 257
707 1537 m 257
 707 0 l 257
 910 0 l 257
 910 1537 l 257
 707 1537 l 257
174 1537 m 257
 174 1337 l 257
 817 1337 l 257
 817 1537 l 257
 174 1537 l 257
150 204 m 257
 150 0 l 257
 823 0 l 257
 823 204 l 257
 150 204 l 257
134.927 875 m 257
 134.927 667 l 257
 910.255 667 l 257
 910.255 875 l 257
 134.927 875 l 257
EndSplineSet
EndChar

StartChar: uni01A4
Encoding: 621 420 621
GlifName: P_hook
Width: 1024
VWidth: 0
GlyphClass: 2
Flags: W
AnchorPoint: "base" 367 -35 basechar 0
AnchorPoint: "top" 589 1642 basechar 0
LayerCount: 2
Fore
SplineSet
253 1548 m 257
 253 9 l 257
 443 9 l 257
 443 1548 l 257
 253 1548 l 257
332 1548 m 257
 332 1346 l 257
 988 1346 l 257
 988 1548 l 257
 332 1548 l 257
808 1548 m 257
 808 881 l 257
 1008 881 l 257
 1008 1548 l 257
 808 1548 l 257
316 1068 m 257
 316 868 l 257
 1003 868 l 257
 1003 1068 l 257
 316 1068 l 257
50.6901 1216.12 m 257
 247.77 1332.74 l 257
 121.472 1546.17 l 257
 -75.6077 1429.55 l 257
 50.6901 1216.12 l 257
88.5643 1352.41 m 257
 390.489 1393.96 l 257
 368.791 1548.44 l 257
 129.375 1548.53 l 257
 88.5643 1352.41 l 257
EndSplineSet
EndChar

StartChar: uni01A9
Encoding: 623 425 623
GlifName: E_sh
Width: 1024
VWidth: 0
GlyphClass: 2
Flags: W
LayerCount: 2
Fore
SplineSet
704 928 m 257
 110 210 l 257
 110 -14 l 257
 704 725 l 257
 704 928 l 257
706 921 m 257
 128 1539 l 257
 129 1338 l 257
 706 722 l 257
 706 921 l 257
850 1337 m 257
 850 1537 l 257
 128 1537 l 257
 128 1337 l 257
 850 1337 l 257
788 0 m 257
 788 206 l 257
 125 206 l 257
 125 0 l 257
 788 0 l 257
EndSplineSet
EndChar

StartChar: uni01AC
Encoding: 624 428 624
GlifName: T_hook
Width: 1024
VWidth: 0
GlyphClass: 2
Flags: W
AnchorPoint: "top" 624 1638 basechar 0
AnchorPoint: "base" 600 -54 basechar 0
LayerCount: 2
Fore
SplineSet
233 1548 m 257
 233 1348 l 257
 1007 1348 l 257
 1007 1548 l 257
 233 1548 l 257
520 1436 m 257
 520 6 l 257
 720 6 l 257
 720 1436 l 257
 520 1436 l 257
555.277 1550.55 m 257
 -3.70895 1546.56 l 257
 -2.281 1346.57 l 257
 554.705 1350.54 l 257
 555.277 1550.55 l 257
-3.70895 1546.56 m 257
 -1.09581 1180.57 l 257
 198.899 1182 l 257
 196.286 1547.99 l 257
 -3.70895 1546.56 l 257
EndSplineSet
EndChar

StartChar: uni01AD
Encoding: 625 429 625
GlifName: thook
Width: 1024
VWidth: 0
GlyphClass: 2
Flags: W
AnchorPoint: "top" 500 1642 basechar 0
AnchorPoint: "base" 500 -82 basechar 0
LayerCount: 2
Fore
SplineSet
410 1548 m 257
 410 0 l 257
 610 0 l 257
 610 1548 l 257
 410 1548 l 257
418 199 m 257
 418 0 l 257
 809 0 l 257
 809 199 l 257
 418 199 l 257
174 1023 m 257
 174 824 l 257
 848 824 l 257
 848 1023 l 257
 174 1023 l 257
965.739 1579.41 m 257
 406.781 1572.51 l 257
 409.25 1372.53 l 257
 966.207 1379.4 l 257
 965.739 1579.41 l 257
406.781 1572.51 m 257
 411.298 1206.54 l 257
 611.283 1209.01 l 257
 606.766 1574.98 l 257
 406.781 1572.51 l 257
EndSplineSet
EndChar

StartChar: uni01AE
Encoding: 626 430 626
GlifName: T_retroflexhook
Width: 1024
VWidth: 0
GlyphClass: 2
Flags: W
AnchorPoint: "top" 516 1638 basechar 0
AnchorPoint: "base" 492 -54 basechar 0
LayerCount: 2
Fore
SplineSet
125 1548 m 257
 125 1348 l 257
 899 1348 l 257
 899 1548 l 257
 125 1548 l 257
412 1436 m 257
 412 6 l 257
 612 6 l 257
 612 1436 l 257
 412 1436 l 257
415 219 m 257
 415 -340 l 257
 615 -340 l 257
 615 217 l 257
 415 219 l 257
415 -340 m 257
 781 -340 l 257
 781 -140 l 257
 415 -140 l 257
 415 -340 l 257
EndSplineSet
EndChar

StartChar: uni01B1
Encoding: 627 433 627
GlifName: U_psilon_latin
Width: 1024
VWidth: 0
GlyphClass: 2
Flags: W
AnchorPoint: "top" 568 1642 basechar 0
LayerCount: 2
Fore
SplineSet
300 1455 m 257
 139 0 l 257
 340 0 l 257
 501 1455 l 257
 300 1455 l 257
599 1455 m 257
 717 0 l 257
 917 0 l 257
 799 1455 l 257
 599 1455 l 257
186 196 m 257
 186 0 l 257
 867 0 l 257
 867 203 l 257
 186 196 l 257
708 1455 m 257
 712 1255 l 257
 1010 1255 l 257
 1006 1455 l 257
 708 1455 l 257
89 1455 m 257
 88 1255 l 257
 386 1255 l 257
 387 1455 l 257
 89 1455 l 257
EndSplineSet
EndChar

StartChar: uni01B2
Encoding: 628 434 628
GlifName: V_hook
Width: 1024
VWidth: 0
GlyphClass: 2
Flags: W
AnchorPoint: "top" 525 1613 basechar 0
AnchorPoint: "base" 536 -38 basechar 0
LayerCount: 2
Fore
SplineSet
104 1529 m 257
 104 0 l 257
 304 0 l 257
 304 1529 l 257
 104 1529 l 257
719 1529 m 257
 719 0 l 257
 921 0 l 257
 921 1529 l 257
 719 1529 l 257
586 1529 m 257
 586 1328 l 257
 813 1328 l 257
 813 1529 l 257
 586 1529 l 257
231 200 m 257
 231 0 l 257
 803 0 l 257
 803 200 l 257
 231 200 l 257
EndSplineSet
EndChar

StartChar: uni01B7
Encoding: 631 439 631
GlifName: E_zh
Width: 1024
VWidth: 0
GlyphClass: 2
Flags: W
LayerCount: 2
Fore
SplineSet
860 0 m 257
 860 197 l 257
 164 197 l 257
 164 0 l 257
 860 0 l 257
858 39 m 257
 862 889 l 257
 660 889 l 257
 656 39 l 257
 858 39 l 257
756 688 m 257
 756 889 l 257
 174 889 l 257
 174 688 l 257
 756 688 l 257
121 1544 m 257
 121 1347 l 257
 949 1347 l 257
 949 1544 l 257
 121 1544 l 257
657 1347 m 257
 169 889 l 257
 475 889 l 257
 949 1347 l 257
 657 1347 l 257
EndSplineSet
EndChar

StartChar: uni01B8
Encoding: 632 440 632
GlifName: E_zhreversed
Width: 1024
VWidth: 0
GlyphClass: 2
Flags: W
LayerCount: 2
Fore
SplineSet
210 0 m 257
 906 0 l 257
 906 197 l 257
 210 197 l 257
 210 0 l 257
212 39 m 257
 414 39 l 257
 410 889 l 257
 208 889 l 257
 212 39 l 257
314 688 m 257
 896 688 l 257
 896 889 l 257
 314 889 l 257
 314 688 l 257
949 1544 m 257
 121 1544 l 257
 121 1347 l 257
 949 1347 l 257
 949 1544 l 257
413 1347 m 257
 121 1347 l 257
 595 889 l 257
 901 889 l 257
 413 1347 l 257
EndSplineSet
EndChar

StartChar: uni01B9
Encoding: 633 441 633
GlifName: ezhreversed
Width: 1024
VWidth: 0
GlyphClass: 2
Flags: W
LayerCount: 2
Fore
SplineSet
210 0 m 257
 906 0 l 257
 906 197 l 257
 210 197 l 257
 210 0 l 257
212 39 m 257
 414 39 l 257
 410 619 l 257
 208 619 l 257
 212 39 l 257
314 418 m 257
 896 418 l 257
 896 619 l 257
 314 619 l 257
 314 418 l 257
949 1274 m 257
 121 1274 l 257
 121 1077 l 257
 949 1077 l 257
 949 1274 l 257
413 1077 m 257
 121 1077 l 257
 595 619 l 257
 901 619 l 257
 413 1077 l 257
EndSplineSet
EndChar

StartChar: uni021C
Encoding: 712 540 712
GlifName: uni021C_
Width: 1024
VWidth: 0
GlyphClass: 2
Flags: W
LayerCount: 2
Fore
SplineSet
101 502 m 257
 759 736 l 257
 759 192 l 257
 59 -42 l 257
 59 -242 l 257
 963 -8 l 257
 963 1553 l 257
 89 1368 l 257
 89 1168 l 257
 757 1353 l 257
 757 936 l 257
 101 702 l 257
 101 502 l 257
EndSplineSet
EndChar

StartChar: uni021D
Encoding: 713 541 713
GlifName: uni021D_
Width: 1024
VWidth: 0
GlyphClass: 2
Flags: W
LayerCount: 2
Fore
SplineSet
101 93 m 257
 759 327 l 257
 759 -137 l 257
 59 -371 l 257
 59 -571 l 257
 963 -337 l 257
 963 1100 l 257
 89 915 l 257
 89 715 l 257
 757 900 l 257
 757 527 l 257
 101 293 l 257
 101 93 l 257
EndSplineSet
EndChar

StartChar: uni0221
Encoding: 716 545 716
GlifName: dcurl
Width: 1024
VWidth: 0
GlyphClass: 2
Flags: W
AnchorPoint: "base" 506 -56 basechar 0
AnchorPoint: "top" 824 1642 basechar 0
LayerCount: 2
Fore
SplineSet
361 1551 m 257
 361 24 l 257
 562 24 l 257
 562 1551 l 257
 361 1551 l 257
102 1023 m 257
 102 822 l 257
 473 822 l 257
 473 1023 l 257
 102 1023 l 257
6 1023 m 257
 6 0 l 257
 207 0 l 257
 207 1023 l 257
 6 1023 l 257
102 195 m 257
 102 0 l 257
 961 0 l 257
 961 195 l 257
 102 195 l 257
487 -143 m 257
 607 -145 l 257
 871 312 l 257
 870 507 l 257
 487 -143 l 257
870 507 m 257
 872 0 l 257
 987 -1 l 257
 985 511 l 257
 870 507 l 257
EndSplineSet
EndChar

StartChar: uni0234
Encoding: 731 564 731
GlifName: lcurl
Width: 1024
VWidth: 0
GlyphClass: 2
Flags: W
AnchorPoint: "base" 538 -68 basechar 0
AnchorPoint: "top" 520 1654 basechar 0
LayerCount: 2
Fore
SplineSet
610 285 m 257
 610 85 l 257
 842 349 l 257
 842 549 l 257
 610 285 l 257
412 1548 m 257
 412 86 l 257
 616 84 l 257
 616 1546 l 257
 412 1548 l 257
256 1548 m 257
 256 1349 l 257
 491 1349 l 257
 491 1548 l 257
 256 1548 l 257
177 499 m 257
 177 299 l 257
 846 361 l 257
 846 561 l 257
 177 499 l 257
EndSplineSet
EndChar

StartChar: uni0235
Encoding: 732 565 732
GlifName: ncurl
Width: 1024
VWidth: 0
GlyphClass: 2
Flags: W
AnchorPoint: "base" 530 -64 basechar 0
AnchorPoint: "top" 492 1158 basechar 0
LayerCount: 2
Fore
SplineSet
78 990 m 257
 78 0 l 257
 279 0 l 257
 279 990 l 257
 78 990 l 257
468 976 m 257
 468 0 l 257
 669 0 l 257
 669 976 l 257
 468 976 l 257
13 1023 m 257
 13 826 l 257
 668 826 l 257
 668 1023 l 257
 13 1023 l 257
351 209 m 257
 351 12 l 257
 821 298 l 257
 821 495 l 257
 351 209 l 257
661 188 m 257
 661 0 l 257
 850 0 l 257
 850 188 l 257
 661 188 l 257
821 495 m 257
 821 0 l 257
 1022 0 l 257
 1022 495 l 257
 821 495 l 257
EndSplineSet
EndChar

StartChar: uni0236
Encoding: 733 566 733
GlifName: tcurl
Width: 1024
VWidth: 0
GlyphClass: 2
Flags: W
AnchorPoint: "top" 500 1642 basechar 0
AnchorPoint: "base" 500 -82 basechar 0
LayerCount: 2
Fore
SplineSet
410 1548 m 257
 410 0 l 257
 610 0 l 257
 610 1548 l 257
 410 1548 l 257
418 199 m 257
 418 0 l 257
 809 0 l 257
 809 199 l 257
 418 199 l 257
174 1023 m 257
 174 824 l 257
 848 824 l 257
 848 1023 l 257
 174 1023 l 257
161 208 m 257
 161 9 l 257
 806 348 l 257
 805 547 l 257
 161 208 l 257
809 -1 m 257
 1010 0 l 257
 1004 551 l 257
 804 547 l 257
 809 -1 l 257
EndSplineSet
EndChar

StartChar: uni0237
Encoding: 734 567 734
GlifName: uni0237
Width: 1024
VWidth: 0
GlyphClass: 2
Flags: W
AnchorPoint: "top" 720 1182 basechar 0
LayerCount: 2
Fore
SplineSet
627 940 m 257
 627 -411 l 257
 826 -411 l 257
 826 940 l 257
 627 940 l 257
197 -209 m 257
 197 -406 l 257
 727 -406 l 257
 727 -209 l 257
 197 -209 l 257
198 -6 m 257
 198 -351 l 257
 398 -351 l 257
 398 -6 l 257
 198 -6 l 257
EndSplineSet
EndChar

StartChar: uni0250
Encoding: 745 592 745
GlifName: aturned
Width: 1024
VWidth: 0
GlyphClass: 2
Flags: W
AnchorPoint: "top" 524 -111 basechar 0
AnchorPoint: "base" 500 1097 basechar 0
LayerCount: 2
Fore
SplineSet
856 0 m 257
 856 199 l 257
 250 199 l 257
 250 0 l 257
 856 0 l 257
363 0 m 257
 363 1097 l 257
 169 1097 l 257
 169 0 l 257
 363 0 l 257
852 424 m 257
 852 623 l 257
 228 623 l 257
 228 424 l 257
 852 424 l 257
852 448 m 257
 852 1023 l 257
 651 1023 l 257
 651 448 l 257
 852 448 l 257
852 822 m 257
 852 1023 l 257
 168 1023 l 257
 168 822 l 257
 852 822 l 257
EndSplineSet
EndChar

StartChar: uni0251
Encoding: 746 593 746
GlifName: alpha_latin
Width: 1024
VWidth: 0
GlyphClass: 2
Flags: W
AnchorPoint: "top" 504 1158 basechar 0
AnchorPoint: "base" 536 -38 basechar 0
LayerCount: 2
Fore
SplineSet
104 1023 m 257
 104 0 l 257
 304 0 l 257
 304 1023 l 257
 104 1023 l 257
719 1116 m 257
 719 -127 l 257
 921 -127 l 257
 921 1116 l 257
 719 1116 l 257
227 1023 m 257
 227 822 l 257
 813 822 l 257
 813 1023 l 257
 227 1023 l 257
231 200 m 257
 231 0 l 257
 803 0 l 257
 803 200 l 257
 231 200 l 257
EndSplineSet
EndChar

StartChar: uni0254
Encoding: 748 596 748
GlifName: oopen
Width: 1024
VWidth: 0
GlyphClass: 2
Flags: W
AnchorPoint: "base" 522 -40 basechar 0
AnchorPoint: "top" 492 1162 basechar 0
LayerCount: 2
Fore
SplineSet
860 0 m 257
 860 197 l 257
 164 197 l 257
 164 0 l 257
 860 0 l 257
858 39 m 257
 858 1023 l 257
 656 1023 l 257
 656 39 l 257
 858 39 l 257
752 822 m 257
 752 1023 l 257
 170 1023 l 257
 170 822 l 257
 752 822 l 257
EndSplineSet
EndChar

StartChar: uni0259
Encoding: 751 601 751
GlifName: uni0259
Width: 1024
VWidth: 0
GlyphClass: 2
Flags: W
AnchorPoint: "top" 500 1134 basechar 0
AnchorPoint: "base" 524 -74 basechar 0
LayerCount: 2
Fore
SplineSet
804 0 m 257
 804 200 l 257
 240 267 l 257
 240 67 l 257
 804 0 l 257
854 0 m 257
 854 1023 l 257
 652 1023 l 257
 652 0 l 257
 854 0 l 257
752 822 m 257
 752 1023 l 257
 170 1023 l 257
 170 822 l 257
 752 822 l 257
784 398 m 257
 784 577 l 257
 194 577 l 257
 194 398 l 257
 784 398 l 257
437 97 m 257
 366 578 l 257
 171 578 l 257
 242 97 l 257
 437 97 l 257
EndSplineSet
EndChar

StartChar: uni025B
Encoding: 752 603 752
GlifName: eopen
Width: 1024
VWidth: 0
GlyphClass: 2
Flags: W
AnchorPoint: "top" 537 1207 basechar 0
AnchorPoint: "base" 492 -96 basechar 0
LayerCount: 2
Fore
SplineSet
103 1140 m 257
 171 669 l 257
 371 668 l 257
 303 1139 l 257
 103 1140 l 257
181 1139 m 257
 181 935 l 257
 900 935 l 257
 900 1139 l 257
 181 1139 l 257
170 203 m 257
 170 0 l 257
 916 0 l 257
 916 203 l 257
 170 203 l 257
363 670 m 257
 363 470 l 257
 669 470 l 257
 669 670 l 257
 363 670 l 257
178 473 m 257
 96 2 l 257
 296 1 l 257
 378 472 l 257
 178 473 l 257
EndSplineSet
EndChar

StartChar: uni0263
Encoding: 756 611 756
GlifName: gamma_latin
Width: 1024
VWidth: 0
GlyphClass: 2
Flags: W
LayerCount: 2
Fore
SplineSet
81 1029 m 257
 556 -158 l 257
 756 -158 l 257
 281 1029 l 257
 81 1029 l 257
730 1021 m 257
 218 -158 l 257
 417 -158 l 257
 930 1021 l 257
 730 1021 l 257
219 -360 m 257
 757 -361 l 257
 757 -158 l 257
 219 -158 l 257
 219 -360 l 257
EndSplineSet
EndChar

StartChar: uni0264
Encoding: 757 612 757
GlifName: ramshorn
Width: 1024
VWidth: 0
GlyphClass: 2
Flags: W
AnchorPoint: "top" 498 1120 basechar 0
LayerCount: 2
Fore
SplineSet
81 1029 m 257
 556 202 l 257
 756 202 l 257
 281 1029 l 257
 81 1029 l 257
730 1021 m 257
 218 202 l 257
 417 202 l 257
 930 1021 l 257
 730 1021 l 257
219 0 m 257
 757 -1 l 257
 757 202 l 257
 219 202 l 257
 219 0 l 257
EndSplineSet
EndChar

StartChar: uni0269
Encoding: 761 617 761
GlifName: iota_latin
Width: 1024
VWidth: 0
GlyphClass: 2
Flags: W
AnchorPoint: "top" 492 1191 basechar 0
LayerCount: 2
Fore
SplineSet
447 1013 m 257
 447 234 l 257
 649 234 l 257
 649 1013 l 257
 447 1013 l 257
447 299 m 257
 447 101 l 257
 918 20 l 257
 918 218 l 257
 447 299 l 257
EndSplineSet
EndChar

StartChar: uni026A
Encoding: 762 618 762
GlifName: icapitalsmall
Width: 1024
VWidth: 0
GlyphClass: 2
Flags: W
AnchorPoint: "top" 470 1641 basechar 0
AnchorPoint: "base" 504 -66 basechar 0
LayerCount: 2
Fore
SplineSet
144 1019 m 257
 144 817 l 257
 845 817 l 257
 845 1019 l 257
 144 1019 l 257
377 950 m 257
 377 84 l 257
 577 84 l 257
 577 950 l 257
 377 950 l 257
124 204 m 257
 124 6 l 257
 880 6 l 257
 880 204 l 257
 124 204 l 257
EndSplineSet
EndChar

StartChar: uni026C
Encoding: 764 620 764
GlifName: uni026C_
Width: 1024
VWidth: 0
GlyphClass: 2
Flags: W
AnchorPoint: "base" 538 -68 basechar 0
AnchorPoint: "top" 520 1654 basechar 0
LayerCount: 2
Fore
SplineSet
202 738 m 257
 202 620 l 257
 916 620 l 257
 916 738 l 257
 202 738 l 257
202 1026 m 257
 202 620 l 257
 320 620 l 257
 320 1026 l 257
 202 1026 l 257
202 1026 m 257
 202 905 l 257
 577 905 l 257
 577 1026 l 257
 202 1026 l 257
195 209 m 257
 195 9 l 257
 829 9 l 257
 829 209 l 257
 195 209 l 257
412 1548 m 257
 412 86 l 257
 612 86 l 257
 612 1548 l 257
 412 1548 l 257
256 1548 m 257
 256 1349 l 257
 491 1349 l 257
 491 1548 l 257
 256 1548 l 257
EndSplineSet
EndChar

StartChar: uni0275
Encoding: 767 629 767
GlifName: obarred
Width: 1024
VWidth: 0
GlyphClass: 2
Flags: W
AnchorPoint: "top" 546 1158 basechar 0
AnchorPoint: "base" 536 -38 basechar 0
LayerCount: 2
Fore
SplineSet
104 1023 m 257
 104 0 l 257
 304 0 l 257
 304 1023 l 257
 104 1023 l 257
719 1023 m 257
 719 0 l 257
 921 0 l 257
 921 1023 l 257
 719 1023 l 257
227 1023 m 257
 227 822 l 257
 813 822 l 257
 813 1023 l 257
 227 1023 l 257
231 200 m 257
 231 0 l 257
 803 0 l 257
 803 200 l 257
 231 200 l 257
183.454 631 m 257
 183.454 423 l 257
 840.546 423 l 257
 840.546 631 l 257
 183.454 631 l 257
EndSplineSet
EndChar

StartChar: uni027F
Encoding: 769 639 769
GlifName: rfishhookreversed
Width: 1024
VWidth: 0
GlyphClass: 2
Flags: W
AnchorPoint: "top" 504 1174 basechar 0
AnchorPoint: "base" 500 -70 basechar 0
LayerCount: 2
Fore
SplineSet
165 1023 m 257
 165 821 l 257
 898 821 l 257
 898 1023 l 257
 165 1023 l 257
696 954 m 257
 696 -492 l 257
 896 -492 l 257
 896 954 l 257
 696 954 l 257
EndSplineSet
EndChar

StartChar: uni0283
Encoding: 770 643 770
GlifName: esh
Width: 1024
VWidth: 0
GlyphClass: 2
Flags: W
LayerCount: 2
Fore
SplineSet
534 1641 m 257
 311 -399 l 257
 504 -399 l 257
 727 1641 l 257
 534 1641 l 257
131 -241 m 257
 131 -398 l 257
 469 -398 l 257
 469 -241 l 257
 131 -241 l 257
589 1641 m 257
 589 1507 l 257
 925 1507 l 257
 925 1641 l 257
 589 1641 l 257
EndSplineSet
EndChar

StartChar: uni0285
Encoding: 771 645 771
GlifName: eshsquatreversed
Width: 1024
VWidth: 0
GlyphClass: 2
Flags: W
LayerCount: 2
Fore
SplineSet
325 1001 m 257
 493 -408 l 257
 686 -408 l 257
 518 1001 l 257
 325 1001 l 257
542 -251 m 257
 542 -408 l 257
 1062 -408 l 257
 1062 -251 l 257
 542 -251 l 257
68 1001 m 257
 68 867 l 257
 387 867 l 257
 387 1001 l 257
 68 1001 l 257
EndSplineSet
EndChar

StartChar: uni0288
Encoding: 772 648 772
GlifName: tretroflexhook
Width: 1024
VWidth: 0
GlyphClass: 2
Flags: W
AnchorPoint: "top" 500 1642 basechar 0
AnchorPoint: "base" 521 -487 basechar 0
LayerCount: 2
Fore
SplineSet
410 1548 m 257
 410 -423 l 257
 610 -423 l 257
 610 1548 l 257
 410 1548 l 257
418 -224 m 257
 418 -423 l 257
 809 -423 l 257
 809 -224 l 257
 418 -224 l 257
174 1023 m 257
 174 824 l 257
 848 824 l 257
 848 1023 l 257
 174 1023 l 257
EndSplineSet
EndChar

StartChar: uni028A
Encoding: 774 650 774
GlifName: upsilon_latin
Width: 1024
VWidth: 0
GlyphClass: 2
Flags: W
AnchorPoint: "top" 554 1146 basechar 0
LayerCount: 2
Fore
SplineSet
300 1023 m 257
 139 0 l 257
 340 0 l 257
 501 1023 l 257
 300 1023 l 257
599 1023 m 257
 717 0 l 257
 917 0 l 257
 799 1023 l 257
 599 1023 l 257
186 196 m 257
 186 0 l 257
 867 0 l 257
 867 203 l 257
 186 196 l 257
708 1023 m 257
 712 823 l 257
 1010 823 l 257
 1006 1023 l 257
 708 1023 l 257
89 1023 m 257
 88 823 l 257
 386 823 l 257
 387 1023 l 257
 89 1023 l 257
EndSplineSet
EndChar

StartChar: uni028B
Encoding: 775 651 775
GlifName: vhook
Width: 1024
VWidth: 0
GlyphClass: 2
Flags: W
AnchorPoint: "top" 504 1158 basechar 0
AnchorPoint: "base" 536 -38 basechar 0
LayerCount: 2
Fore
SplineSet
104 1023 m 257
 104 0 l 257
 304 0 l 257
 304 1023 l 257
 104 1023 l 257
719 1023 m 257
 719 0 l 257
 921 0 l 257
 921 1023 l 257
 719 1023 l 257
586 1023 m 257
 586 822 l 257
 813 822 l 257
 813 1023 l 257
 586 1023 l 257
231 200 m 257
 231 0 l 257
 803 0 l 257
 803 200 l 257
 231 200 l 257
EndSplineSet
EndChar

StartChar: uni0292
Encoding: 777 658 777
GlifName: ezh
Width: 1024
VWidth: 0
GlyphClass: 2
Flags: W
LayerCount: 2
Fore
SplineSet
860 0 m 257
 860 197 l 257
 164 197 l 257
 164 0 l 257
 860 0 l 257
858 39 m 257
 862 619 l 257
 660 619 l 257
 656 39 l 257
 858 39 l 257
756 418 m 257
 756 619 l 257
 174 619 l 257
 174 418 l 257
 756 418 l 257
121 1274 m 257
 121 1077 l 257
 949 1077 l 257
 949 1274 l 257
 121 1274 l 257
657 1077 m 257
 169 619 l 257
 475 619 l 257
 949 1077 l 257
 657 1077 l 257
EndSplineSet
EndChar

StartChar: uni0294
Encoding: 778 660 778
GlifName: glottalstop
Width: 1024
VWidth: 0
GlyphClass: 2
Flags: W
LayerCount: 2
Fore
SplineSet
292 1543 m 257
 292 1343 l 257
 820 1343 l 257
 820 1543 l 257
 292 1543 l 257
620 1543 m 257
 620 1028 l 257
 820 1028 l 257
 820 1543 l 257
 620 1543 l 257
360 1073 m 257
 360 873 l 257
 820 873 l 257
 820 1073 l 257
 360 1073 l 257
347 1073 m 257
 347 167 l 257
 547 167 l 257
 547 1073 l 257
 347 1073 l 257
EndSplineSet
EndChar

StartChar: uni0295
Encoding: 779 661 779
GlifName: glottalstopreversed
Width: 1024
VWidth: 0
GlyphClass: 2
Flags: W
LayerCount: 2
Fore
SplineSet
820 1543 m 257
 292 1543 l 257
 292 1343 l 257
 820 1343 l 257
 820 1543 l 257
492 1543 m 257
 292 1543 l 257
 292 1028 l 257
 492 1028 l 257
 492 1543 l 257
752 1073 m 257
 292 1073 l 257
 292 873 l 257
 752 873 l 257
 752 1073 l 257
765 1073 m 257
 565 1073 l 257
 565 167 l 257
 765 167 l 257
 765 1073 l 257
EndSplineSet
EndChar

StartChar: uni029D
Encoding: 781 669 781
GlifName: jcrossedtail
Width: 1024
VWidth: 0
GlyphClass: 2
Flags: W
AnchorPoint: "top" 697 1521 basechar 0
AnchorPoint: "base" 522 -455 basechar 0
LayerCount: 2
Fore
SplineSet
628 1023 m 257
 628 -411 l 257
 826 -411 l 257
 826 1023 l 257
 628 1023 l 257
198 -209 m 257
 198 -406 l 257
 728 -406 l 257
 728 -209 l 257
 198 -209 l 257
198 -6 m 257
 198 -351 l 257
 398 -351 l 257
 398 -6 l 257
 198 -6 l 257
620 1413 m 257
 620 1214 l 257
 820 1214 l 257
 820 1413 l 257
 620 1413 l 257
200 -33 m 257
 1026 -33 l 257
 1026 175 l 257
 200 175 l 257
 200 -33 l 257
EndSplineSet
EndChar

StartChar: uni02C0
Encoding: 790 704 790
GlifName: glottalstopmod
Width: 1024
VWidth: 0
GlyphClass: 2
Flags: W
LayerCount: 2
Fore
SplineSet
292 1543 m 257
 292 1343 l 257
 820 1343 l 257
 820 1543 l 257
 292 1543 l 257
620 1543 m 257
 620 1028 l 257
 820 1028 l 257
 820 1543 l 257
 620 1543 l 257
360 1073 m 257
 360 873 l 257
 820 873 l 257
 820 1073 l 257
 360 1073 l 257
347 1073 m 257
 347 572 l 257
 547 572 l 257
 547 1073 l 257
 347 1073 l 257
EndSplineSet
EndChar

StartChar: uni02C8
Encoding: 791 712 791
GlifName: verticallinemod
Width: 1024
VWidth: 0
GlyphClass: 2
Flags: W
LayerCount: 2
Fore
SplineSet
405 1823 m 257
 405 1025 l 257
 607 1025 l 257
 607 1823 l 257
 405 1823 l 257
EndSplineSet
EndChar

StartChar: uni02C9
Encoding: 792 713 792
GlifName: uni02C_9
Width: 1024
VWidth: 0
GlyphClass: 2
Flags: W
LayerCount: 2
Fore
SplineSet
226 1630 m 257
 226 1548 l 257
 786 1548 l 257
 786 1630 l 257
 226 1630 l 257
EndSplineSet
EndChar

StartChar: uni02CA
Encoding: 793 714 793
GlifName: uni02C_A_
Width: 1024
VWidth: 0
GlyphClass: 2
Flags: W
LayerCount: 2
Fore
SplineSet
556 1346 m 257
 426 1092 l 257
 514 1046 l 257
 645 1301 l 257
 556 1346 l 257
EndSplineSet
EndChar

StartChar: uni02CB
Encoding: 794 715 794
GlifName: uni02C_B_
Width: 1024
VWidth: 0
GlyphClass: 2
Flags: W
LayerCount: 2
Fore
SplineSet
421 1264 m 257
 541 1028 l 257
 632 1074 l 257
 513 1311 l 257
 421 1264 l 257
EndSplineSet
EndChar

StartChar: uni02CC
Encoding: 795 716 795
GlifName: verticallinelowmod
Width: 1024
VWidth: 0
GlyphClass: 2
Flags: W
LayerCount: 2
Fore
SplineSet
414 805 m 257
 414 7 l 257
 616 7 l 257
 616 805 l 257
 414 805 l 257
EndSplineSet
EndChar

StartChar: uni0302
Encoding: 798 770 798
GlifName: uni0302
Width: 0
VWidth: 0
GlyphClass: 4
Flags: W
AnchorPoint: "top" 6 778 mark 0
LayerCount: 2
Fore
SplineSet
89 1152 m 257
 -57 1147 l 257
 -199 828 l 257
 -75 787 l 257
 89 1152 l 257
-56 1146 m 257
 117 785 l 257
 233 822 l 257
 88 1153 l 257
 -56 1146 l 257
EndSplineSet
EndChar

StartChar: uni0304
Encoding: 799 772 799
GlifName: uni0304
Width: 0
VWidth: 0
GlyphClass: 4
Flags: W
AnchorPoint: "top" -1 773 mark 0
LayerCount: 2
Fore
SplineSet
-299 1013 m 257
 -302 862 l 257
 258 862 l 257
 261 1013 l 257
 -299 1013 l 257
EndSplineSet
EndChar

StartChar: uni0305
Encoding: 800 773 800
GlifName: uni0305
Width: 0
VWidth: 0
GlyphClass: 4
Flags: W
AnchorPoint: "top" 18 1480 mark 0
LayerCount: 2
Fore
SplineSet
-377 1602 m 257
 -377 1542 l 257
 377 1542 l 257
 377 1602 l 257
 -377 1602 l 257
EndSplineSet
EndChar

StartChar: uni0306
Encoding: 801 774 801
GlifName: uni0306
Width: 0
VWidth: 0
GlyphClass: 4
Flags: W
AnchorPoint: "top" -3 776 mark 0
LayerCount: 2
Fore
SplineSet
182 904 m 257
 182 791 l 257
 347 859 l 257
 347 1001 l 257
 182 904 l 257
-142 904 m 257
 -142 791 l 257
 182 791 l 257
 182 904 l 257
 -142 904 l 257
-313 986 m 257
 -313 904 l 257
 -142 791 l 257
 -142 904 l 257
 -313 986 l 257
EndSplineSet
EndChar

StartChar: uni0307
Encoding: 802 775 802
GlifName: uni0307
Width: 0
VWidth: 0
GlyphClass: 4
Flags: W
AnchorPoint: "top" -4 774 mark 0
LayerCount: 2
Fore
SplineSet
-115 992 m 257
 -115 790 l 257
 109 790 l 257
 109 992 l 257
 -115 992 l 257
EndSplineSet
EndChar

StartChar: uni0308
Encoding: 803 776 803
GlifName: uni0308
Width: 0
VWidth: 0
GlyphClass: 4
Flags: W
AnchorPoint: "top" 4 1592 mark 0
LayerCount: 2
Fore
SplineSet
-297 1788 m 257
 -297 1587 l 257
 -73 1587 l 257
 -73 1788 l 257
 -297 1788 l 257
74 1788 m 257
 74 1587 l 257
 298 1587 l 257
 298 1788 l 257
 74 1788 l 257
EndSplineSet
EndChar

StartChar: uni030A
Encoding: 804 778 804
GlifName: uni030A_
Width: 0
VWidth: 0
GlyphClass: 4
Flags: W
AnchorPoint: "top" 8 762 mark 0
LayerCount: 2
Fore
SplineSet
-72 1010 m 257
 76 1010 l 257
 76 880 l 257
 -72 880 l 257
 -72 1010 l 257
-177 1101 m 257
 -177 791 l 257
 183 791 l 257
 183 1101 l 257
 -177 1101 l 257
EndSplineSet
EndChar

StartChar: uni030B
Encoding: 805 779 805
GlifName: uni030B_
Width: 0
VWidth: 0
GlyphClass: 4
Flags: W
AnchorPoint: "top" -5 778 mark 0
LayerCount: 2
Fore
SplineSet
-307 784 m 257
 -163 784 l 257
 -106 1032 l 257
 -250 1032 l 257
 -307 784 l 257
93 784 m 257
 237 784 l 257
 294 1032 l 257
 150 1032 l 257
 93 784 l 257
EndSplineSet
EndChar

StartChar: uni030C
Encoding: 806 780 806
GlifName: uni030C_
Width: 0
VWidth: 0
GlyphClass: 4
Flags: W
AnchorPoint: "top" 1 760 mark 0
LayerCount: 2
Fore
SplineSet
27 810 m 257
 -79 1082 l 257
 -139 1057 l 257
 -33 810 l 257
 27 810 l 257
-31 858 m 257
 27 810 l 257
 132 1060 l 257
 72 1082 l 257
 -31 858 l 257
EndSplineSet
EndChar

StartChar: uni030D
Encoding: 807 781 807
GlifName: verticallineabovecomb
Width: 0
VWidth: 0
GlyphClass: 4
Flags: W
AnchorPoint: "top" 0 964 mark 0
LayerCount: 2
Fore
SplineSet
-99 1561 m 257
 -99 1031 l 257
 99 1031 l 257
 99 1561 l 257
 -99 1561 l 257
EndSplineSet
EndChar

StartChar: uni030F
Encoding: 808 783 808
GlifName: uni030F_
Width: 0
VWidth: 0
GlyphClass: 4
Flags: W
AnchorPoint: "top" -5 773 mark 0
LayerCount: 2
Fore
SplineSet
-25 1035 m 257
 95 799 l 257
 186 845 l 257
 67 1082 l 257
 -25 1035 l 257
-243 1035 m 257
 -123 799 l 257
 -32 845 l 257
 -151 1082 l 257
 -243 1035 l 257
EndSplineSet
EndChar

StartChar: uni0311
Encoding: 810 785 810
GlifName: uni0311
Width: 0
VWidth: 0
GlyphClass: 4
Flags: W
AnchorPoint: "top" 2 780 mark 0
LayerCount: 2
Fore
SplineSet
-193 834 m 257
 -193 902 l 257
 -358 834 l 257
 -358 737 l 257
 -193 834 l 257
131 834 m 257
 131 902 l 257
 -193 902 l 257
 -193 834 l 257
 131 834 l 257
302 752 m 257
 302 834 l 257
 131 902 l 257
 131 834 l 257
 302 752 l 257
EndSplineSet
EndChar

StartChar: uni0312
Encoding: 811 786 811
GlifName: uni0312
Width: 0
VWidth: 0
GlyphClass: 4
Flags: W
AnchorPoint: "top" 30 1559 mark 0
LayerCount: 2
Fore
SplineSet
-102 1594 m 257
 146 1594 l 257
 146 1823 l 257
 -102 1823 l 257
 -102 1594 l 257
-23 1692 m 257
 145 1824 l 257
 -38 2114 l 257
 -222 2035 l 257
 -23 1692 l 257
EndSplineSet
EndChar

StartChar: uni0314
Encoding: 813 788 813
GlifName: commareversedabovecomb
Width: 0
VWidth: 0
GlyphClass: 4
Flags: W
AnchorPoint: "top" 85 949 mark 0
LayerCount: 2
Fore
SplineSet
130 1489 m 257
 -118 1489 l 257
 -118 1260 l 257
 130 1260 l 257
 130 1489 l 257
32 1387 m 257
 -116 1252 l 257
 6 1046 l 257
 150 1106 l 257
 32 1387 l 257
EndSplineSet
EndChar

StartChar: uni0315
Encoding: 814 789 814
GlifName: commaaboverightcomb
Width: 0
VWidth: 0
GlyphClass: 4
Flags: W
AnchorPoint: "top" -283 1018 mark 0
LayerCount: 2
Fore
SplineSet
-55 1246 m 257
 -55 1017 l 257
 193 1017 l 257
 193 1246 l 257
 -55 1246 l 257
43 1144 m 257
 -75 863 l 257
 69 803 l 257
 193 1017 l 257
 43 1144 l 257
EndSplineSet
EndChar

StartChar: uni031B
Encoding: 815 795 815
GlifName: uni031B_
Width: 0
VWidth: 0
GlyphClass: 4
Flags: W
AnchorPoint: "top" 3 781 mark 0
LayerCount: 2
Fore
SplineSet
-60 1220 m 257
 -60 991 l 257
 188 991 l 257
 188 1220 l 257
 -60 1220 l 257
40 1126 m 257
 -78 845 l 257
 66 785 l 257
 188 991 l 257
 40 1126 l 257
EndSplineSet
EndChar

StartChar: uni0324
Encoding: 816 804 816
GlifName: uni0324
Width: 0
VWidth: 0
GlyphClass: 4
Flags: W
AnchorPoint: "base" -8 -147 mark 0
LayerCount: 2
Fore
SplineSet
162 -275 m 257
 162 -472 l 257
 373 -472 l 257
 373 -275 l 257
 162 -275 l 257
-336 -274 m 257
 -336 -471 l 257
 -125 -473 l 257
 -125 -275 l 257
 -336 -274 l 257
EndSplineSet
EndChar

StartChar: uni0325
Encoding: 817 805 817
GlifName: ringbelowcomb
Width: 0
VWidth: 0
GlyphClass: 4
Flags: W
AnchorPoint: "base" 1 -22 mark 0
LayerCount: 2
Fore
SplineSet
-72 -275 m 257
 76 -275 l 257
 76 -405 l 257
 -72 -405 l 257
 -72 -275 l 257
-177 -184 m 257
 -177 -494 l 257
 183 -494 l 257
 183 -184 l 257
 -177 -184 l 257
EndSplineSet
EndChar

StartChar: uni0326
Encoding: 818 806 818
GlifName: uni0326
Width: 0
VWidth: 0
GlyphClass: 4
Flags: W
AnchorPoint: "base" 22 -5 mark 0
LayerCount: 2
Fore
SplineSet
-114 0 m 257
 -114 -230 l 257
 134 -230 l 257
 134 0 l 257
 -114 0 l 257
-16 -103 m 257
 -134 -384 l 257
 10 -444 l 257
 132 -234 l 257
 -16 -103 l 257
EndSplineSet
EndChar

StartChar: uni0327
Encoding: 819 807 819
GlifName: uni0327
Width: 0
VWidth: 0
GlyphClass: 4
Flags: W
AnchorPoint: "base" -146 70 mark 0
LayerCount: 2
Fore
SplineSet
-224 180 m 257
 -224 -111 l 257
 -68 -111 l 257
 -68 180 l 257
 -224 180 l 257
-222 -288 m 257
 -222 -406 l 257
 224 -373 l 257
 224 -255 l 257
 -222 -288 l 257
72 33 m 257
 72 -339 l 257
 224 -339 l 257
 224 33 l 257
 72 33 l 257
-222 33 m 257
 -222 -123 l 257
 224 -123 l 257
 224 33 l 257
 -222 33 l 257
EndSplineSet
EndChar

StartChar: uni0328
Encoding: 820 808 820
GlifName: uni0328
Width: 0
VWidth: 0
GlyphClass: 4
Flags: W
AnchorPoint: "base" -270 -122 mark 0
LayerCount: 2
Fore
SplineSet
-271 -288 m 257
 -271 -406 l 257
 271 -406 l 257
 271 -288 l 257
 -271 -288 l 257
-271 0 m 257
 -271 -406 l 257
 -153 -406 l 257
 -153 0 l 257
 -271 0 l 257
-271 0 m 257
 -271 -121 l 257
 271 -121 l 257
 271 0 l 257
 -271 0 l 257
EndSplineSet
EndChar

StartChar: uni0329
Encoding: 821 809 821
GlifName: uni0329
Width: 0
VWidth: 0
GlyphClass: 4
Flags: W
AnchorPoint: "base" 4 -39 mark 0
LayerCount: 2
Fore
SplineSet
-99 -76 m 257
 -99 -419 l 257
 101 -419 l 257
 101 -76 l 257
 -99 -76 l 257
EndSplineSet
EndChar

StartChar: uni032E
Encoding: 823 814 823
GlifName: uni032E_
Width: 0
VWidth: 0
GlyphClass: 4
Flags: W
AnchorPoint: "base" -8 -4 mark 0
LayerCount: 2
Fore
SplineSet
197 -173 m 257
 197 -241 l 257
 362 -173 l 257
 362 -76 l 257
 197 -173 l 257
-127 -173 m 257
 -127 -241 l 257
 197 -241 l 257
 197 -173 l 257
 -127 -173 l 257
-298 -91 m 257
 -298 -173 l 257
 -127 -241 l 257
 -127 -173 l 257
 -298 -91 l 257
EndSplineSet
EndChar

StartChar: uni0331
Encoding: 826 817 826
GlifName: uni0331
Width: 0
VWidth: 0
GlyphClass: 4
Flags: W
AnchorPoint: "base" 4 -163 mark 0
LayerCount: 2
Fore
SplineSet
-280 -170 m 257
 -280 -270 l 257
 280 -270 l 257
 280 -170 l 257
 -280 -170 l 257
EndSplineSet
EndChar

StartChar: uni0335
Encoding: 828 821 828
GlifName: uni0335
Width: 0
VWidth: 0
GlyphClass: 4
Flags: W
AnchorPoint: "base" 4 -163 mark 0
LayerCount: 2
Fore
SplineSet
-575 1013 m 257
 -575 935 l 257
 -15 935 l 257
 -15 1013 l 257
 -575 1013 l 257
EndSplineSet
EndChar

StartChar: uni0345
Encoding: 832 837 832
GlifName: uni0345
Width: 0
VWidth: 0
GlyphClass: 4
Flags: W
LayerCount: 2
Fore
SplineSet
-97 -116 m 257
 -100 -338 l 257
 100 -338 l 257
 103 -116 l 257
 -97 -116 l 257
-100 -338 m 257
 -22 -521 l 257
 200 -480 l 257
 203 -321 l 257
 -100 -338 l 257
EndSplineSet
EndChar

StartChar: uni035C
Encoding: 833 860 833
GlifName: doublebrevebelowcomb
Width: 0
VWidth: 0
GlyphClass: 2
Flags: W
AnchorPoint: "base" 0 9 basechar 0
LayerCount: 2
Fore
SplineSet
-1150 -192 m 257
 -1852 169 l 257
 -1852 -53 l 257
 -1150 -414 l 257
 -1150 -192 l 257
1027 -160 m 257
 -1150 -192 l 257
 -1150 -414 l 257
 1030 -382 l 257
 1027 -160 l 257
1030 -382 m 257
 1831 10 l 257
 1831 232 l 257
 1027 -160 l 257
 1030 -382 l 257
EndSplineSet
EndChar

StartChar: uni035F
Encoding: 834 863 834
GlifName: doublemacronbelowcomb
Width: 0
VWidth: 0
GlyphClass: 4
Flags: W
AnchorPoint: "base" 6 -108 mark 0
LayerCount: 2
Fore
SplineSet
-450 -170 m 257
 -450 -248 l 257
 442 -248 l 257
 442 -170 l 257
 -450 -170 l 257
EndSplineSet
EndChar

StartChar: uni0394
Encoding: 839 916 839
GlifName: uni0394
Width: 1024
VWidth: 0
GlyphClass: 2
Flags: W
LayerCount: 2
Fore
SplineSet
150 197 m 257
 150 -3 l 257
 873 -3 l 257
 873 197 l 257
 150 197 l 257
917 0 m 257
 657 1548 l 257
 436 1548 l 257
 716 0 l 257
 917 0 l 257
307 0 m 257
 532 1548 l 257
 309 1548 l 257
 106 0 l 257
 307 0 l 257
EndSplineSet
EndChar

StartChar: uni03A9
Encoding: 840 937 840
GlifName: uni03A_9
Width: 1024
VWidth: 0
GlyphClass: 2
Flags: W
LayerCount: 2
Fore
SplineSet
558 489 m 257
 558 180 l 257
 762 180 l 257
 762 489 l 257
 558 489 l 257
269 489 m 257
 269 180 l 257
 469 180 l 257
 469 489 l 257
 269 489 l 257
558 213 m 257
 558 9 l 257
 915 9 l 257
 915 213 l 257
 558 213 l 257
112 213 m 257
 112 9 l 257
 469 9 l 257
 469 213 l 257
 112 213 l 257
558 611 m 257
 558 407 l 257
 915 407 l 257
 915 611 l 257
 558 611 l 257
110 1537 m 257
 110 566 l 257
 311 566 l 257
 311 1537 l 257
 110 1537 l 257
707 1537 m 257
 707 566 l 257
 910 566 l 257
 910 1537 l 257
 707 1537 l 257
174 1537 m 257
 174 1337 l 257
 817 1337 l 257
 817 1537 l 257
 174 1537 l 257
112 611 m 257
 112 407 l 257
 469 407 l 257
 469 611 l 257
 112 611 l 257
EndSplineSet
EndChar

StartChar: uni03CF
Encoding: 842 975 842
GlifName: K_aiS_ymbol
Width: 1024
VWidth: 0
GlyphClass: 2
Flags: W
LayerCount: 2
Fore
SplineSet
463 -280 m 257
 656 -379 l 257
 991 0 l 257
 798 99 l 257
 463 -280 l 257
EndSplineSet
Refer: 78 75 N 1 0 0 1 0 0 2
EndChar

StartChar: uni03D7
Encoding: 843 983 843
GlifName: kaiS_ymbol
Width: 1024
VWidth: 0
GlyphClass: 2
Flags: W
LayerCount: 2
Fore
SplineSet
53 1017 m 257
 56 819 l 257
 415 709 l 257
 483 909 l 257
 53 1017 l 257
298 908 m 257
 2 22 l 257
 186 22 l 257
 482 908 l 257
 298 908 l 257
697 1014 m 257
 11 18 l 257
 195 18 l 257
 881 1014 l 257
 697 1014 l 257
688 991 m 257
 392 -5 l 257
 576 -5 l 257
 872 991 l 257
 688 991 l 257
501 193 m 257
 504 -5 l 257
 845 -2 l 257
 891 193 l 257
 501 193 l 257
442 -183 m 257
 485 -346 l 257
 776 -270 l 257
 819 -104 l 257
 442 -183 l 257
883 139 m 257
 704 185 l 257
 615 -163 l 257
 785 -239 l 257
 883 139 l 257
EndSplineSet
EndChar

StartChar: uni046A
Encoding: 848 1130 848
GlifName: uni046A_
Width: 1024
VWidth: 0
GlyphClass: 2
Flags: W
LayerCount: 2
Fore
SplineSet
157 1548 m 257
 157 1348 l 257
 909 1348 l 257
 909 1548 l 257
 157 1548 l 257
423 737 m 257
 423 2 l 257
 622 2 l 257
 622 737 l 257
 423 737 l 257
160 1355 m 257
 748 4 l 257
 947 4 l 257
 359 1355 l 257
 160 1355 l 257
711 1355 m 257
 73 5 l 257
 272 5 l 257
 910 1355 l 257
 711 1355 l 257
EndSplineSet
EndChar

StartChar: uni046B
Encoding: 849 1131 849
GlifName: yusbig-cy
Width: 1024
VWidth: 0
GlyphClass: 2
Flags: W
LayerCount: 2
Fore
SplineSet
157 1189 m 257
 157 989 l 257
 909 989 l 257
 909 1189 l 257
 157 1189 l 257
423 625 m 257
 423 2 l 257
 622 2 l 257
 622 625 l 257
 423 625 l 257
160 996 m 257
 748 4 l 257
 947 4 l 257
 359 996 l 257
 160 996 l 257
711 996 m 257
 73 5 l 257
 272 5 l 257
 910 996 l 257
 711 996 l 257
EndSplineSet
EndChar

StartChar: uni0494
Encoding: 854 1172 854
GlifName: uni0494
Width: 1024
VWidth: 0
GlyphClass: 2
Flags: W
LayerCount: 2
Fore
SplineSet
300 1547 m 257
 300 1347 l 257
 997 1347 l 257
 997 1547 l 257
 300 1547 l 257
233 1544 m 257
 233 -1 l 257
 433 -1 l 257
 433 1544 l 257
 233 1544 l 257
316 994 m 257
 316 794 l 257
 929 794 l 257
 929 994 l 257
 316 994 l 257
729 989 m 257
 729 -406 l 257
 929 -406 l 257
 929 989 l 257
 729 989 l 257
606 -243 m 257
 606 -443 l 257
 929 -443 l 257
 929 -243 l 257
 606 -243 l 257
EndSplineSet
EndChar

StartChar: uni0495
Encoding: 855 1173 855
GlifName: uni0495
Width: 1024
VWidth: 0
GlyphClass: 2
Flags: W
LayerCount: 2
Fore
SplineSet
300 1017 m 257
 300 817 l 257
 997 817 l 257
 997 1017 l 257
 300 1017 l 257
233 1014 m 257
 233 -1 l 257
 433 -1 l 257
 433 1014 l 257
 233 1014 l 257
316 464 m 257
 316 264 l 257
 929 264 l 257
 929 464 l 257
 316 464 l 257
729 459 m 257
 729 -406 l 257
 929 -406 l 257
 929 459 l 257
 729 459 l 257
606 -243 m 257
 606 -443 l 257
 929 -443 l 257
 929 -243 l 257
 606 -243 l 257
EndSplineSet
EndChar

StartChar: uni04A6
Encoding: 872 1190 872
GlifName: uni04A_6
Width: 1024
VWidth: 0
GlyphClass: 2
Flags: W
LayerCount: 2
Fore
SplineSet
42 1548 m 257
 42 1348 l 257
 714 1348 l 257
 714 1548 l 257
 42 1548 l 257
529 1548 m 257
 529 -1 l 257
 729 -1 l 257
 729 1548 l 257
 529 1548 l 257
668 994 m 257
 668 794 l 257
 986 794 l 257
 986 994 l 257
 668 994 l 257
786 989 m 257
 786 -406 l 257
 986 -406 l 257
 986 989 l 257
 786 989 l 257
663 -243 m 257
 663 -443 l 257
 986 -443 l 257
 986 -243 l 257
 663 -243 l 257
37 1548 m 257
 37 -1 l 257
 237 -1 l 257
 237 1548 l 257
 37 1548 l 257
EndSplineSet
EndChar

StartChar: uni04A7
Encoding: 873 1191 873
GlifName: uni04A_7
Width: 1024
VWidth: 0
GlyphClass: 2
Flags: W
LayerCount: 2
Fore
SplineSet
46 1017 m 257
 46 817 l 257
 687 817 l 257
 687 1017 l 257
 46 1017 l 257
46 1010 m 257
 46 -5 l 257
 246 -5 l 257
 246 1010 l 257
 46 1010 l 257
548 464 m 257
 548 264 l 257
 967 264 l 257
 967 464 l 257
 548 464 l 257
767 459 m 257
 767 -406 l 257
 967 -406 l 257
 967 459 l 257
 767 459 l 257
644 -243 m 257
 644 -443 l 257
 967 -443 l 257
 967 -243 l 257
 644 -243 l 257
487 1018 m 257
 487 3 l 257
 687 3 l 257
 687 1018 l 257
 487 1018 l 257
EndSplineSet
EndChar

StartChar: uni04A8
Encoding: 874 1192 874
GlifName: uni04A_8
Width: 1024
VWidth: 0
GlyphClass: 2
Flags: W
LayerCount: 2
Fore
SplineSet
64 1550 m 257
 64 101 l 257
 264 101 l 257
 264 1550 l 257
 64 1550 l 257
65 202 m 257
 65 2 l 257
 925 2 l 257
 925 202 l 257
 65 202 l 257
756 1018 m 257
 756 5 l 257
 946 5 l 257
 946 1018 l 257
 756 1018 l 257
546 1018 m 257
 546 819 l 257
 925 819 l 257
 925 1018 l 257
 546 1018 l 257
487 1018 m 257
 487 -307 l 257
 687 -307 l 257
 687 1018 l 257
 487 1018 l 257
592 -107 m 257
 592 -307 l 257
 950 -307 l 257
 950 -107 l 257
 592 -107 l 257
129 1551 m 257
 129 1352 l 257
 495 1352 l 257
 495 1551 l 257
 129 1551 l 257
EndSplineSet
EndChar

StartChar: uni04A9
Encoding: 875 1193 875
GlifName: uni04A_9
Width: 1024
VWidth: 0
GlyphClass: 2
Flags: W
LayerCount: 2
Fore
SplineSet
64 1025 m 257
 64 101 l 257
 264 101 l 257
 264 1025 l 257
 64 1025 l 257
65 202 m 257
 65 2 l 257
 925 2 l 257
 925 202 l 257
 65 202 l 257
756 700 m 257
 756 5 l 257
 946 5 l 257
 946 700 l 257
 756 700 l 257
546 700 m 257
 546 501 l 257
 925 501 l 257
 925 700 l 257
 546 700 l 257
487 700 m 257
 487 -265 l 257
 687 -265 l 257
 687 700 l 257
 487 700 l 257
592 -65 m 257
 592 -265 l 257
 950 -265 l 257
 950 -65 l 257
 592 -65 l 257
129 1026 m 257
 129 827 l 257
 495 827 l 257
 495 1026 l 257
 129 1026 l 257
EndSplineSet
EndChar

StartChar: uni04BC
Encoding: 894 1212 894
GlifName: uni04B_C_
Width: 1024
VWidth: 0
GlyphClass: 2
Flags: W
AnchorPoint: "top" 530 1691 basechar 0
AnchorPoint: "base" 569 -74 basechar 0
LayerCount: 2
Fore
SplineSet
304 1543 m 257
 304 1343 l 257
 843 1343 l 257
 843 1543 l 257
 304 1543 l 257
254 1543 m 257
 254 0 l 257
 456 0 l 257
 456 1543 l 257
 254 1543 l 257
356 201 m 257
 356 0 l 257
 938 0 l 257
 938 201 l 257
 356 201 l 257
206 677 m 257
 209 1016 l 257
 9 1013 l 257
 6 674 l 257
 206 677 l 257
61 675 m 257
 946 675 l 257
 946 875 l 257
 61 875 l 257
 61 675 l 257
646 1513 m 257
 806 674 l 257
 1001 674 l 257
 841 1513 l 257
 646 1513 l 257
EndSplineSet
EndChar

StartChar: uni04BD
Encoding: 895 1213 895
GlifName: uni04B_D_
Width: 1024
VWidth: 0
GlyphClass: 2
Flags: W
AnchorPoint: "top" 552 1096 basechar 0
AnchorPoint: "base" 569 -84 basechar 0
LayerCount: 2
Fore
SplineSet
558 1023 m 257
 558 823 l 257
 869 762 l 257
 869 962 l 257
 558 1023 l 257
356 1023 m 257
 356 6 l 257
 559 6 l 257
 559 1023 l 257
 356 1023 l 257
458 207 m 257
 458 6 l 257
 939 6 l 257
 939 207 l 257
 458 207 l 257
234 635 m 257
 233 735 l 257
 54 733 l 257
 55 633 l 257
 234 635 l 257
57 452 m 257
 915 452 l 257
 915 631 l 257
 57 631 l 257
 57 452 l 257
673 964 m 257
 743 451 l 257
 938 451 l 257
 868 964 l 257
 673 964 l 257
EndSplineSet
EndChar

StartChar: uni04E0
Encoding: 917 1248 917
GlifName: uni04E_0
Width: 1024
VWidth: 0
GlyphClass: 2
Flags: W
LayerCount: 2
Fore
SplineSet
124 1547 m 257
 124 1347 l 257
 950 1347 l 257
 950 1547 l 257
 124 1547 l 257
750 1347 m 257
 268 892 l 257
 468 892 l 257
 950 1347 l 257
 750 1347 l 257
743 710 m 257
 743 7 l 257
 943 7 l 257
 943 710 l 257
 743 710 l 257
124 200 m 257
 124 0 l 257
 943 0 l 257
 943 200 l 257
 124 200 l 257
269 892 m 257
 269 692 l 257
 943 692 l 257
 943 892 l 257
 269 892 l 257
EndSplineSet
EndChar

StartChar: uni04E1
Encoding: 918 1249 918
GlifName: uni04E_1
Width: 1024
VWidth: 0
GlyphClass: 2
Flags: W
LayerCount: 2
Fore
SplineSet
124 1016 m 257
 124 816 l 257
 950 816 l 257
 950 1016 l 257
 124 1016 l 257
750 816 m 257
 268 361 l 257
 468 361 l 257
 950 816 l 257
 750 816 l 257
743 179 m 257
 743 -524 l 257
 943 -524 l 257
 943 179 l 257
 743 179 l 257
124 -331 m 257
 124 -531 l 257
 943 -531 l 257
 943 -331 l 257
 124 -331 l 257
269 361 m 257
 269 161 l 257
 943 161 l 257
 943 361 l 257
 269 361 l 257
EndSplineSet
EndChar

StartChar: uni04E9
Encoding: 926 1257 926
GlifName: obarred-cy
Width: 1024
VWidth: 0
GlyphClass: 2
Flags: W
AnchorPoint: "top" 546 1158 basechar 0
AnchorPoint: "base" 536 -38 basechar 0
LayerCount: 2
Fore
SplineSet
104 1023 m 257
 104 0 l 257
 304 0 l 257
 304 1023 l 257
 104 1023 l 257
719 1023 m 257
 719 0 l 257
 921 0 l 257
 921 1023 l 257
 719 1023 l 257
227 1023 m 257
 227 822 l 257
 813 822 l 257
 813 1023 l 257
 227 1023 l 257
231 200 m 257
 231 0 l 257
 803 0 l 257
 803 200 l 257
 231 200 l 257
183.454 631 m 257
 183.454 423 l 257
 840.546 423 l 257
 840.546 631 l 257
 183.454 631 l 257
EndSplineSet
EndChar

StartChar: uni0900
Encoding: 945 2304 945
GlifName: uni0900
Width: 0
VWidth: 0
GlyphClass: 4
Flags: W
AnchorPoint: "abvm_deva" -297 1632 mark 0
LayerCount: 2
Fore
SplineSet
-402 2124 m 257
 -402 1639 l 257
 -203 1639 l 257
 -203 2124 l 257
 -402 2124 l 257
-356 2124 m 257
 -356 1925 l 257
 278 1925 l 257
 278 2124 l 257
 -356 2124 l 257
-90 1865 m 257
 -90 1665 l 257
 110 1665 l 257
 110 1865 l 257
 -90 1865 l 257
202 2124 m 257
 202 1636 l 257
 402 1636 l 257
 402 2124 l 257
 202 2124 l 257
EndSplineSet
EndChar

StartChar: uni0901
Encoding: 946 2305 946
GlifName: uni0901
Width: 0
VWidth: 0
GlyphClass: 4
Flags: W
AnchorPoint: "abvm_deva" -334 1633 mark 0
LayerCount: 2
Fore
SplineSet
-402 2124 m 257
 -402 1639 l 257
 -203 1639 l 257
 -203 2124 l 257
 -402 2124 l 257
-356 1842 m 257
 -356 1641 l 257
 278 1641 l 257
 278 1842 l 257
 -356 1842 l 257
-100 2095 m 257
 -100 1895 l 257
 100 1895 l 257
 100 2095 l 257
 -100 2095 l 257
202 2132 m 257
 202 1641 l 257
 402 1641 l 257
 402 2132 l 257
 202 2132 l 257
EndSplineSet
EndChar

StartChar: uni0902
Encoding: 947 2306 947
GlifName: uni0902
Width: 0
VWidth: 0
GlyphClass: 4
Flags: W
AnchorPoint: "abvm_deva" 1 1541 mark 0
LayerCount: 2
Fore
SplineSet
-100 1839 m 257
 -100 1639 l 257
 100 1639 l 257
 100 1839 l 257
 -100 1839 l 257
EndSplineSet
EndChar

StartChar: uni0903
Encoding: 948 2307 948
GlifName: uni0903
Width: 1024
VWidth: 0
GlyphClass: 2
Flags: W
LayerCount: 2
Fore
SplineSet
412 649 m 257
 412 449 l 257
 612 449 l 257
 612 649 l 257
 412 649 l 257
412 1317 m 257
 412 1117 l 257
 612 1117 l 257
 612 1317 l 257
 412 1317 l 257
EndSplineSet
EndChar

StartChar: uni0904
Encoding: 949 2308 949
GlifName: uni0904
Width: 1024
VWidth: 0
GlyphClass: 2
Flags: W
AnchorPoint: "abvm_deva" 636 1972 basechar 0
LayerCount: 2
Fore
SplineSet
266 2155 m 257
 266 1836 l 257
 464 1836 l 257
 464 2155 l 257
 266 2155 l 257
265 1967 m 257
 265 1768 l 257
 948 1768 l 257
 948 1967 l 257
 265 1967 l 257
749 1956 m 257
 749 1516 l 257
 950 1516 l 257
 950 1956 l 257
 749 1956 l 257
716 1548 m 257
 716 1347 l 257
 1025 1347 l 257
 1025 1548 l 257
 716 1548 l 257
777 1419 m 257
 777 0 l 257
 976 0 l 257
 976 1419 l 257
 777 1419 l 257
50 1548 m 257
 50 1348 l 257
 573 1348 l 257
 573 1548 l 257
 50 1548 l 257
399 1548 m 257
 399 140 l 257
 599 140 l 257
 599 1548 l 257
 399 1548 l 257
134 894 m 257
 134 693 l 257
 831 693 l 257
 831 894 l 257
 134 894 l 257
25 201 m 257
 25 0 l 257
 599 0 l 257
 599 201 l 257
 25 201 l 257
EndSplineSet
EndChar

StartChar: uni0905
Encoding: 950 2309 950
GlifName: uni0905
Width: 1024
VWidth: 0
GlyphClass: 2
Flags: W
AnchorPoint: "abvm_deva" 869 1556 basechar 0
LayerCount: 2
Fore
SplineSet
716 1548 m 257
 716 1348 l 257
 1027 1348 l 257
 1027 1548 l 257
 716 1548 l 257
777 1419 m 257
 777 0 l 257
 976 0 l 257
 976 1419 l 257
 777 1419 l 257
50 1548 m 257
 50 1348 l 257
 573 1348 l 257
 573 1548 l 257
 50 1548 l 257
399 1548 m 257
 399 140 l 257
 599 140 l 257
 599 1548 l 257
 399 1548 l 257
134 894 m 257
 134 693 l 257
 831 693 l 257
 831 894 l 257
 134 894 l 257
25 201 m 257
 25 0 l 257
 599 0 l 257
 599 201 l 257
 25 201 l 257
EndSplineSet
EndChar

StartChar: uni0906
Encoding: 951 2310 951
GlifName: uni0906
Width: 1024
VWidth: 0
GlyphClass: 2
Flags: W
AnchorPoint: "abvm_deva" 780 1554 basechar 0
LayerCount: 2
Fore
SplineSet
528 1548 m 257
 528 1348 l 257
 1025 1348 l 257
 1025 1548 l 257
 528 1548 l 257
544 1419 m 257
 544 0 l 257
 743 0 l 257
 743 1419 l 257
 544 1419 l 257
25 1548 m 257
 25 1348 l 257
 385 1348 l 257
 385 1548 l 257
 25 1548 l 257
211 1548 m 257
 211 140 l 257
 411 140 l 257
 411 1548 l 257
 211 1548 l 257
109 894 m 257
 109 693 l 257
 643 693 l 257
 643 894 l 257
 109 894 l 257
0 201 m 257
 0 0 l 257
 411 0 l 257
 411 201 l 257
 0 201 l 257
811 1420 m 257
 811 0 l 257
 1010 0 l 257
 1010 1420 l 257
 811 1420 l 257
EndSplineSet
EndChar

StartChar: uni0907
Encoding: 952 2311 952
GlifName: uni0907
Width: 1024
VWidth: 0
GlyphClass: 2
Flags: W
AnchorPoint: "abvm_deva" 650 1555 basechar 0
LayerCount: 2
Fore
SplineSet
0 1548 m 257
 0 1348 l 257
 1025 1348 l 257
 1025 1548 l 257
 0 1548 l 257
546 1537 m 257
 546 1110 l 257
 746 1110 l 257
 746 1537 l 257
 546 1537 l 257
165 1205 m 257
 165 1004 l 257
 746 1004 l 257
 746 1205 l 257
 165 1205 l 257
165 1181 m 257
 165 738 l 257
 335 738 l 257
 335 1181 l 257
 165 1181 l 257
165 881 m 257
 165 681 l 257
 760 681 l 257
 760 881 l 257
 165 881 l 257
639 881 m 257
 639 278 l 257
 838 278 l 257
 838 881 l 257
 639 881 l 257
143 298 m 257
 143 97 l 257
 838 97 l 257
 838 298 l 257
 143 298 l 257
259 298 m 257
 259 -244 l 257
 459 -244 l 257
 459 298 l 257
 259 298 l 257
EndSplineSet
EndChar

StartChar: uni0908
Encoding: 953 2312 953
GlifName: uni0908
Width: 1024
VWidth: 0
GlyphClass: 2
Flags: W
AnchorPoint: "abvm_deva" 832 1554 basechar 0
LayerCount: 2
Fore
SplineSet
0 1548 m 257
 0 1348 l 257
 1025 1348 l 257
 1025 1548 l 257
 0 1548 l 257
546 1548 m 257
 546 1104 l 257
 746 1104 l 257
 746 1548 l 257
 546 1548 l 257
165 1205 m 257
 165 1004 l 257
 746 1004 l 257
 746 1205 l 257
 165 1205 l 257
165 1181 m 257
 165 738 l 257
 365 738 l 257
 365 1181 l 257
 165 1181 l 257
165 881 m 257
 165 681 l 257
 760 681 l 257
 760 881 l 257
 165 881 l 257
657 881 m 257
 657 285 l 257
 838 285 l 257
 838 881 l 257
 657 881 l 257
143 298 m 257
 143 97 l 257
 841 97 l 257
 841 298 l 257
 143 298 l 257
259 298 m 257
 259 -244 l 257
 482 -244 l 257
 482 298 l 257
 259 298 l 257
268 1770 m 257
 515 1423 l 257
 678 1537 l 257
 430 1886 l 257
 268 1770 l 257
EndSplineSet
EndChar

StartChar: uni0909
Encoding: 954 2313 954
GlifName: uni0909
Width: 1024
VWidth: 0
GlyphClass: 2
Flags: W
AnchorPoint: "abvm_deva" 590 1551 basechar 0
LayerCount: 2
Fore
SplineSet
0 1548 m 257
 0 1348 l 257
 1026 1348 l 257
 1026 1548 l 257
 0 1548 l 257
480 1537 m 257
 480 1001 l 257
 679 1001 l 257
 679 1537 l 257
 480 1537 l 257
235 1044 m 257
 235 845 l 257
 877 845 l 257
 877 1044 l 257
 235 1044 l 257
678 994 m 257
 678 0 l 257
 878 0 l 257
 878 994 l 257
 678 994 l 257
130 201 m 257
 130 0 l 257
 867 0 l 257
 867 201 l 257
 130 201 l 257
130 363 m 257
 130 36 l 257
 330 36 l 257
 330 363 l 257
 130 363 l 257
EndSplineSet
EndChar

StartChar: uni090A
Encoding: 955 2314 955
GlifName: uni090A_
Width: 1024
VWidth: 0
GlyphClass: 2
Flags: W
AnchorPoint: "abvm_deva" 379 1553 basechar 0
LayerCount: 2
Fore
SplineSet
0 1548 m 257
 0 1348 l 257
 1025 1348 l 257
 1025 1548 l 257
 0 1548 l 257
308 1537 m 257
 308 1001 l 257
 507 1001 l 257
 507 1537 l 257
 308 1537 l 257
151 1044 m 257
 151 845 l 257
 974 845 l 257
 974 1044 l 257
 151 1044 l 257
487 994 m 257
 487 11 l 257
 687 11 l 257
 687 994 l 257
 487 994 l 257
46 204 m 257
 46 0 l 257
 684 0 l 257
 684 204 l 257
 46 204 l 257
46 366 m 257
 46 39 l 257
 246 39 l 257
 246 366 l 257
 46 366 l 257
775 946 m 257
 775 217 l 257
 974 217 l 257
 974 946 l 257
 775 946 l 257
EndSplineSet
EndChar

StartChar: uni090B
Encoding: 956 2315 956
GlifName: uni090B_
Width: 1024
VWidth: 0
GlyphClass: 2
Flags: W
AnchorPoint: "abvm_deva" 610 1551 basechar 0
LayerCount: 2
Fore
SplineSet
0 1548 m 257
 0 1346 l 257
 1027 1346 l 257
 1027 1548 l 257
 0 1548 l 257
518 1525 m 257
 518 0 l 257
 717 0 l 257
 717 1525 l 257
 518 1525 l 257
22 1044 m 257
 22 845 l 257
 326 845 l 257
 326 1044 l 257
 22 1044 l 257
511 496 m 257
 118 329 l 257
 200 136 l 257
 593 303 l 257
 511 496 l 257
326 1044 m 257
 326 846 l 257
 608 742 l 257
 608 944 l 257
 326 1044 l 257
695 897 m 257
 695 699 l 257
 1010 699 l 257
 1010 897 l 257
 695 897 l 257
788 897 m 257
 788 262 l 257
 987 262 l 257
 987 897 l 257
 788 897 l 257
864 462 m 257
 864 262 l 257
 1028 262 l 257
 1028 462 l 257
 864 462 l 257
EndSplineSet
EndChar

StartChar: uni090C
Encoding: 957 2316 957
GlifName: uni090C_
Width: 1024
VWidth: 0
GlyphClass: 2
Flags: W
AnchorPoint: "abvm_deva" 662 1553 basechar 0
LayerCount: 2
Fore
SplineSet
0 1548 m 257
 0 1350 l 257
 1026 1350 l 257
 1026 1548 l 257
 0 1548 l 257
557 1524 m 257
 557 689 l 257
 757 689 l 257
 757 1524 l 257
 557 1524 l 257
945 791 m 257
 41 791 l 257
 41 590 l 257
 945 590 l 257
 945 791 l 257
42 777 m 257
 42 252 l 257
 243 252 l 257
 243 777 l 257
 42 777 l 257
393 791 m 257
 393 433 l 257
 594 433 l 257
 594 791 l 257
 393 791 l 257
745 791 m 257
 745 72 l 257
 945 72 l 257
 945 791 l 257
 745 791 l 257
820 260 m 257
 820 72 l 257
 1021 72 l 257
 1021 260 l 257
 820 260 l 257
EndSplineSet
EndChar

StartChar: uni090D
Encoding: 958 2317 958
GlifName: uni090D_
Width: 1024
VWidth: 0
GlyphClass: 2
Flags: W
AnchorPoint: "abvm_deva" 981 1554 basechar 0
LayerCount: 2
Fore
SplineSet
0 1548 m 257
 0 1348 l 257
 1026 1348 l 257
 1026 1548 l 257
 0 1548 l 257
729 1548 m 257
 729 779 l 257
 928 779 l 257
 928 1548 l 257
 729 1548 l 257
635 839 m 257
 635 639 l 257
 928 639 l 257
 928 839 l 257
 635 839 l 257
142 1537 m 257
 142 338 l 257
 341 338 l 257
 341 1537 l 257
 142 1537 l 257
142 496 m 257
 142 297 l 257
 749 297 l 257
 749 496 l 257
 142 496 l 257
550 358 m 257
 550 -98 l 257
 749 -98 l 257
 749 358 l 257
 550 358 l 257
387 101 m 257
 387 -98 l 257
 747 -98 l 257
 747 101 l 257
 387 101 l 257
157 2124 m 257
 157 1639 l 257
 356 1639 l 257
 356 2124 l 257
 157 2124 l 257
203 1840 m 257
 203 1641 l 257
 797 1641 l 257
 797 1840 l 257
 203 1840 l 257
622 2132 m 257
 622 1641 l 257
 821 1641 l 257
 821 2132 l 257
 622 2132 l 257
EndSplineSet
EndChar

StartChar: uni090E
Encoding: 959 2318 959
GlifName: uni090E_
Width: 1024
VWidth: 0
GlyphClass: 2
Flags: W
AnchorPoint: "abvm_deva" 1015 1555 basechar 0
LayerCount: 2
Fore
SplineSet
0 1548 m 257
 0 1348 l 257
 1026 1348 l 257
 1026 1548 l 257
 0 1548 l 257
729 1403 m 257
 729 779 l 257
 928 779 l 257
 928 1403 l 257
 729 1403 l 257
635 979 m 257
 635 779 l 257
 928 779 l 257
 928 979 l 257
 635 979 l 257
142 1537 m 257
 142 338 l 257
 341 338 l 257
 341 1537 l 257
 142 1537 l 257
142 358 m 257
 142 159 l 257
 742 159 l 257
 742 358 l 257
 142 358 l 257
541 358 m 257
 541 -98 l 257
 742 -98 l 257
 742 358 l 257
 541 358 l 257
382 -38 m 257
 382 -238 l 257
 742 -238 l 257
 742 -38 l 257
 382 -38 l 257
270 2062 m 257
 270 1823 l 257
 470 1823 l 257
 470 2062 l 257
 270 2062 l 257
269 1868 m 257
 269 1667 l 257
 952 1667 l 257
 952 1868 l 257
 269 1868 l 257
750 1858 m 257
 750 1537 l 257
 952 1537 l 257
 952 1858 l 257
 750 1858 l 257
EndSplineSet
EndChar

StartChar: uni090F
Encoding: 960 2319 960
GlifName: uni090F_
Width: 1024
VWidth: 0
GlyphClass: 2
Flags: W
AnchorPoint: "abvm_deva" 972 1549 basechar 0
LayerCount: 2
Fore
SplineSet
0 1548 m 257
 0 1348 l 257
 1026 1348 l 257
 1026 1548 l 257
 0 1548 l 257
724 1548 m 257
 724 782 l 257
 924 782 l 257
 924 1548 l 257
 724 1548 l 257
631 979 m 257
 631 779 l 257
 924 779 l 257
 924 979 l 257
 631 979 l 257
138 1537 m 257
 138 338 l 257
 338 338 l 257
 338 1537 l 257
 138 1537 l 257
138 497 m 257
 138 297 l 257
 738 297 l 257
 738 497 l 257
 138 497 l 257
545 473 m 257
 545 -98 l 257
 745 -98 l 257
 745 473 l 257
 545 473 l 257
383 102 m 257
 383 -98 l 257
 743 -98 l 257
 743 102 l 257
 383 102 l 257
EndSplineSet
EndChar

StartChar: uni0910
Encoding: 961 2320 961
GlifName: uni0910
Width: 1024
VWidth: 0
GlyphClass: 2
Flags: W
AnchorPoint: "abvm_deva" 998 1548 basechar 0
LayerCount: 2
Fore
SplineSet
0 1548 m 257
 0 1348 l 257
 1026 1348 l 257
 1026 1548 l 257
 0 1548 l 257
724 1548 m 257
 724 779 l 257
 924 779 l 257
 924 1548 l 257
 724 1548 l 257
631 979 m 257
 631 779 l 257
 924 779 l 257
 924 979 l 257
 631 979 l 257
138 1537 m 257
 138 338 l 257
 338 338 l 257
 338 1537 l 257
 138 1537 l 257
138 497 m 257
 138 297 l 257
 738 297 l 257
 738 497 l 257
 138 497 l 257
538 473 m 257
 538 -98 l 257
 738 -98 l 257
 738 473 l 257
 538 473 l 257
383 102 m 257
 383 -98 l 257
 743 -98 l 257
 743 102 l 257
 383 102 l 257
442 1883 m 257
 758 1433 l 257
 922 1548 l 257
 606 1998 l 257
 442 1883 l 257
EndSplineSet
EndChar

StartChar: uni0911
Encoding: 962 2321 962
GlifName: uni0911
Width: 1024
VWidth: 0
GlyphClass: 2
Flags: W
AnchorPoint: "abvm_deva" 1102 1555 basechar 0
LayerCount: 2
Fore
SplineSet
528 1548 m 257
 528 1348 l 257
 1025 1348 l 257
 1025 1548 l 257
 528 1548 l 257
544 1419 m 257
 544 0 l 257
 743 0 l 257
 743 1419 l 257
 544 1419 l 257
25 1548 m 257
 25 1348 l 257
 385 1348 l 257
 385 1548 l 257
 25 1548 l 257
211 1548 m 257
 211 140 l 257
 411 140 l 257
 411 1548 l 257
 211 1548 l 257
109 894 m 257
 109 693 l 257
 643 693 l 257
 643 894 l 257
 109 894 l 257
0 201 m 257
 0 0 l 257
 411 0 l 257
 411 201 l 257
 0 201 l 257
811 1420 m 257
 811 0 l 257
 1010 0 l 257
 1010 1420 l 257
 811 1420 l 257
532 2085 m 257
 532 1639 l 257
 732 1639 l 257
 732 2085 l 257
 532 2085 l 257
532 1839 m 257
 532 1638 l 257
 1023 1638 l 257
 1023 1839 l 257
 532 1839 l 257
823 2083 m 257
 823 1641 l 257
 1023 1641 l 257
 1023 2083 l 257
 823 2083 l 257
EndSplineSet
EndChar

StartChar: uni0912
Encoding: 963 2322 963
GlifName: uni0912
Width: 1024
VWidth: 0
GlyphClass: 2
Flags: W
AnchorPoint: "abvm_deva" 1028 1544 basechar 0
LayerCount: 2
Fore
SplineSet
528 1548 m 257
 528 1348 l 257
 1025 1348 l 257
 1025 1548 l 257
 528 1548 l 257
549 1419 m 257
 549 0 l 257
 748 0 l 257
 748 1419 l 257
 549 1419 l 257
25 1548 m 257
 25 1348 l 257
 385 1348 l 257
 385 1548 l 257
 25 1548 l 257
211 1548 m 257
 211 140 l 257
 411 140 l 257
 411 1548 l 257
 211 1548 l 257
109 894 m 257
 109 693 l 257
 643 693 l 257
 643 894 l 257
 109 894 l 257
0 201 m 257
 0 0 l 257
 411 0 l 257
 411 201 l 257
 0 201 l 257
811 1420 m 257
 811 0 l 257
 1010 0 l 257
 1010 1420 l 257
 811 1420 l 257
266 2155 m 257
 266 1836 l 257
 464 1836 l 257
 464 2155 l 257
 266 2155 l 257
265 1967 m 257
 265 1768 l 257
 948 1768 l 257
 948 1967 l 257
 265 1967 l 257
749 1956 m 257
 749 1516 l 257
 950 1516 l 257
 950 1956 l 257
 749 1956 l 257
EndSplineSet
EndChar

StartChar: uni0913
Encoding: 964 2323 964
GlifName: uni0913
Width: 1024
VWidth: 0
GlyphClass: 2
Flags: W
AnchorPoint: "abvm_deva" 1035 1560 basechar 0
LayerCount: 2
Fore
SplineSet
528 1548 m 257
 528 1348 l 257
 1025 1348 l 257
 1025 1548 l 257
 528 1548 l 257
544 1419 m 257
 544 0 l 257
 743 0 l 257
 743 1419 l 257
 544 1419 l 257
25 1548 m 257
 25 1348 l 257
 385 1348 l 257
 385 1548 l 257
 25 1548 l 257
211 1548 m 257
 211 140 l 257
 411 140 l 257
 411 1548 l 257
 211 1548 l 257
109 894 m 257
 109 693 l 257
 643 693 l 257
 643 894 l 257
 109 894 l 257
0 201 m 257
 0 0 l 257
 411 0 l 257
 411 201 l 257
 0 201 l 257
811 1423 m 257
 811 0 l 257
 1010 0 l 257
 1010 1423 l 257
 811 1423 l 257
639 1768 m 257
 800 1458 l 257
 978 1548 l 257
 816 1861 l 257
 639 1768 l 257
EndSplineSet
EndChar

